<svg width="16" height="16" xmlns="http://www.w3.org/2000/svg"><path d="M0 0h2v2H0V0zm0 4h2v2H0V4zm0 4h2v2H0V8zm0 4h2v2H0v-2zM2 2h2v2H2V2zm0 4h2v2H2V6zm0 4h2v2H2v-2zm0 4h2v2H2v-2zM4 0h2v2H4V0zm0 4h2v2H4V4zm0 4h2v2H4V8zm0 4h2v2H4v-2zM6 2h2v2H6V2zm0 4h2v2H6V6zm0 4h2v2H6v-2zm0 4h2v2H6v-2zM8 0h2v2H8V0zm0 4h2v2H8V4zm0 4h2v2H8V8zm0 4h2v2H8v-2zm2-10h2v2h-2V2zm0 4h2v2h-2V6zm0 4h2v2h-2v-2zm0 4h2v2h-2v-2zm2-14h2v2h-2V0zm0 4h2v2h-2V4zm0 4h2v2h-2V8zm0 4h2v2h-2v-2zm2-10h2v2h-2V2zm0 4h2v2h-2V6zm0 4h2v2h-2v-2zm0 4h2v2h-2v-2z" fill="#CACFD9"/></svg>