<svg width="24" height="24" xmlns="http://www.w3.org/2000/svg"><defs><linearGradient x1="48.048%" y1="64.639%" x2="48.048%" y2="160.447%" id="a"><stop stop-color="#DBE9F2" offset="0%"/><stop stop-color="#91BBD8" offset="100%"/></linearGradient></defs><g fill="none" fill-rule="evenodd"><path d="M7 3h8l5 5v12a1 1 0 01-1 1H7a1 1 0 01-1-1V4a1 1 0 011-1z" fill="url(#a)"/><rect fill="#8DB576" x="2" y="10" width="17" height="8" rx="2"/><path d="M15 3v4a1 1 0 001 1h4l-5-5z" fill="#2A3F64" opacity=".316"/><path d="M5.733 16c-.53 0-.945-.128-1.247-.383-.302-.256-.462-.63-.48-1.123-.004-.1-.006-.263-.006-.488 0-.23.002-.397.006-.5.018-.482.18-.853.486-1.114.305-.261.72-.392 1.241-.392.33 0 .625.054.886.161.262.108.468.263.62.467.152.203.231.444.239.722a.109.109 0 01-.036.083.123.123 0 01-.086.034h-.79c-.051 0-.09-.01-.113-.03a.255.255 0 01-.064-.115c-.052-.181-.13-.308-.236-.38a.73.73 0 00-.42-.109c-.418 0-.635.234-.65.7a17.924 17.924 0 000 .934c.015.466.232.7.65.7.17 0 .31-.037.42-.111.109-.075.188-.2.236-.378.015-.056.035-.094.061-.114.026-.02.065-.03.117-.03h.789a.12.12 0 01.086.033c.024.022.036.05.036.083a1.232 1.232 0 01-.24.722c-.151.204-.357.36-.619.467a2.311 2.311 0 01-.886.161zm4.761 0c-.359 0-.664-.052-.916-.156a1.337 1.337 0 01-.572-.41.96.96 0 01-.206-.556.11.11 0 01.036-.084.123.123 0 01.086-.033h.74a.23.23 0 01.107.022.356.356 0 01.092.078.559.559 0 00.225.22.83.83 0 00.408.086c.2 0 .354-.03.462-.092.107-.061.16-.145.16-.253a.246.246 0 00-.083-.191.739.739 0 00-.266-.134 5.74 5.74 0 00-.528-.13c-.448-.09-.783-.224-1.006-.406-.222-.181-.333-.44-.333-.778 0-.23.064-.434.192-.614.127-.18.309-.319.544-.419.235-.1.508-.15.82-.15.325 0 .608.056.847.17.239.112.422.253.55.422a.895.895 0 01.203.497.123.123 0 01-.034.086.109.109 0 01-.083.036h-.778a.214.214 0 01-.189-.1c-.022-.078-.08-.143-.172-.197a.677.677 0 00-.344-.08.66.66 0 00-.362.083.273.273 0 00-.127.244c0 .108.055.192.166.253.111.061.319.123.623.186.348.063.625.142.83.236.206.095.358.217.456.367.098.15.147.34.147.57 0 .251-.072.47-.217.655a1.356 1.356 0 01-.6.425 2.436 2.436 0 01-.878.147zm4.212 0a.242.242 0 01-.157-.049.249.249 0 01-.083-.122L13.31 12.17l-.011-.051c0-.03.012-.058.037-.083a.12.12 0 01.089-.037h.748a.2.2 0 01.14.049c.036.032.06.067.072.105l.777 2.583.783-2.583a.21.21 0 01.211-.154h.749c.034 0 .063.012.085.037a.12.12 0 01.035.083.212.212 0 01-.006.051l-1.16 3.658a.217.217 0 01-.077.122.242.242 0 01-.157.049h-.92z" fill="#FFF" fill-rule="nonzero"/></g></svg>