<svg width="24" height="24" xmlns="http://www.w3.org/2000/svg"><defs><linearGradient x1="48.048%" y1="64.639%" x2="48.048%" y2="160.447%" id="a"><stop stop-color="#DBE9F2" offset="0%"/><stop stop-color="#91BBD8" offset="100%"/></linearGradient></defs><g fill="none" fill-rule="evenodd"><path d="M7 3h8l5 5v12a1 1 0 01-1 1H7a1 1 0 01-1-1V4a1 1 0 011-1z" fill="url(#a)"/><rect fill="#5E8BFF" x="2" y="10" width="17" height="8" rx="2"/><path d="M15 3v4a1 1 0 001 1h4l-5-5z" fill="#2A3F64" opacity=".316"/><path d="M4.143 16a.137.137 0 01-.1-.043.137.137 0 01-.043-.1V12.15a.15.15 0 01.04-.106.134.134 0 01.103-.043h1.503c.564 0 1.002.134 1.314.403.312.268.476.654.491 1.157.004.11.006.257.006.44s-.002.328-.006.434C7.413 15.478 6.821 16 5.674 16H4.143zm1.503-.857c.24 0 .417-.057.531-.172.114-.114.175-.297.183-.548.008-.11.011-.253.011-.429 0-.175-.003-.316-.011-.423-.008-.243-.073-.423-.197-.54-.124-.116-.306-.174-.546-.174h-.543v2.286h.572zm4.887.857c-.526 0-.94-.128-1.244-.383-.304-.256-.465-.632-.483-1.128a14.772 14.772 0 01-.006-.478c0-.215.002-.376.006-.483.014-.49.176-.866.486-1.13.309-.266.723-.398 1.241-.398.515 0 .927.132 1.236.397.31.265.472.642.487 1.13.007.216.01.377.01.484 0 .111-.003.27-.01.478-.019.496-.18.872-.481 1.128-.302.255-.716.383-1.242.383zm0-.833a.618.618 0 00.461-.175c.115-.117.176-.296.184-.536.007-.215.01-.369.01-.462 0-.092-.003-.242-.01-.45-.008-.24-.069-.419-.184-.536a.618.618 0 00-.46-.175.625.625 0 00-.467.175c-.115.117-.176.296-.184.536a13.6 13.6 0 00-.005.45c0 .2.002.354.005.462.008.24.069.419.184.536.114.116.27.175.466.175zm4.7.833c-.53 0-.945-.128-1.247-.383-.302-.256-.462-.63-.48-1.123-.004-.1-.006-.263-.006-.488 0-.23.002-.397.006-.5.018-.482.18-.853.486-1.114.305-.261.72-.392 1.241-.392.33 0 .625.054.886.161.262.108.468.263.62.467.152.203.231.444.239.722a.109.109 0 01-.036.083.123.123 0 01-.086.034h-.79c-.051 0-.09-.01-.113-.03a.255.255 0 01-.064-.115c-.052-.181-.13-.308-.236-.38a.73.73 0 00-.42-.109c-.418 0-.635.234-.65.7a17.924 17.924 0 000 .934c.015.466.232.7.65.7.17 0 .31-.037.42-.111.109-.075.188-.2.236-.378.015-.056.035-.094.061-.114.026-.02.065-.03.117-.03h.789a.12.12 0 01.086.033c.024.022.036.05.036.083a1.232 1.232 0 01-.24.722c-.151.204-.357.36-.619.467a2.311 2.311 0 01-.886.161z" fill="#FFF" fill-rule="nonzero"/></g></svg>