<svg width="24" height="24" xmlns="http://www.w3.org/2000/svg"><path d="M2.382 11.61C4.536 8.07 7.772 6.276 12 6.276c4.227 0 7.472 1.792 9.645 5.332l.237.386-.231.389c-2.125 3.577-5.36 5.389-9.615 5.389-4.254 0-7.502-1.81-9.656-5.385l-.234-.389.236-.388zM12 8.05a3.489 3.489 0 00-.965 2.95H9.05A2.5 2.5 0 0112 8.05zM12 15a4.25 4.25 0 003.484-6.685c1.824.624 3.324 1.793 4.517 3.516l.117.175-.115.177c-1.84 2.739-4.471 4.09-7.967 4.09l-.347-.005c-3.326-.088-5.857-1.439-7.66-4.088L3.91 12l.116-.173c1.182-1.72 2.672-2.887 4.49-3.512A4.25 4.25 0 0012 15z" fill-rule="evenodd"/></svg>