<svg width="24" height="24" xmlns="http://www.w3.org/2000/svg"><path d="M19.012 14a1 1 0 01.994.883l.006.117v2a3 3 0 01-2.823 2.995l-.177.005h-9.97a3 3 0 01-2.995-2.824L4.04 17v-2a1 1 0 011.994-.117L6.04 15v2a1 1 0 00.884.993L7.04 18h9.971a1 1 0 00.994-.883l.006-.117v-2a1 1 0 011-1z"/><path d="M11.999 14.014h.002q.098 0 .195-.019.096-.02.187-.057.091-.037.173-.092.082-.055.151-.124.07-.07.125-.152.054-.082.092-.172.038-.091.057-.188.019-.096.019-.195V5.013q0-.098-.02-.195-.018-.096-.056-.187-.038-.091-.092-.173-.055-.082-.125-.151-.07-.07-.151-.124-.082-.055-.173-.093-.09-.037-.187-.057-.097-.019-.195-.019h-.002q-.098 0-.195.02-.096.019-.187.056-.091.038-.173.093-.082.054-.151.124-.07.07-.125.151-.054.082-.092.173-.038.09-.057.187-.019.097-.019.195v8.002q0 .099.02.195.018.097.056.188.038.09.092.172.055.082.125.152.07.07.151.124.082.055.173.092.09.038.187.057.097.02.195.02z"/><path d="M16.242 9.258l.001-.002q.07-.07.125-.151.054-.082.092-.173.038-.09.057-.187.019-.097.019-.195 0-.099-.02-.195-.018-.097-.056-.188-.038-.09-.092-.172-.055-.082-.125-.152l-3.537-3.537q-.07-.07-.151-.124-.082-.055-.173-.092-.09-.038-.187-.057-.097-.02-.195-.02t-.195.02q-.096.02-.187.057-.091.037-.173.092-.082.055-.151.124l-.002.002q-.07.07-.124.151-.055.082-.092.173-.038.09-.057.187-.02.097-.02.195 0 .099.02.195.019.097.057.188.037.09.092.172.055.082.124.152l3.537 3.537q.07.07.152.124.081.054.172.092.091.038.188.057.096.02.195.02.098 0 .194-.02.097-.02.188-.057.09-.038.173-.092.081-.055.15-.124z"/><path d="M7.757 9.256l.001.002q.07.07.151.124.082.054.173.092.091.038.188.057.096.02.194.02.099 0 .195-.02.097-.02.188-.057.09-.038.172-.092.082-.055.152-.124l3.537-3.537q.07-.07.124-.152.055-.082.092-.172.038-.091.057-.188.02-.096.02-.195 0-.098-.02-.195-.019-.096-.057-.187-.037-.091-.092-.173-.055-.082-.124-.151l-.002-.002q-.07-.07-.151-.124-.082-.055-.173-.092-.09-.038-.187-.057-.097-.02-.195-.02t-.195.02q-.096.02-.187.057-.091.037-.173.092-.082.055-.151.124L7.757 7.843q-.07.07-.125.152-.054.082-.092.172-.038.091-.057.188-.019.096-.019.195 0 .098.02.195.018.096.056.187.038.091.092.173.055.082.125.151z"/></svg>