<svg width="24" height="24" xmlns="http://www.w3.org/2000/svg"><path d="M18.342 4.932l-.001-.002q-.148-.133-.335-.199-.188-.066-.386-.056-.198.01-.378.096-.18.086-.312.233l-1.541 1.712A12.54 12.54 0 0012 6.276c-4.228 0-7.464 1.793-9.618 5.334l-.236.388.234.389c1.111 1.844 2.514 3.219 4.195 4.117l-.353.392q-.065.073-.116.158-.05.084-.083.177-.033.093-.047.19-.014.098-.009.196.005.098.03.193.024.096.066.185.043.088.101.167.06.08.132.145l.002.001q.073.066.158.116.084.05.177.084.093.032.19.047.097.014.196.009.098-.006.193-.03.096-.024.184-.066.09-.043.168-.102.079-.059.145-.132L18.416 6.343q.066-.074.116-.158.05-.085.083-.177.033-.093.047-.19.015-.098.01-.196-.006-.099-.03-.194t-.067-.184q-.042-.089-.1-.168-.06-.079-.133-.144zM7.615 15.35l1.41-1.566A4.237 4.237 0 017.75 10.75c0-.905.283-1.744.765-2.434-1.817.625-3.307 1.793-4.489 3.512l-.116.173.118.179c.978 1.436 2.17 2.491 3.587 3.17zM12 8.05a3.489 3.489 0 00-.965 2.95H9.05A2.5 2.5 0 0112 8.05zm-.311 8.218a16.87 16.87 0 01-.4-.017l-1.242 1.379c.636.095 1.3.142 1.989.142 4.254 0 7.49-1.812 9.615-5.39l.23-.388-.236-.386c-.868-1.415-1.907-2.55-3.112-3.403l-1.012 1.123c.94.637 1.765 1.47 2.48 2.503l.117.175-.115.177c-1.84 2.739-4.471 4.09-7.967 4.09l-.347-.005zm.745-1.29l3.816-4.238v.01a4.25 4.25 0 01-3.816 4.228z" fill-rule="evenodd"/></svg>