<svg width="48" height="48" xmlns="http://www.w3.org/2000/svg"><path d="M22.09 36H8.006q-.147 0-.294-.014-.146-.015-.29-.044-.145-.028-.286-.071t-.277-.1q-.137-.056-.266-.125-.13-.07-.253-.151-.122-.082-.236-.176-.114-.093-.218-.197-.105-.105-.198-.218-.093-.114-.175-.237-.082-.122-.152-.252-.07-.13-.125-.266-.057-.136-.1-.277-.042-.141-.071-.286-.029-.144-.043-.291-.015-.147-.015-.294V12.026q0-.147.015-.294.014-.146.043-.291.029-.144.071-.285.043-.141.1-.278.056-.136.125-.266.07-.13.152-.252.082-.123.175-.236.093-.114.198-.218.104-.105.218-.198.114-.094.236-.175.123-.082.253-.152.13-.07.266-.126.136-.056.277-.099.14-.043.285-.071.145-.029.291-.043.147-.015.294-.015h23.995q.147 0 .294.015.147.014.291.043.145.028.286.071.14.043.277.1.136.056.266.125.13.07.252.152.123.081.237.175.113.093.218.198.104.104.197.218.094.113.176.236.081.122.15.252.07.13.127.266.056.137.099.278.043.14.071.285.03.145.044.291.014.147.014.294v5.022" fill="none" stroke="#20BCEA" stroke-width="2" stroke-linecap="round" stroke-linejoin="round"/><path d="M41.107 38.018a9.286 9.286 0 002.428-3.36 9.226 9.226 0 00.06-7.077 9.226 9.226 0 00-4.956-5.048 9.227 9.227 0 00-7.093-.066 9.226 9.226 0 00-5.027 4.906 9.227 9.227 0 00-.087 7.143 9.255 9.255 0 002.483 3.498" fill="none" stroke="#3F6ADA" stroke-width="2" stroke-linecap="round"/><path d="M34.999 27h.002q.098 0 .195.02.096.018.187.056.091.038.173.092.082.055.151.125.07.07.125.151.054.082.092.173.038.09.057.187.019.097.019.195v8.002q0 .098-.02.195-.018.096-.056.187-.038.091-.092.173-.055.082-.125.151-.07.07-.151.125-.082.054-.173.092-.09.038-.187.057Q35.099 37 35 37h-.002q-.098 0-.195-.02-.096-.018-.187-.056-.091-.038-.173-.092-.082-.055-.151-.125-.07-.07-.125-.151-.054-.082-.092-.173-.038-.09-.057-.187Q34 36.099 34 36v-8.002q0-.098.02-.195.018-.096.056-.187.038-.091.092-.173.055-.082.125-.151.07-.07.151-.125.082-.054.173-.092.09-.038.187-.057Q34.901 27 35 27zm0 11h.002q.098 0 .195.02.096.018.187.056.091.038.173.092.082.055.151.125.07.07.125.151.054.082.092.173.038.09.057.187.019.097.019.195v1.002q0 .098-.02.195-.018.096-.056.187-.038.091-.092.173-.055.082-.125.151-.07.07-.151.125-.082.054-.173.092-.09.038-.187.057Q35.099 41 35 41h-.002q-.098 0-.195-.02-.096-.018-.187-.056-.091-.038-.173-.092-.082-.055-.151-.125-.07-.07-.125-.151-.054-.082-.092-.173-.038-.09-.057-.187Q34 40.099 34 40v-1.002q0-.098.02-.195.018-.096.056-.187.038-.091.092-.173.055-.082.125-.151.07-.07.151-.125.082-.054.173-.092.09-.038.187-.057Q34.901 38 35 38z" fill="#3F6ADA"/><path d="M35.706 27.292l.002.002q.07.07.124.151.055.082.092.173.038.09.057.187.02.097.02.195t-.02.195q-.019.096-.057.187-.037.091-.092.173-.055.082-.124.151l-3.537 3.537q-.07.07-.152.125-.081.054-.172.092-.091.038-.188.057-.096.019-.195.019-.098 0-.194-.02-.097-.018-.188-.056-.09-.038-.173-.092-.081-.055-.15-.125l-.002-.001q-.07-.07-.125-.151-.054-.082-.092-.173-.038-.091-.057-.188-.019-.096-.019-.194 0-.099.02-.195.018-.097.056-.188.038-.09.092-.172.055-.082.125-.152l3.537-3.537q.07-.07.151-.124.082-.055.173-.092.09-.038.187-.057.097-.02.195-.02t.195.02q.096.019.187.057.091.037.173.092.082.055.151.124z" fill="#3F6ADA"/><path d="M34.292 27.294l.002-.002q.07-.07.151-.124.082-.055.173-.092.09-.038.187-.057.097-.02.195-.02t.195.02q.096.019.187.057.091.037.173.092.082.055.151.124l3.537 3.537q.07.07.125.152.054.081.092.172.038.091.057.188.019.096.019.195 0 .098-.02.194-.018.097-.056.188-.038.09-.092.173-.055.081-.125.15l-.001.002q-.07.07-.151.125-.082.054-.173.092-.091.038-.188.057-.096.019-.194.019-.099 0-.195-.02-.097-.018-.188-.056-.09-.038-.172-.092-.082-.055-.152-.125l-3.537-3.537q-.07-.07-.124-.151-.055-.082-.092-.173-.038-.09-.057-.187-.02-.097-.02-.195t.02-.195q.019-.096.057-.187.037-.091.092-.173.055-.082.124-.151z" fill="#3F6ADA"/><path d="M28.5 18a2.5 2.5 0 100-5 2.5 2.5 0 000 5zm-16.167 1.251h.001q.076-.064.162-.111.086-.048.18-.077.094-.03.192-.04.097-.011.195-.003.099.009.193.036.094.028.182.073.087.046.164.107.076.062.14.137l9 10.726q.063.076.11.162.048.086.077.18.03.094.04.192.011.098.003.196-.009.098-.036.192-.028.095-.073.182-.046.087-.107.164-.062.077-.137.14l-.002.001q-.075.063-.161.11-.087.048-.18.078-.094.03-.192.04-.098.01-.196.002-.098-.009-.192-.036-.095-.028-.182-.073t-.164-.107q-.077-.062-.14-.137l-9-10.726q-.064-.075-.111-.162-.047-.086-.077-.18t-.04-.192q-.01-.097-.002-.195t.036-.193q.027-.094.073-.182.045-.087.107-.164.061-.076.137-.14zm9 2h.001q.076-.064.162-.111.086-.048.18-.077.094-.03.192-.04.097-.011.195-.003.099.009.193.036.094.028.182.073.087.046.164.107.076.062.14.137l1.93 2.3q.063.075.11.162.047.086.077.18t.04.191q.01.098.002.196t-.036.193q-.027.094-.073.181-.045.088-.107.164-.061.077-.137.14l-.001.002q-.076.063-.162.11-.086.048-.18.077-.094.03-.192.04-.098.011-.196.003-.098-.009-.192-.037-.094-.027-.182-.072-.087-.046-.164-.107-.076-.062-.14-.137l-1.93-2.3q-.063-.075-.11-.162-.047-.086-.077-.18t-.04-.192q-.01-.097-.002-.195t.036-.193q.027-.094.073-.182.045-.087.107-.164.061-.076.137-.14z" fill="#20BCEA"/><path d="M13.716 19.3l.001.002q.07.07.124.152.055.081.093.172.037.091.057.188.019.096.019.195 0 .098-.02.195-.019.096-.056.187-.038.09-.093.173-.054.081-.124.151l-4.244 4.244q-.07.07-.151.124-.082.055-.173.093-.09.037-.187.056-.097.02-.195.02-.099 0-.195-.02-.097-.019-.188-.056-.09-.038-.172-.093-.082-.054-.152-.124l-.001-.001q-.07-.07-.124-.152-.055-.082-.093-.172-.037-.091-.057-.188-.019-.096-.019-.195 0-.098.02-.195.019-.096.056-.187.038-.091.093-.173.054-.082.124-.151l4.244-4.244q.07-.07.151-.124.082-.055.173-.093.09-.037.187-.057.097-.019.195-.019.099 0 .195.02.097.019.188.056.09.038.172.093.082.054.152.124zm9 2l.001.002q.07.07.124.152.055.081.093.172.037.091.057.188.019.096.019.195 0 .098-.02.195-.019.096-.056.187-.038.09-.093.173-.054.081-.124.151l-1.415 1.416q-.07.07-.152.124-.082.055-.173.092-.09.038-.187.057-.097.02-.195.02t-.195-.02q-.096-.02-.187-.057-.091-.037-.173-.092-.082-.055-.151-.124l-.002-.002q-.07-.07-.124-.151-.055-.082-.092-.173-.038-.09-.057-.187-.02-.097-.02-.195 0-.099.02-.195.02-.097.057-.187.037-.091.092-.173.055-.082.124-.152l1.416-1.415q.07-.07.151-.124.082-.055.173-.093.09-.037.187-.057.097-.019.195-.019.099 0 .195.02.097.019.188.056.09.038.172.093.082.054.152.124z" fill="#20BCEA"/></svg>