<svg width="16" height="14" xmlns="http://www.w3.org/2000/svg"><path d="M5.001 0h-.002q-.131 0-.261.017t-.257.051q-.126.034-.247.084t-.235.116q-.113.066-.217.145-.104.08-.197.173-.092.092-.172.196-.08.104-.145.218H.999q-.098 0-.195.02-.096.018-.187.056-.091.038-.173.092-.082.055-.151.125-.07.07-.125.151-.054.082-.092.173-.038.09-.057.187Q0 1.901 0 2v.002q0 .098.02.195.018.096.056.187.038.091.092.173.055.082.125.151.07.07.151.125.082.054.173.092.09.038.187.057Q.901 3 1 3h2.269q.065.114.145.218.08.104.172.196.093.093.197.173.104.08.217.145.114.066.235.116.12.05.247.084t.257.05Q4.869 4 5 4h.002q.131 0 .261-.017t.257-.051q.126-.034.247-.084t.235-.116q.113-.066.217-.145.104-.08.197-.173.092-.092.172-.196.08-.104.145-.218h8.269q.098 0 .195-.02.096-.018.187-.056.091-.038.173-.092.082-.055.151-.125.07-.07.125-.151.054-.082.092-.173.038-.09.057-.187Q16 2.099 16 2v-.002q0-.098-.02-.195-.018-.096-.056-.187-.038-.091-.092-.173-.055-.082-.125-.151-.07-.07-.151-.125-.082-.054-.173-.092-.09-.038-.187-.057Q15.099 1 15 1H6.732Q6.667.886 6.587.782q-.08-.104-.172-.196-.093-.093-.197-.173-.104-.08-.217-.145-.114-.066-.235-.116-.12-.05-.247-.084t-.257-.05Q5.132 0 5.001 0zm5.998 5h.002q.131 0 .261.017t.256.051q.127.034.248.084t.235.116q.113.066.217.145.104.08.197.173.093.092.172.196.08.104.146.218H15q.098 0 .195.02.096.018.187.056.091.038.173.092.082.055.151.125.07.07.125.151.054.082.092.173.038.09.057.187.02.097.02.196v.002q0 .098-.02.195-.018.096-.056.187-.038.091-.092.173-.055.082-.125.151-.07.07-.151.125-.082.054-.173.092-.09.038-.187.057Q15.099 8 15 8h-2.268q-.066.114-.146.218-.08.104-.172.196-.093.093-.197.173-.104.08-.217.145-.114.066-.235.116-.12.05-.248.084-.126.034-.256.05Q11.131 9 11 9h-.002q-.131 0-.261-.017t-.256-.051q-.127-.034-.248-.084t-.235-.116q-.113-.066-.217-.145-.104-.08-.197-.173-.092-.092-.172-.196-.08-.104-.145-.218H.999q-.098 0-.195-.02-.096-.018-.187-.056-.091-.038-.173-.092-.082-.055-.151-.125-.07-.07-.125-.151-.054-.082-.092-.173-.038-.09-.057-.187Q0 7.099 0 7v-.002q0-.098.02-.195.018-.096.056-.187.038-.091.092-.173.055-.082.125-.151.07-.07.151-.125.082-.054.173-.092.09-.038.187-.057Q.901 6 1 6h8.269q.065-.114.145-.218.08-.104.172-.196.093-.093.197-.173.104-.08.217-.145.114-.066.235-.116.12-.05.248-.084.126-.034.256-.05Q10.869 5 11 5zm-2.998 5h-.002q-.131 0-.261.017t-.257.051q-.126.034-.247.084t-.235.116q-.113.066-.217.145-.104.08-.197.173-.092.092-.172.197-.08.104-.145.217H.999q-.098 0-.195.02-.096.018-.187.056-.091.038-.173.092-.082.055-.151.125-.07.07-.125.151-.054.082-.092.173-.038.09-.057.187Q0 11.901 0 12v.002q0 .098.02.195.018.096.056.187.038.091.092.173.055.082.125.151.07.07.151.125.082.054.173.092.09.038.187.057Q.901 13 1 13h5.269q.065.114.145.217.08.104.172.197.093.093.197.173.104.08.217.145.114.066.235.116.12.05.247.084t.257.05Q7.869 14 8 14h.002q.131 0 .261-.017t.257-.051q.126-.034.247-.084t.235-.116q.113-.066.217-.145.104-.08.197-.173.092-.092.172-.197.08-.104.145-.217h5.269q.098 0 .195-.02.096-.018.187-.056.091-.038.173-.092.082-.055.151-.125.07-.07.125-.151.054-.082.092-.173.038-.09.057-.187Q16 12.099 16 12v-.002q0-.098-.02-.195-.018-.096-.056-.187-.038-.091-.092-.173-.055-.082-.125-.151-.07-.07-.151-.125-.082-.054-.173-.092-.09-.038-.187-.057Q15.099 11 15 11H9.732q-.065-.114-.145-.217-.08-.104-.172-.197-.093-.093-.197-.173-.104-.08-.217-.145-.114-.066-.235-.116-.12-.05-.247-.084t-.257-.05Q8.132 10 8.001 10z" fill-rule="evenodd"/></svg>