<svg width="20" height="20" xmlns="http://www.w3.org/2000/svg"><path d="M17.571.066a2 2 0 01.781.403l.156.145a1.995 1.995 0 01-.94 3.346l-.582.142v.04l.82.835q.068.07.122.151.054.082.09.173.037.09.056.186.018.097.018.194 0 .098-.02.194t-.057.186q-.038.09-.092.172-.054.081-.124.15l-.085.086q-.141.141-.326.217-.186.076-.386.075-.2 0-.384-.079-.184-.078-.324-.22l-.317-.324-6.245 6.28a1 1 0 01-.522.278l-1.553.297a1.26 1.26 0 01-1.145-.365 1.312 1.312 0 01-.34-1.164l.313-1.57a1 1 0 01.273-.511l6.254-6.273-.29-.295q-.067-.07-.12-.152-.054-.081-.091-.171-.037-.09-.055-.186-.019-.096-.018-.194 0-.097.02-.193.018-.095.055-.185.038-.09.092-.172.054-.08.122-.15l.08-.08q.141-.142.326-.22.185-.076.386-.076.2 0 .385.079.185.077.325.22l.745.759.157-.6A2 2 0 0117.57.067zm-.379 1.45a.5.5 0 00-.58.273l-.03.085-.22.836.85-.207a.495.495 0 00.29-.762l-.057-.068-.025-.025a.5.5 0 00-.228-.131zm-2.265 3.55l-.866-.885-3.99 4.002h1.755l3.101-3.118z" fill-rule="evenodd"/><path d="M15.136 16.694l-1.364-1.463a7.004 7.004 0 001.885-2.95l1.902.62a9.004 9.004 0 01-2.423 3.793zm-5.08 2.355l-.233-1.987a6.956 6.956 0 003.261-1.266l1.168 1.623a8.956 8.956 0 01-4.196 1.63zm-5.439-1.077l.975-1.746a6.962 6.962 0 003.386.884l-.006 2a8.962 8.962 0 01-4.355-1.138zM.805 13.835l1.82-.828a7.03 7.03 0 002.2 2.723l-1.193 1.604a9.03 9.03 0 01-2.827-3.499zm-.64-5.446l1.963.38a7.041 7.041 0 00.175 3.386l-1.913.583a9.04 9.04 0 01-.226-4.35zm2.721-4.883l1.359 1.467A7.005 7.005 0 002.35 7.917L.45 7.29a9.005 9.005 0 012.435-3.784zm5.088-2.338l.225 1.987a6.955 6.955 0 00-3.265 1.256L3.771 2.784a8.955 8.955 0 014.203-1.616z"/></svg>