<svg width="48" height="48" xmlns="http://www.w3.org/2000/svg"><path d="M19.964 40H10q-.147 0-.294-.014-.147-.015-.291-.044-.145-.028-.286-.071-.14-.043-.277-.1-.136-.056-.266-.125-.13-.07-.252-.151-.123-.082-.237-.176-.113-.093-.218-.197-.104-.105-.197-.218-.094-.114-.176-.237-.081-.122-.15-.252-.07-.13-.127-.266-.056-.136-.099-.277-.043-.141-.071-.286-.03-.144-.044-.291Q7 37.148 7 37.001V10.999q0-.147.014-.294.015-.147.044-.291.028-.145.071-.286.043-.14.1-.277.056-.136.125-.266.07-.13.151-.252.082-.123.176-.237.093-.113.197-.218.105-.104.218-.197.114-.094.237-.176.122-.081.252-.15.13-.07.266-.127.136-.056.277-.099.141-.043.286-.071.144-.03.291-.044Q9.852 8 9.999 8h16.028L32 13.947v3.1" fill="none" stroke="#AFB7C4" stroke-width="2" stroke-linecap="round" stroke-linejoin="round"/><path d="M38.107 38.018a9.286 9.286 0 002.428-3.36 9.226 9.226 0 00.06-7.077 9.226 9.226 0 00-4.956-5.048 9.227 9.227 0 00-7.093-.066 9.226 9.226 0 00-5.027 4.906 9.227 9.227 0 00-.087 7.143 9.255 9.255 0 002.483 3.498" fill="none" stroke="#AFB7C4" stroke-width="2" stroke-linecap="round"/><path d="M31.999 27h.002q.098 0 .195.02.096.018.187.056.091.038.173.092.082.055.151.125.07.07.125.151.054.082.092.173.038.09.057.187.019.097.019.195v8.002q0 .098-.02.195-.018.096-.056.187-.038.091-.092.173-.055.082-.125.151-.07.07-.151.125-.082.054-.173.092-.09.038-.187.057Q32.099 37 32 37h-.002q-.098 0-.195-.02-.096-.018-.187-.056-.091-.038-.173-.092-.082-.055-.151-.125-.07-.07-.125-.151-.054-.082-.092-.173-.038-.09-.057-.187Q31 36.099 31 36v-8.002q0-.098.02-.195.018-.096.056-.187.038-.091.092-.173.055-.082.125-.151.07-.07.151-.125.082-.054.173-.092.09-.038.187-.057Q31.901 27 32 27zm0 11h.002q.098 0 .195.02.096.018.187.056.091.038.173.092.082.055.151.125.07.07.125.151.054.082.092.173.038.09.057.187.019.097.019.195v1.002q0 .098-.02.195-.018.096-.056.187-.038.091-.092.173-.055.082-.125.151-.07.07-.151.125-.082.054-.173.092-.09.038-.187.057Q32.099 41 32 41h-.002q-.098 0-.195-.02-.096-.018-.187-.056-.091-.038-.173-.092-.082-.055-.151-.125-.07-.07-.125-.151-.054-.082-.092-.173-.038-.09-.057-.187Q31 40.099 31 40v-1.002q0-.098.02-.195.018-.096.056-.187.038-.091.092-.173.055-.082.125-.151.07-.07.151-.125.082-.054.173-.092.09-.038.187-.057Q31.901 38 32 38z" fill="#AFB7C4"/><path d="M32.706 27.292l.002.002q.07.07.124.151.055.082.092.173.038.09.057.187.02.097.02.195t-.02.195q-.019.096-.057.187-.037.091-.092.173-.055.082-.124.151l-3.537 3.537q-.07.07-.152.125-.081.054-.172.092-.091.038-.188.057-.096.019-.195.019-.098 0-.194-.02-.097-.018-.188-.056-.09-.038-.173-.092-.081-.055-.15-.125l-.002-.001q-.07-.07-.125-.151-.054-.082-.092-.173-.038-.091-.057-.188-.019-.096-.019-.194 0-.099.02-.195.018-.097.056-.188.038-.09.092-.172.055-.082.125-.152l3.537-3.537q.07-.07.151-.124.082-.055.173-.092.09-.038.187-.057.097-.02.195-.02t.195.02q.096.019.187.057.091.037.173.092.082.055.151.124z" fill="#AFB7C4"/><path d="M31.292 27.294l.002-.002q.07-.07.151-.124.082-.055.173-.092.09-.038.187-.057.097-.02.195-.02t.195.02q.096.019.187.057.091.037.173.092.082.055.151.124l3.537 3.537q.07.07.125.152.054.081.092.172.038.091.057.188.019.096.019.195 0 .098-.02.194-.018.097-.056.188-.038.09-.092.173-.055.081-.125.15l-.001.002q-.07.07-.151.125-.082.054-.173.092-.091.038-.188.057-.096.019-.194.019-.099 0-.195-.02-.097-.018-.188-.056-.09-.038-.172-.092-.082-.055-.152-.125l-3.537-3.537q-.07-.07-.124-.151-.055-.082-.092-.173-.038-.09-.057-.187-.02-.097-.02-.195t.02-.195q.019-.096.057-.187.037-.091.092-.173.055-.082.124-.151zM25.046 8v5.001q0 .098.01.196.009.098.028.194.02.096.048.19t.066.185q.037.09.084.177.046.087.1.169.055.081.117.157.063.076.132.146.07.069.146.131.075.063.157.117.082.055.168.101.087.046.178.084.09.037.184.066.094.028.19.048.097.019.195.028.098.01.196.01H32v-1.11L26.11 8h-1.064zm-12.047 8h4.002q.098 0 .195.02.096.018.187.056.091.038.173.092.082.055.151.125.07.07.125.151.054.082.092.173.038.09.057.187.019.097.019.195v.002q0 .098-.02.195-.018.096-.056.187-.038.091-.092.173-.055.082-.125.151-.07.07-.151.125-.082.054-.173.092-.09.038-.187.057Q17.099 18 17 18h-4.002q-.098 0-.195-.02-.096-.018-.187-.056-.091-.038-.173-.092-.082-.055-.151-.125-.07-.07-.125-.151-.054-.082-.092-.173-.038-.09-.057-.187Q12 17.099 12 17v-.002q0-.098.02-.195.018-.096.056-.187.038-.091.092-.173.055-.082.125-.151.07-.07.151-.125.082-.054.173-.092.09-.038.187-.057Q12.901 16 13 16zm0 4h9.002q.098 0 .195.02.096.018.187.056.091.038.173.092.082.055.151.125.07.07.125.151.054.082.092.173.038.09.057.187.019.097.019.195v.002q0 .098-.02.195-.018.096-.056.187-.038.091-.092.173-.055.082-.125.151-.07.07-.151.125-.082.054-.173.092-.09.038-.187.057Q22.099 22 22 22h-9.002q-.098 0-.195-.02-.096-.018-.187-.056-.091-.038-.173-.092-.082-.055-.151-.125-.07-.07-.125-.151-.054-.082-.092-.173-.038-.09-.057-.187Q12 21.099 12 21v-.002q0-.098.02-.195.018-.096.056-.187.038-.091.092-.173.055-.082.125-.151.07-.07.151-.125.082-.054.173-.092.09-.038.187-.057Q12.901 20 13 20zm0 4h5.002q.098 0 .195.02.096.018.187.056.091.038.173.092.082.055.151.125.07.07.125.151.054.082.092.173.038.09.057.187.019.097.019.195v.002q0 .098-.02.195-.018.096-.056.187-.038.091-.092.173-.055.082-.125.151-.07.07-.151.125-.082.054-.173.092-.09.038-.187.057Q18.099 26 18 26h-5.002q-.098 0-.195-.02-.096-.018-.187-.056-.091-.038-.173-.092-.082-.055-.151-.125-.07-.07-.125-.151-.054-.082-.092-.173-.038-.09-.057-.187Q12 25.099 12 25v-.002q0-.098.02-.195.018-.096.056-.187.038-.091.092-.173.055-.082.125-.151.07-.07.151-.125.082-.054.173-.092.09-.038.187-.057Q12.901 24 13 24zm0 4h4.002q.098 0 .195.02.096.018.187.056.091.038.173.092.082.055.151.125.07.07.125.151.054.082.092.173.038.09.057.187.019.097.019.195v.002q0 .098-.02.195-.018.096-.056.187-.038.091-.092.173-.055.082-.125.151-.07.07-.151.125-.082.054-.173.092-.09.038-.187.057Q17.099 30 17 30h-4.002q-.098 0-.195-.02-.096-.018-.187-.056-.091-.038-.173-.092-.082-.055-.151-.125-.07-.07-.125-.151-.054-.082-.092-.173-.038-.09-.057-.187Q12 29.099 12 29v-.002q0-.098.02-.195.018-.096.056-.187.038-.091.092-.173.055-.082.125-.151.07-.07.151-.125.082-.054.173-.092.09-.038.187-.057Q12.901 28 13 28z" fill="#AFB7C4"/></svg>