<svg width="14" height="17" xmlns="http://www.w3.org/2000/svg"><path d="M1.999 5h8.002q.098 0 .196.01t.194.028q.096.02.19.048.094.029.185.066.09.038.177.084.087.046.169.1.081.055.157.118.076.062.146.131.069.07.131.146.063.076.117.157.055.082.101.169.046.086.084.177.037.09.066.185.028.094.048.19.019.096.028.194.01.098.01.196v4.002q0 .196-.02.392-.019.195-.057.388-.038.193-.095.38-.057.189-.132.37-.076.182-.168.355-.093.173-.202.337-.11.163-.234.315-.124.152-.263.29-.14.14-.291.264-.152.125-.315.234-.164.11-.337.202-.173.092-.355.168-.181.075-.37.132-.187.057-.38.095t-.388.058Q8.197 15 8.001 15H3.999q-.196 0-.392-.02-.195-.019-.388-.057-.193-.038-.38-.095-.189-.057-.37-.132-.182-.076-.355-.168-.173-.093-.337-.202-.163-.11-.315-.234-.152-.124-.29-.263-.14-.14-.264-.291-.125-.152-.234-.315-.11-.164-.202-.337-.092-.173-.168-.355-.075-.181-.132-.37-.057-.187-.095-.38t-.058-.388Q0 11.197 0 11.001V6.999q0-.098.01-.196t.028-.194q.02-.096.048-.19.029-.094.066-.185.038-.09.084-.177.046-.087.1-.169.055-.081.118-.157.062-.076.131-.146.07-.069.146-.131.076-.063.157-.117.082-.055.169-.101.086-.046.177-.084.09-.037.185-.066.094-.028.19-.048.096-.019.194-.028Q1.901 5 2 5zm4 2.5h.002q.098 0 .195.02.096.018.187.056.091.038.173.092.082.055.151.125.07.07.125.151.054.082.092.173.038.09.057.187Q7 8.401 7 8.5v.502q0 .132-.034.259t-.1.24q-.066.115-.159.208-.093.093-.207.158v1.635q0 .05-.01.097-.01.049-.028.094-.019.045-.046.086-.027.041-.062.076-.035.035-.076.062-.04.027-.086.046-.045.019-.094.028-.048.01-.097.01h-.002q-.05 0-.097-.01-.049-.01-.094-.028-.045-.019-.086-.046-.041-.027-.076-.062-.035-.035-.062-.076-.027-.04-.046-.086-.019-.045-.028-.094-.01-.048-.01-.097V9.866q-.114-.065-.207-.158-.093-.093-.159-.207-.066-.114-.1-.241T5 9v-.502q0-.098.02-.195.018-.096.056-.187.038-.091.092-.173.055-.082.125-.151.07-.07.151-.125.082-.054.173-.092.09-.038.187-.057Q5.901 7.5 6 7.5z" fill="#DFE3EB" fill-rule="evenodd"/><path d="M3 7V2.999q0-.147.014-.294.015-.147.044-.291.028-.145.071-.286.043-.14.1-.277.056-.136.125-.266.07-.13.151-.252.082-.123.176-.237.093-.113.197-.218.105-.104.218-.197.114-.094.237-.176.122-.081.252-.15.13-.07.266-.127.136-.056.277-.099.141-.043.286-.071.144-.03.291-.044Q5.852 0 5.999 0h.002q.147 0 .294.014.147.015.291.044.145.028.286.071.14.043.277.1.136.056.266.125.13.07.252.151.123.082.237.176.113.093.218.197.104.105.197.218.094.114.176.237.081.122.15.252.07.13.127.266.056.136.099.277.043.141.071.286.03.144.044.291.014.147.014.294V7" fill="none" stroke="#DFE3EB" stroke-width="2"/></svg>