<svg width="12" height="12" xmlns="http://www.w3.org/2000/svg"><path d="M12 6A6 6 0 110 6a6 6 0 0112 0zM8.828 3.17l.001.002q.14.14.217.324.076.184.076.383 0 .198-.076.382t-.217.324L7.414 6 8.83 7.415q.07.07.125.151.054.082.092.173.038.09.057.187.019.097.019.195 0 .099-.02.195-.018.097-.056.188-.038.09-.092.172-.055.082-.125.152l-.001.001q-.14.14-.324.217-.184.076-.382.076-.2 0-.383-.076t-.324-.217L6 7.414 4.585 8.83q-.07.07-.151.124-.082.055-.173.093-.09.037-.187.057-.097.019-.195.019t-.195-.02q-.096-.019-.187-.056-.091-.038-.173-.093-.082-.054-.151-.124l-.002-.001q-.14-.14-.216-.324-.077-.184-.077-.383 0-.198.077-.382.076-.184.216-.324L4.586 6 3.171 4.585q-.07-.07-.124-.151-.055-.082-.092-.173-.038-.09-.057-.187-.02-.097-.02-.195 0-.099.02-.195.019-.097.057-.188.037-.09.092-.172.055-.082.124-.152l.002-.001q.14-.14.324-.217.183-.076.382-.076t.382.076q.184.076.324.217L6 4.586 7.415 3.17q.07-.07.152-.124.081-.055.172-.093.091-.037.188-.057.096-.019.195-.019.098 0 .194.02.097.019.188.056.09.038.173.093.081.054.15.124z" fill-rule="evenodd"/></svg>