<svg width="12" height="8" xmlns="http://www.w3.org/2000/svg"><path d="M2.12.706L6.366 4.95q.07.07.124.152.055.082.092.173.038.09.057.187.02.096.02.195 0 .098-.02.195-.02.096-.057.187-.037.091-.092.173-.055.082-.124.151l-.002.002q-.07.07-.151.124-.082.055-.173.092-.09.038-.187.057-.097.02-.195.02-.099 0-.195-.02-.097-.02-.187-.057-.091-.037-.173-.092-.082-.055-.152-.124L.706 2.12q-.07-.07-.124-.152-.055-.082-.092-.172-.038-.091-.057-.188-.02-.096-.02-.195 0-.098.02-.195.02-.096.057-.187Q.527.94.582.859.637.777.706.708L.708.706q.07-.07.151-.124.082-.055.173-.092.09-.038.187-.057.097-.02.195-.02.099 0 .195.02.097.02.188.057.09.037.172.092.082.055.152.124z" fill="#3F8ADA"/><path d="M10.607 2.12L6.363 6.366q-.07.07-.151.124-.082.055-.173.092-.09.038-.187.057-.097.02-.195.02-.099 0-.195-.02-.097-.02-.187-.057-.091-.037-.173-.092-.082-.055-.152-.124l-.001-.002q-.07-.07-.124-.151-.055-.082-.093-.173-.037-.09-.056-.187-.02-.097-.02-.195 0-.099.02-.195.019-.097.056-.187.038-.091.093-.173.054-.082.124-.152L9.193.706q.07-.07.151-.124.082-.055.173-.092.091-.038.188-.057.096-.02.194-.02.099 0 .195.02.097.02.188.057.09.037.173.092.081.055.15.124l.002.002q.07.07.125.151.054.082.092.173.038.09.057.187.019.097.019.195 0 .099-.02.195-.018.097-.056.188-.038.09-.092.172-.055.082-.125.152z" fill="#3F8ADA"/></svg>