<svg width="10" height="10" xmlns="http://www.w3.org/2000/svg"><path d="M10 5q0-1.36-.67-2.507Q8.658 1.341 7.51.671 6.36 0 5 0 3.64 0 2.49.67 1.341 1.342.67 2.49 0 3.64 0 5q0 1.36.67 2.51.671 1.149 1.82 1.82Q3.64 10 5 10q1.36 0 2.51-.67 1.149-.671 1.82-1.82Q10 6.36 10 5zM5.833 2.292V1.25q0-.091-.058-.15a.203.203 0 00-.15-.058h-1.25a.21.21 0 00-.15.058q-.058.059-.058.15v1.042c0 .06.02.11.058.15a.21.21 0 00.15.058h1.25c.06 0 .11-.02.15-.059a.203.203 0 00.058-.15zm.834 4.791v1.042c0 .06-.02.11-.059.15a.203.203 0 01-.15.058H3.542q-.091 0-.15-.058a.203.203 0 01-.059-.15V7.083c0-.06.02-.11.059-.15q.059-.058.15-.058h.625V4.792h-.625q-.091 0-.15-.059a.203.203 0 01-.059-.15V3.542q0-.091.059-.15t.15-.059h2.083c.06 0 .11.02.15.059q.058.059.058.15v3.333h.625c.061 0 .111.02.15.059a.2.2 0 01.059.15z" fill="#20BCEA" fill-rule="evenodd"/></svg>