<svg width="24" height="24" xmlns="http://www.w3.org/2000/svg"><path d="M12 4.25a3.75 3.75 0 013.745 3.55l.005.2v2H16a2 2 0 012 2v4a4 4 0 01-4 4h-4a4 4 0 01-4-4v-4a2 2 0 012-2h.25V8A3.75 3.75 0 0112 4.25zm4 7.25H8a.5.5 0 00-.492.41L7.5 12v4a2.5 2.5 0 002.336 2.495L10 18.5h4a2.5 2.5 0 002.495-2.336L16.5 16v-4a.5.5 0 00-.41-.492L16 11.5zm-4 1a1 1 0 011 1v.5a1 1 0 01-.499.866L12.5 16.5a.5.5 0 11-1 0v-1.634A1 1 0 0111 14v-.5a1 1 0 011-1zm0-6.75a2.25 2.25 0 00-2.245 2.096L9.75 8v2h4.5V8A2.25 2.25 0 0012 5.75z" fill="none"/></svg>