<svg width="24" height="24" xmlns="http://www.w3.org/2000/svg" xmlns:xlink="http://www.w3.org/1999/xlink"><defs><path d="M2 0h12a2 2 0 012 2v10a2 2 0 01-2 2H2a2 2 0 01-2-2V2a2 2 0 012-2z" id="a"/></defs><g transform="translate(4 5)" fill="none" fill-rule="evenodd"><mask id="b" fill="#fff"><use xlink:href="#a"/></mask><path stroke="#C7DBEA" d="M14 .5c.414 0 .79.168 1.06.44.272.27.44.646.44 1.06h0v10c0 .414-.168.79-.44 1.06a1.49 1.49 0 01-1.06.44h0H2a1.49 1.49 0 01-1.06-.44A1.495 1.495 0 01.5 12h0V2c0-.414.168-.79.44-1.06C1.21.667 1.585.5 2 .5h0z"/><circle fill="#FFC200" mask="url(#b)" cx="12" cy="4" r="2"/><path d="M13.384 9.46l3.25 3.9a1 1 0 01-.769 1.64h-5.73a1 1 0 01-.768-1.64l3.249-3.9a.5.5 0 01.768 0z" fill="#3F6ADA" mask="url(#b)"/><path d="M6.395 7.507l5.35 6.88a1 1 0 01-.79 1.613h-9.91a1 1 0 01-.79-1.614l5.35-6.879a.5.5 0 01.79 0z" fill="#4D79EC" mask="url(#b)"/></g></svg>