<svg width="24" height="24" xmlns="http://www.w3.org/2000/svg"><defs><linearGradient x1="48.048%" y1="64.639%" x2="48.048%" y2="160.447%" id="a"><stop stop-color="#DBE9F2" offset="0%"/><stop stop-color="#91BBD8" offset="100%"/></linearGradient></defs><g fill="none" fill-rule="evenodd"><path d="M7 3h8l5 5v12a1 1 0 01-1 1H7a1 1 0 01-1-1V4a1 1 0 011-1z" fill="url(#a)"/><rect fill="#B58CC1" x="2" y="10" width="17" height="8" rx="2"/><path d="M15 3v4a1 1 0 001 1h4l-5-5z" fill="#2A3F64" opacity=".316"/><path d="M4.645 16c-.293 0-.563-.05-.811-.15a1.398 1.398 0 01-.6-.444A1.15 1.15 0 013 14.699c0-.034.011-.063.034-.088a.11.11 0 01.084-.036h.806c.053 0 .094.012.124.036.03.025.054.065.073.121.06.282.244.423.552.423.18 0 .319-.06.414-.178.096-.118.144-.29.144-.515v-1.589h-.558a.135.135 0 01-.098-.042.135.135 0 01-.043-.099v-.591c0-.041.014-.075.043-.102A.14.14 0 014.673 12h1.504c.042 0 .077.014.105.042a.142.142 0 01.042.104v2.35c0 .319-.07.592-.211.82a1.31 1.31 0 01-.592.512 2.108 2.108 0 01-.876.172zm4.049 0c-.359 0-.664-.052-.916-.156a1.337 1.337 0 01-.572-.41.96.96 0 01-.206-.556.11.11 0 01.036-.084.123.123 0 01.086-.033h.74a.23.23 0 01.107.022.356.356 0 01.092.078.559.559 0 00.225.22.83.83 0 00.408.086c.2 0 .354-.03.462-.092.107-.061.16-.145.16-.253a.246.246 0 00-.083-.191.739.739 0 00-.266-.134 5.74 5.74 0 00-.528-.13c-.448-.09-.783-.224-1.006-.406-.222-.181-.333-.44-.333-.778 0-.23.064-.434.192-.614.127-.18.309-.319.544-.419.235-.1.508-.15.82-.15.325 0 .608.056.847.17.239.112.422.253.55.422a.895.895 0 01.203.497.123.123 0 01-.034.086.109.109 0 01-.083.036H9.36a.214.214 0 01-.189-.1c-.022-.078-.08-.143-.172-.197a.677.677 0 00-.344-.08.66.66 0 00-.362.083.273.273 0 00-.127.244c0 .108.055.192.166.253.111.061.319.123.623.186.348.063.625.142.83.236.206.095.358.217.456.367.098.15.147.34.147.57 0 .251-.072.47-.217.655a1.356 1.356 0 01-.6.425 2.436 2.436 0 01-.878.147zm3.839 0c-.526 0-.94-.128-1.244-.383-.304-.256-.465-.632-.483-1.128a14.772 14.772 0 01-.006-.478c0-.215.002-.376.006-.483.014-.49.176-.866.486-1.13.309-.266.723-.398 1.241-.398.515 0 .927.132 1.236.397.31.265.472.642.487 1.13.007.216.01.377.01.484 0 .111-.003.27-.01.478-.019.496-.18.872-.481 1.128-.302.255-.716.383-1.242.383zm0-.833a.618.618 0 00.461-.175c.115-.117.176-.296.184-.536.007-.215.01-.369.01-.462 0-.092-.003-.242-.01-.45-.008-.24-.069-.419-.184-.536a.618.618 0 00-.46-.175.625.625 0 00-.467.175c-.115.117-.176.296-.184.536a13.6 13.6 0 00-.005.45c0 .2.002.354.005.462.008.24.069.419.184.536.114.116.27.175.466.175zm2.31.833a.137.137 0 01-.1-.043.137.137 0 01-.043-.1V12.15a.15.15 0 01.04-.106.134.134 0 01.103-.043h.646a.21.21 0 01.194.109l1.348 2.131V12.15a.15.15 0 01.04-.106.134.134 0 01.103-.043h.726c.042 0 .076.014.103.043a.15.15 0 01.04.106v3.702a.15.15 0 01-.04.106.134.134 0 01-.103.043h-.646a.21.21 0 01-.194-.109l-1.343-2.045v2.011a.134.134 0 01-.043.103.15.15 0 01-.105.04h-.726z" fill="#FFF" fill-rule="nonzero"/></g></svg>