<svg width="24" height="24" xmlns="http://www.w3.org/2000/svg"><defs><linearGradient x1="48.048%" y1="64.639%" x2="48.048%" y2="160.447%" id="a"><stop stop-color="#DBE9F2" offset="0%"/><stop stop-color="#91BBD8" offset="100%"/></linearGradient></defs><g fill="none" fill-rule="evenodd"><path d="M7 3h8l5 5v12a1 1 0 01-1 1H7a1 1 0 01-1-1V4a1 1 0 011-1z" fill="url(#a)"/><rect fill="#E26369" x="2" y="10" width="17" height="8" rx="2"/><path d="M4.143 16a.137.137 0 01-.1-.043.137.137 0 01-.043-.1V12.15a.15.15 0 01.04-.106.134.134 0 01.103-.043H5.76c.495 0 .884.112 1.166.337.282.225.423.554.423.989 0 .434-.141.759-.423.974-.282.215-.67.323-1.166.323h-.651v1.234a.142.142 0 01-.143.143h-.823zm1.588-2.194a.525.525 0 00.369-.123c.09-.082.134-.203.134-.363a.52.52 0 00-.123-.36c-.081-.091-.208-.137-.38-.137h-.64v.983h.64zM9.14 16a.134.134 0 01-.098-.042A.134.134 0 019 15.86v-3.634c0-.041.013-.076.04-.104a.132.132 0 01.1-.042h1.473c.552 0 .982.132 1.288.395.306.263.466.641.481 1.134.004.108.006.252.006.431 0 .18-.002.321-.006.426-.037 1.023-.617 1.534-1.741 1.534H9.14zm1.473-.84c.235 0 .409-.056.52-.168.113-.112.172-.291.18-.538.007-.108.011-.248.011-.42 0-.171-.004-.31-.011-.414-.008-.239-.072-.415-.193-.53-.122-.113-.3-.17-.535-.17h-.532v2.24h.56zm3.53.84a.137.137 0 01-.1-.043.137.137 0 01-.043-.1V12.15a.15.15 0 01.04-.106.134.134 0 01.103-.043H16.8c.042 0 .077.014.106.043a.144.144 0 01.043.106v.605a.134.134 0 01-.043.103.15.15 0 01-.106.04h-1.749v.794h1.635c.042 0 .077.015.105.043a.144.144 0 01.043.106v.606a.134.134 0 01-.043.103.15.15 0 01-.105.04H15.05v1.268a.142.142 0 01-.142.143h-.766z" fill="#FFF" fill-rule="nonzero"/><path d="M15 3v4a1 1 0 001 1h4l-5-5z" fill="#2A3F64" opacity=".316"/></g></svg>