<svg width="24" height="24" xmlns="http://www.w3.org/2000/svg"><g fill="none" fill-rule="evenodd"><path d="M7 3h8l5 5v12a1 1 0 01-1 1H7a1 1 0 01-1-1V4a1 1 0 011-1z" fill="#A6B7E1"/><path d="M15 3v4a1 1 0 001 1h4l-5-5z" fill="#2A3F64" opacity=".316"/><path fill="#FFF" d="M9 3h1v1H9zm1 1h1v1h-1zM9 5h1v1H9zm1 1h1v1h-1zm0 2h1v1h-1zM9 7h1v1H9z"/><rect fill="#D653FD" x="2" y="10" width="17" height="8" rx="2"/><path d="M4.143 16a.137.137 0 01-.1-.043.137.137 0 01-.043-.1V12.15a.15.15 0 01.04-.106.134.134 0 01.103-.043h1.571c.503 0 .896.114 1.18.343.284.228.426.55.426.966 0 .266-.062.493-.186.68a1.23 1.23 0 01-.511.434l.771 1.394a.142.142 0 01.017.063.12.12 0 01-.034.083.112.112 0 01-.086.037h-.805a.239.239 0 01-.235-.154l-.628-1.24h-.549v1.251a.134.134 0 01-.043.103.15.15 0 01-.105.04h-.783zm1.566-2.234c.163 0 .288-.041.374-.123a.448.448 0 00.128-.34.477.477 0 00-.128-.349c-.086-.087-.21-.131-.374-.131h-.635v.943h.635zM8.62 16a.115.115 0 01-.083-.037.115.115 0 01-.037-.083.16.16 0 01.006-.051l1.331-3.663c.038-.11.114-.166.229-.166h.891c.114 0 .19.055.229.166l1.331 3.663a.173.173 0 01.006.051.12.12 0 01-.037.083.115.115 0 01-.083.037h-.743a.198.198 0 01-.194-.126l-.206-.554H9.763l-.206.554a.198.198 0 01-.194.126H8.62zm1.383-1.537h1.017l-.509-1.457-.508 1.457zM13.743 16a.137.137 0 01-.1-.043.137.137 0 01-.043-.1V12.15a.15.15 0 01.04-.106.134.134 0 01.103-.043h1.571c.503 0 .896.114 1.18.343.284.228.426.55.426.966 0 .266-.062.493-.186.68a1.23 1.23 0 01-.511.434l.771 1.394a.142.142 0 01.017.063.12.12 0 01-.034.083.112.112 0 01-.086.037h-.805a.239.239 0 01-.235-.154l-.628-1.24h-.549v1.251a.134.134 0 01-.043.103.15.15 0 01-.105.04h-.783zm1.566-2.234c.163 0 .288-.041.374-.123a.448.448 0 00.128-.34.477.477 0 00-.128-.349c-.086-.087-.21-.131-.374-.131h-.635v.943h.635z" fill="#FFF" fill-rule="nonzero"/></g></svg>