<svg width="24" height="24" xmlns="http://www.w3.org/2000/svg"><defs><linearGradient x1="48.048%" y1="64.639%" x2="48.048%" y2="160.447%" id="a"><stop stop-color="#DBE9F2" offset="0%"/><stop stop-color="#91BBD8" offset="100%"/></linearGradient></defs><g fill="none" fill-rule="evenodd"><path d="M7 3h8l5 5v12a1 1 0 01-1 1H7a1 1 0 01-1-1V4a1 1 0 011-1z" fill="url(#a)"/><rect fill="#43AD61" x="2" y="10" width="17" height="8" rx="2"/><path d="M15 3v4a1 1 0 001 1h4l-5-5z" fill="#2A3F64" opacity=".316"/><path d="M4.12 16a.115.115 0 01-.083-.037A.115.115 0 014 15.88a.16.16 0 01.017-.069l1.246-1.851-1.149-1.771a.152.152 0 01-.017-.069.12.12 0 01.037-.083.115.115 0 01.083-.037h.874c.084 0 .153.042.206.126l.646.994.668-.994c.054-.084.12-.126.2-.126h.835c.03 0 .058.012.083.037a.115.115 0 01.037.083.152.152 0 01-.017.069l-1.16 1.76 1.257 1.862a.152.152 0 01.017.069.12.12 0 01-.037.083.115.115 0 01-.083.037H6.84a.228.228 0 01-.2-.114l-.731-1.063-.715 1.063a.228.228 0 01-.2.114H4.12zm5.523 0a.137.137 0 01-.1-.043.137.137 0 01-.043-.1v-3.714A.142.142 0 019.643 12h.8a.14.14 0 01.103.04.14.14 0 01.04.103v2.96H12.3c.042 0 .077.014.106.043a.144.144 0 01.043.105v.606a.134.134 0 01-.043.103.15.15 0 01-.106.04H9.643zm5.751 0c-.359 0-.664-.052-.916-.156a1.337 1.337 0 01-.572-.41.96.96 0 01-.206-.556.11.11 0 01.036-.084.123.123 0 01.086-.033h.74a.23.23 0 01.107.022.356.356 0 01.092.078.559.559 0 00.225.22.83.83 0 00.408.086c.2 0 .354-.03.462-.092.107-.061.16-.145.16-.253a.246.246 0 00-.083-.191.739.739 0 00-.266-.134 5.74 5.74 0 00-.528-.13c-.448-.09-.783-.224-1.006-.406-.222-.181-.333-.44-.333-.778 0-.23.064-.434.192-.614.127-.18.309-.319.544-.419.235-.1.508-.15.82-.15.325 0 .608.056.847.17.239.112.422.253.55.422a.895.895 0 01.203.497.123.123 0 01-.034.086.109.109 0 01-.083.036h-.778a.214.214 0 01-.189-.1c-.022-.078-.08-.143-.172-.197a.677.677 0 00-.344-.08.66.66 0 00-.362.083.273.273 0 00-.127.244c0 .108.055.192.166.253.111.061.319.123.623.186.348.063.625.142.83.236.206.095.358.217.456.367.098.15.147.34.147.57 0 .251-.072.47-.217.655a1.356 1.356 0 01-.6.425 2.436 2.436 0 01-.878.147z" fill="#FFF" fill-rule="nonzero"/></g></svg>