<svg width="24" height="24" xmlns="http://www.w3.org/2000/svg"><g fill="none" fill-rule="evenodd"><path d="M7 3h8l5 5v12a1 1 0 01-1 1H7a1 1 0 01-1-1V4a1 1 0 011-1z" fill="#FFDB71"/><path d="M15 3v4a1 1 0 001 1h4l-5-5z" fill="#2A3F64" opacity=".316"/><path fill="#17181A" d="M9 3h1v1H9zm1 1h1v1h-1zM9 5h1v1H9zm1 1h1v1h-1zm0 2h1v1h-1zM9 7h1v1H9z"/><g transform="translate(2 10)"><rect fill="#DD9A1A" width="17" height="8" rx="2"/><path d="M2.149 6a.144.144 0 01-.106-.043A.144.144 0 012 5.851V5.27c0-.05.008-.088.023-.115a.8.8 0 01.063-.091l1.817-2.177H2.2a.137.137 0 01-.1-.043.137.137 0 01-.043-.1V2.15a.15.15 0 01.04-.106A.134.134 0 012.2 2h2.909c.041 0 .077.014.105.043a.144.144 0 01.043.106v.577a.289.289 0 01-.074.194L3.429 5.103h1.748c.042 0 .077.014.106.043a.144.144 0 01.043.105v.606a.134.134 0 01-.043.103.15.15 0 01-.106.04H2.15zm5.994 0a.137.137 0 01-.1-.043.137.137 0 01-.043-.1V2.143A.142.142 0 018.143 2h.817a.14.14 0 01.103.04.14.14 0 01.04.103v3.714A.142.142 0 018.96 6h-.817zm3.6 0a.137.137 0 01-.1-.043.137.137 0 01-.043-.1V2.15a.15.15 0 01.04-.106.134.134 0 01.103-.043h1.617c.495 0 .884.112 1.166.337.282.225.423.554.423.989 0 .434-.141.759-.423.974-.282.215-.67.323-1.166.323h-.651v1.234a.142.142 0 01-.143.143h-.823zm1.588-2.194a.525.525 0 00.369-.123c.09-.082.134-.203.134-.363a.52.52 0 00-.123-.36c-.081-.091-.208-.137-.38-.137h-.64v.983h.64z" fill="#FFF" fill-rule="nonzero"/></g></g></svg>