<svg width="16px" height="16px" viewBox="0 0 16 16" version="1.1" xmlns:xlink="http://www.w3.org/1999/xlink" xmlns="http://www.w3.org/2000/svg">
    <path d="M0 0L2 0L2 2L0 2L0 0Z" id="Rectangle" fill="#CACFD9" stroke="none" />
    <path d="M0 0L2 0L2 2L0 2L0 0Z" transform="translate(0 4)" id="Rectangle-Copy-8" fill="#CACFD9" stroke="none" />
    <path d="M0 0L2 0L2 2L0 2L0 0Z" transform="translate(0 8)" id="Rectangle-Copy-16" fill="#CACFD9" stroke="none" />
    <path d="M0 0L2 0L2 2L0 2L0 0Z" transform="translate(0 12)" id="Rectangle-Copy-24" fill="#CACFD9" stroke="none" />
    <path d="M0 0L2 0L2 2L0 2L0 0Z" transform="translate(2 2)" id="Rectangle-Copy-4" fill="#CACFD9" stroke="none" />
    <path d="M0 0L2 0L2 2L0 2L0 0Z" transform="translate(2 6)" id="Rectangle-Copy-9" fill="#CACFD9" stroke="none" />
    <path d="M0 0L2 0L2 2L0 2L0 0Z" transform="translate(2 10)" id="Rectangle-Copy-17" fill="#CACFD9" stroke="none" />
    <path d="M0 0L2 0L2 2L0 2L0 0Z" transform="translate(2 14)" id="Rectangle-Copy-25" fill="#CACFD9" stroke="none" />
    <path d="M0 0L2 0L2 2L0 2L0 0Z" transform="translate(4 0)" id="Rectangle-Copy" fill="#CACFD9" stroke="none" />
    <path d="M0 0L2 0L2 2L0 2L0 0Z" transform="translate(4 4)" id="Rectangle-Copy-10" fill="#CACFD9" stroke="none" />
    <path d="M0 0L2 0L2 2L0 2L0 0Z" transform="translate(4 8)" id="Rectangle-Copy-18" fill="#CACFD9" stroke="none" />
    <path d="M0 0L2 0L2 2L0 2L0 0Z" transform="translate(4 12)" id="Rectangle-Copy-26" fill="#CACFD9" stroke="none" />
    <path d="M0 0L2 0L2 2L0 2L0 0Z" transform="translate(6 2)" id="Rectangle-Copy-5" fill="#CACFD9" stroke="none" />
    <path d="M0 0L2 0L2 2L0 2L0 0Z" transform="translate(6 6)" id="Rectangle-Copy-11" fill="#CACFD9" stroke="none" />
    <path d="M0 0L2 0L2 2L0 2L0 0Z" transform="translate(6 10)" id="Rectangle-Copy-19" fill="#CACFD9" stroke="none" />
    <path d="M0 0L2 0L2 2L0 2L0 0Z" transform="translate(6 14)" id="Rectangle-Copy-27" fill="#CACFD9" stroke="none" />
    <path d="M0 0L2 0L2 2L0 2L0 0Z" transform="translate(8 0)" id="Rectangle-Copy-2" fill="#CACFD9" stroke="none" />
    <path d="M0 0L2 0L2 2L0 2L0 0Z" transform="translate(8 4)" id="Rectangle-Copy-12" fill="#CACFD9" stroke="none" />
    <path d="M0 0L2 0L2 2L0 2L0 0Z" transform="translate(8 8)" id="Rectangle-Copy-20" fill="#CACFD9" stroke="none" />
    <path d="M0 0L2 0L2 2L0 2L0 0Z" transform="translate(8 12)" id="Rectangle-Copy-28" fill="#CACFD9" stroke="none" />
    <path d="M0 0L2 0L2 2L0 2L0 0Z" transform="translate(10 2)" id="Rectangle-Copy-6" fill="#CACFD9" stroke="none" />
    <path d="M0 0L2 0L2 2L0 2L0 0Z" transform="translate(10 6)" id="Rectangle-Copy-13" fill="#CACFD9" stroke="none" />
    <path d="M0 0L2 0L2 2L0 2L0 0Z" transform="translate(10 10)" id="Rectangle-Copy-21" fill="#CACFD9" stroke="none" />
    <path d="M0 0L2 0L2 2L0 2L0 0Z" transform="translate(10 14)" id="Rectangle-Copy-29" fill="#CACFD9" stroke="none" />
    <path d="M0 0L2 0L2 2L0 2L0 0Z" transform="translate(12 0)" id="Rectangle-Copy-3" fill="#CACFD9" stroke="none" />
    <path d="M0 0L2 0L2 2L0 2L0 0Z" transform="translate(12 4)" id="Rectangle-Copy-14" fill="#CACFD9" stroke="none" />
    <path d="M0 0L2 0L2 2L0 2L0 0Z" transform="translate(12 8)" id="Rectangle-Copy-22" fill="#CACFD9" stroke="none" />
    <path d="M0 0L2 0L2 2L0 2L0 0Z" transform="translate(12 12)" id="Rectangle-Copy-30" fill="#CACFD9" stroke="none" />
    <path d="M0 0L2 0L2 2L0 2L0 0Z" transform="translate(14 2)" id="Rectangle-Copy-7" fill="#CACFD9" stroke="none" />
    <path d="M0 0L2 0L2 2L0 2L0 0Z" transform="translate(14 6)" id="Rectangle-Copy-15" fill="#CACFD9" stroke="none" />
    <path d="M0 0L2 0L2 2L0 2L0 0Z" transform="translate(14 10)" id="Rectangle-Copy-23" fill="#CACFD9" stroke="none" />
    <path d="M0 0L2 0L2 2L0 2L0 0Z" transform="translate(14 14)" id="Rectangle-Copy-31" fill="#CACFD9" stroke="none" />
</svg>