<?xml version="1.0" encoding="UTF-8"?>
<svg width="24px" height="24px" viewBox="0 0 24 24" version="1.1" xmlns="http://www.w3.org/2000/svg" xmlns:xlink="http://www.w3.org/1999/xlink">
    <title>Icons/Glyphs/Files/24px/CSV</title>
    <defs>
        <linearGradient x1="48.0477547%" y1="64.6386472%" x2="48.0477547%" y2="160.446942%" id="linearGradient-1">
            <stop stop-color="#DBE9F2" offset="0%"></stop>
            <stop stop-color="#91BBD8" offset="100%"></stop>
        </linearGradient>
    </defs>
    <g id="Icons/Glyphs/Files/24px/CSV" stroke="none" stroke-width="1" fill="none" fill-rule="evenodd">
        <path d="M7,3 L15,3 L15,3 L20,8 L20,20 C20,20.5522847 19.5522847,21 19,21 L7,21 C6.44771525,21 6,20.5522847 6,20 L6,4 C6,3.44771525 6.44771525,3 7,3 Z" id="Rectangle" fill="url(#linearGradient-1)"></path>
        <rect id="Rectangle" fill="#8DB576" x="2" y="10" width="17" height="8" rx="2"></rect>
        <path d="M15,3 L15,7 C15,7.55228475 15.4477153,8 16,8 L20,8 L20,8 L15,3 Z" id="Path-8" fill="#2A3F64" opacity="0.315681003"></path>
        <path d="M5.73333333,16 C5.2037037,16 4.78796296,15.8722222 4.48611111,15.6166667 C4.18425926,15.3611111 4.02407407,14.987037 4.00555556,14.4944444 C4.00185185,14.3944444 4,14.2314815 4,14.0055556 C4,13.7759259 4.00185185,13.6092593 4.00555556,13.5055556 C4.02407407,13.0240741 4.18611111,12.6527778 4.49166667,12.3916667 C4.79722222,12.1305556 5.21111111,12 5.73333333,12 C6.06296296,12 6.35833333,12.0537037 6.61944444,12.1611111 C6.88055556,12.2685185 7.08703704,12.4240741 7.23888889,12.6277778 C7.39074074,12.8314815 7.47037037,13.0722222 7.47777778,13.35 C7.47777778,13.3833333 7.46574074,13.4111111 7.44166667,13.4333333 C7.41759259,13.4555556 7.38888889,13.4666667 7.35555556,13.4666667 L6.56666667,13.4666667 C6.51481481,13.4666667 6.47685185,13.4564815 6.45277778,13.4361111 C6.4287037,13.4157407 6.40740741,13.3777778 6.38888889,13.3222222 C6.33703704,13.1407407 6.25833333,13.0138889 6.15277778,12.9416667 C6.04722222,12.8694444 5.90740741,12.8333333 5.73333333,12.8333333 C5.31481481,12.8333333 5.09814815,13.0666667 5.08333333,13.5333333 C5.07962963,13.6333333 5.07777778,13.787037 5.07777778,13.9944444 C5.07777778,14.2018519 5.07962963,14.3592593 5.08333333,14.4666667 C5.09814815,14.9333333 5.31481481,15.1666667 5.73333333,15.1666667 C5.9037037,15.1666667 6.04351852,15.1296296 6.15277778,15.0555556 C6.26203704,14.9814815 6.34074074,14.8555556 6.38888889,14.6777778 C6.4037037,14.6222222 6.42407407,14.5842593 6.45,14.5638889 C6.47592593,14.5435185 6.51481481,14.5333333 6.56666667,14.5333333 L7.35555556,14.5333333 C7.38888889,14.5333333 7.41759259,14.5444444 7.44166667,14.5666667 C7.46574074,14.5888889 7.47777778,14.6166667 7.47777778,14.65 C7.47037037,14.9277778 7.39074074,15.1685185 7.23888889,15.3722222 C7.08703704,15.5759259 6.88055556,15.7314815 6.61944444,15.8388889 C6.35833333,15.9462963 6.06296296,16 5.73333333,16 Z" id="Path" fill="#FFFFFF" fill-rule="nonzero"></path>
        <path d="M10.4944444,16 C10.1351852,16 9.82962963,15.9481481 9.57777778,15.8444444 C9.32592593,15.7407407 9.13518519,15.6037037 9.00555556,15.4333333 C8.87592593,15.262963 8.80740741,15.0777778 8.8,14.8777778 C8.8,14.8444444 8.81203704,14.8166667 8.83611111,14.7944444 C8.86018519,14.7722222 8.88888889,14.7611111 8.92222222,14.7611111 L9.66111111,14.7611111 C9.70555556,14.7611111 9.74166667,14.7685185 9.76944444,14.7833333 C9.79722222,14.7981481 9.82777778,14.8240741 9.86111111,14.8611111 C9.90925926,14.95 9.98425926,15.0231481 10.0861111,15.0805556 C10.187963,15.137963 10.3240741,15.1666667 10.4944444,15.1666667 C10.6944444,15.1666667 10.8481481,15.1361111 10.9555556,15.075 C11.062963,15.0138889 11.1166667,14.9296296 11.1166667,14.8222222 C11.1166667,14.7444444 11.0888889,14.6805556 11.0333333,14.6305556 C10.9777778,14.5805556 10.8888889,14.5361111 10.7666667,14.4972222 C10.6444444,14.4583333 10.4685185,14.4148148 10.2388889,14.3666667 C9.79074074,14.2777778 9.45555556,14.1425926 9.23333333,13.9611111 C9.01111111,13.7796296 8.9,13.5203704 8.9,13.1833333 C8.9,12.9537037 8.96388889,12.7490741 9.09166667,12.5694444 C9.21944444,12.3898148 9.40092593,12.25 9.63611111,12.15 C9.8712963,12.05 10.1444444,12 10.4555556,12 C10.7814815,12 11.0638889,12.0564815 11.3027778,12.1694444 C11.5416667,12.2824074 11.725,12.4231481 11.8527778,12.5916667 C11.9805556,12.7601852 12.0481481,12.9259259 12.0555556,13.0888889 C12.0555556,13.1222222 12.0444444,13.1509259 12.0222222,13.175 C12,13.1990741 11.9722222,13.2111111 11.9388889,13.2111111 L11.1611111,13.2111111 C11.0796296,13.2111111 11.0166667,13.1777778 10.9722222,13.1111111 C10.95,13.0333333 10.8925926,12.9675926 10.8,12.9138889 C10.7074074,12.8601852 10.5925926,12.8333333 10.4555556,12.8333333 C10.3,12.8333333 10.1796296,12.8611111 10.0944444,12.9166667 C10.0092593,12.9722222 9.96666667,13.0537037 9.96666667,13.1611111 C9.96666667,13.2685185 10.0222222,13.3527778 10.1333333,13.4138889 C10.2444444,13.475 10.4518519,13.537037 10.7555556,13.6 C11.1037037,13.662963 11.3805556,13.7416667 11.5861111,13.8361111 C11.7916667,13.9305556 11.9435185,14.0527778 12.0416667,14.2027778 C12.1398148,14.3527778 12.1888889,14.5425926 12.1888889,14.7722222 C12.1888889,15.0240741 12.1166667,15.2425926 11.9722222,15.4277778 C11.8277778,15.612963 11.6277778,15.7546296 11.3722222,15.8527778 C11.1166667,15.9509259 10.8240741,16 10.4944444,16 Z" id="Path" fill="#FFFFFF" fill-rule="nonzero"></path>
        <path d="M14.7057143,16 C14.6409524,16 14.5885714,15.9838095 14.5485714,15.9514286 C14.5085714,15.9190476 14.4809524,15.8780952 14.4657143,15.8285714 L13.3114286,12.1714286 L13.3,12.12 C13.3,12.0895238 13.312381,12.0619048 13.3371429,12.0371429 C13.3619048,12.012381 13.3914286,12 13.4257143,12 L14.1742857,12 C14.2314286,12 14.2780952,12.0161905 14.3142857,12.0485714 C14.3504762,12.0809524 14.3742857,12.1161905 14.3857143,12.1542857 L15.1628571,14.7371429 L15.9457143,12.1542857 C15.9571429,12.112381 15.9809524,12.0761905 16.0171429,12.0457143 C16.0533333,12.0152381 16.1,12 16.1571429,12 L16.9057143,12 C16.94,12 16.9685714,12.012381 16.9914286,12.0371429 C17.0142857,12.0619048 17.0257143,12.0895238 17.0257143,12.12 C17.0257143,12.1390476 17.0238095,12.1561905 17.02,12.1714286 L15.86,15.8285714 C15.8485714,15.8780952 15.8228571,15.9190476 15.7828571,15.9514286 C15.7428571,15.9838095 15.6904762,16 15.6257143,16 L14.7057143,16 Z" id="Path" fill="#FFFFFF" fill-rule="nonzero"></path>
    </g>
</svg>