<?xml version="1.0" encoding="UTF-8"?>
<svg width="24px" height="24px" viewBox="0 0 24 24" version="1.1" xmlns="http://www.w3.org/2000/svg" xmlns:xlink="http://www.w3.org/1999/xlink">
    <title>Icons/Glyphs/Files/24px/DOC</title>
    <defs>
        <linearGradient x1="48.0477547%" y1="64.6386472%" x2="48.0477547%" y2="160.446942%" id="linearGradient-1">
            <stop stop-color="#DBE9F2" offset="0%"></stop>
            <stop stop-color="#91BBD8" offset="100%"></stop>
        </linearGradient>
    </defs>
    <g id="Icons/Glyphs/Files/24px/DOC" stroke="none" stroke-width="1" fill="none" fill-rule="evenodd">
        <path d="M7,3 L15,3 L15,3 L20,8 L20,20 C20,20.5522847 19.5522847,21 19,21 L7,21 C6.44771525,21 6,20.5522847 6,20 L6,4 C6,3.44771525 6.44771525,3 7,3 Z" id="Rectangle" fill="url(#linearGradient-1)"></path>
        <rect id="Rectangle" fill="#5E8BFF" x="2" y="10" width="17" height="8" rx="2"></rect>
        <path d="M15,3 L15,7 C15,7.55228475 15.4477153,8 16,8 L20,8 L20,8 L15,3 Z" id="Path-8" fill="#2A3F64" opacity="0.315681003"></path>
        <path d="M4.14285714,16 C4.1047619,16 4.07142857,15.9857143 4.04285714,15.9571429 C4.01428571,15.9285714 4,15.8952381 4,15.8571429 L4,12.1485714 C4,12.1066667 4.01333333,12.0714286 4.04,12.0428571 C4.06666667,12.0142857 4.10095238,12 4.14285714,12 L5.64571429,12 C6.20952381,12 6.64761905,12.1342857 6.96,12.4028571 C7.27238095,12.6714286 7.43619048,13.0571429 7.45142857,13.56 C7.4552381,13.6704762 7.45714286,13.8171429 7.45714286,14 C7.45714286,14.1828571 7.4552381,14.327619 7.45142857,14.4342857 C7.41333333,15.4780952 6.82095238,16 5.67428571,16 L4.14285714,16 Z M5.64571429,15.1428571 C5.88571429,15.1428571 6.06285714,15.0857143 6.17714286,14.9714286 C6.29142857,14.8571429 6.35238095,14.6742857 6.36,14.4228571 C6.36761905,14.312381 6.37142857,14.1695238 6.37142857,13.9942857 C6.37142857,13.8190476 6.36761905,13.6780952 6.36,13.5714286 C6.35238095,13.327619 6.28666667,13.147619 6.16285714,13.0314286 C6.03904762,12.9152381 5.85714286,12.8571429 5.61714286,12.8571429 L5.07428571,12.8571429 L5.07428571,15.1428571 L5.64571429,15.1428571 Z" id="Shape" fill="#FFFFFF" fill-rule="nonzero"></path>
        <path d="M10.5333333,16 C10.0074074,16 9.59259259,15.8722222 9.28888889,15.6166667 C8.98518519,15.3611111 8.82407407,14.9851852 8.80555556,14.4888889 C8.80185185,14.3851852 8.8,14.2259259 8.8,14.0111111 C8.8,13.7962963 8.80185185,13.6351852 8.80555556,13.5277778 C8.82037037,13.0388889 8.98240741,12.662037 9.29166667,12.3972222 C9.60092593,12.1324074 10.0148148,12 10.5333333,12 C11.0481481,12 11.4601852,12.1324074 11.7694444,12.3972222 C12.0787037,12.662037 12.2407407,13.0388889 12.2555556,13.5277778 C12.262963,13.7425926 12.2666667,13.9037037 12.2666667,14.0111111 C12.2666667,14.1222222 12.262963,14.2814815 12.2555556,14.4888889 C12.237037,14.9851852 12.0768519,15.3611111 11.775,15.6166667 C11.4731481,15.8722222 11.0592593,16 10.5333333,16 Z M10.5333333,15.1666667 C10.7259259,15.1666667 10.8796296,15.1083333 10.9944444,14.9916667 C11.1092593,14.875 11.1703704,14.6962963 11.1777778,14.4555556 C11.1851852,14.2407407 11.1888889,14.087037 11.1888889,13.9944444 C11.1888889,13.9018519 11.1851852,13.7518519 11.1777778,13.5444444 C11.1703704,13.3037037 11.1092593,13.125 10.9944444,13.0083333 C10.8796296,12.8916667 10.7259259,12.8333333 10.5333333,12.8333333 C10.337037,12.8333333 10.1814815,12.8916667 10.0666667,13.0083333 C9.95185185,13.125 9.89074074,13.3037037 9.88333333,13.5444444 C9.87962963,13.6481481 9.87777778,13.7981481 9.87777778,13.9944444 C9.87777778,14.1944444 9.87962963,14.3481481 9.88333333,14.4555556 C9.89074074,14.6962963 9.95185185,14.875 10.0666667,14.9916667 C10.1814815,15.1083333 10.337037,15.1666667 10.5333333,15.1666667 Z" id="Shape" fill="#FFFFFF" fill-rule="nonzero"></path>
        <path d="M15.2333333,16 C14.7037037,16 14.287963,15.8722222 13.9861111,15.6166667 C13.6842593,15.3611111 13.5240741,14.987037 13.5055556,14.4944444 C13.5018519,14.3944444 13.5,14.2314815 13.5,14.0055556 C13.5,13.7759259 13.5018519,13.6092593 13.5055556,13.5055556 C13.5240741,13.0240741 13.6861111,12.6527778 13.9916667,12.3916667 C14.2972222,12.1305556 14.7111111,12 15.2333333,12 C15.562963,12 15.8583333,12.0537037 16.1194444,12.1611111 C16.3805556,12.2685185 16.587037,12.4240741 16.7388889,12.6277778 C16.8907407,12.8314815 16.9703704,13.0722222 16.9777778,13.35 C16.9777778,13.3833333 16.9657407,13.4111111 16.9416667,13.4333333 C16.9175926,13.4555556 16.8888889,13.4666667 16.8555556,13.4666667 L16.0666667,13.4666667 C16.0148148,13.4666667 15.9768519,13.4564815 15.9527778,13.4361111 C15.9287037,13.4157407 15.9074074,13.3777778 15.8888889,13.3222222 C15.837037,13.1407407 15.7583333,13.0138889 15.6527778,12.9416667 C15.5472222,12.8694444 15.4074074,12.8333333 15.2333333,12.8333333 C14.8148148,12.8333333 14.5981481,13.0666667 14.5833333,13.5333333 C14.5796296,13.6333333 14.5777778,13.787037 14.5777778,13.9944444 C14.5777778,14.2018519 14.5796296,14.3592593 14.5833333,14.4666667 C14.5981481,14.9333333 14.8148148,15.1666667 15.2333333,15.1666667 C15.4037037,15.1666667 15.5435185,15.1296296 15.6527778,15.0555556 C15.762037,14.9814815 15.8407407,14.8555556 15.8888889,14.6777778 C15.9037037,14.6222222 15.9240741,14.5842593 15.95,14.5638889 C15.9759259,14.5435185 16.0148148,14.5333333 16.0666667,14.5333333 L16.8555556,14.5333333 C16.8888889,14.5333333 16.9175926,14.5444444 16.9416667,14.5666667 C16.9657407,14.5888889 16.9777778,14.6166667 16.9777778,14.65 C16.9703704,14.9277778 16.8907407,15.1685185 16.7388889,15.3722222 C16.587037,15.5759259 16.3805556,15.7314815 16.1194444,15.8388889 C15.8583333,15.9462963 15.562963,16 15.2333333,16 Z" id="Path" fill="#FFFFFF" fill-rule="nonzero"></path>
    </g>
</svg>