<svg width="20px" height="20px" viewBox="0 0 20 20" version="1.1" xmlns:xlink="http://www.w3.org/1999/xlink" xmlns="http://www.w3.org/2000/svg">
    <path d="M11.424 0.0655222C11.7117 0.140737 11.9782 0.278956 12.2048 0.469314L12.3604 0.614463C13.1376 1.39547 13.1345 2.65867 12.3535 3.4359C12.0961 3.69209 11.7736 3.87314 11.4209 3.95955L10.8383 4.10224L10.8383 4.14209L11.6582 4.97683Q11.7268 5.04663 11.7805 5.1284Q11.8342 5.21017 11.871 5.3008Q11.9079 5.39144 11.9264 5.4875Q11.945 5.58356 11.9445 5.68139Q11.9441 5.77922 11.9247 5.87511Q11.9053 5.97099 11.8676 6.06129Q11.83 6.15159 11.7755 6.23287Q11.7211 6.31415 11.6519 6.38333L11.5666 6.46863Q11.4251 6.61008 11.2401 6.68614Q11.055 6.76221 10.855 6.76115Q10.6549 6.7601 10.4707 6.68209Q10.2865 6.60408 10.1465 6.46115L9.8297 6.13768L3.58426 12.4187C3.44233 12.5615 3.26061 12.6581 3.06288 12.6959L1.50911 12.9928C1.09047 13.0729 0.659784 12.9354 0.364846 12.6278C0.068452 12.3186 -0.0583321 11.8841 0.0252216 11.464L0.337512 9.89389C0.375997 9.70039 0.470855 9.5226 0.61015 9.3829L6.86459 3.10996L6.57539 2.81465Q6.50718 2.745 6.45372 2.66348Q6.40027 2.58196 6.36358 2.49164Q6.32689 2.40133 6.30835 2.30562Q6.28982 2.20992 6.29013 2.11243Q6.29045 2.01495 6.3096 1.91937Q6.32876 1.82378 6.36603 1.7337Q6.4033 1.64363 6.45729 1.56246Q6.51127 1.48128 6.57993 1.41208L6.65957 1.3318Q6.80071 1.18954 6.98579 1.11271Q7.17087 1.03589 7.37126 1.03639Q7.57166 1.03689 7.75636 1.11464Q7.94105 1.19238 8.08148 1.33535L8.82647 2.09382L8.98313 1.49462C9.26251 0.425965 10.3553 -0.213863 11.424 0.0655222ZM11.0446 1.51675C10.8071 1.45466 10.5648 1.57415 10.4649 1.78911L10.4344 1.87402L10.2147 2.71L11.064 2.50262C11.1516 2.48118 11.2316 2.43625 11.2955 2.37268C11.4677 2.20124 11.4875 1.93452 11.3543 1.74126L11.2971 1.67256L11.2725 1.64779C11.2096 1.58456 11.1309 1.53931 11.0446 1.51675ZM8.77955 5.06536L7.91346 4.18097L3.92288 8.18347L5.679 8.18347L8.77955 5.06536Z" transform="translate(6.147461 0)" id="Combined-Shape" fill-rule="evenodd" stroke="none" />
    <path d="M1.36385 4.4122C1.36385 4.4122 0 2.94936 0 2.94936C0.866543 2.14146 1.51721 1.12701 1.88462 0C1.88462 0 3.78613 0.619904 3.78613 0.619904C3.31321 2.07055 2.47682 3.37455 1.36385 4.4122Z" transform="translate(13.772461 12.281815)" id="Path" stroke="none" />
    <path d="M0.232338 3.25273C0.232338 3.25273 0 1.26627 0 1.26627C1.18553 1.12761 2.30236 0.689763 3.26076 0C3.26076 0 4.42905 1.6233 4.42905 1.6233C3.19655 2.51033 1.75808 3.07428 0.232338 3.25273Z" transform="translate(9.823242 15.795929)" id="Path" stroke="none" />
    <path d="M0 1.74611C0 1.74611 0.975244 0 0.975244 0C2.00156 0.573222 3.15767 0.880019 4.36058 0.883769C4.36058 0.883769 4.35434 2.88376 4.35434 2.88376C2.80993 2.87894 1.32068 2.48374 0 1.74611Z" transform="translate(4.6171875 16.226196)" id="Path" stroke="none" />
    <path d="M0 0.8286C0 0.8286 1.82028 0 1.82028 0C2.31089 1.07777 3.07035 2.01606 4.02086 2.72337C4.02086 2.72337 2.82688 4.32788 2.82688 4.32788C1.60619 3.4195 0.630903 2.21458 0 0.8286Z" transform="translate(0.8046875 13.0065155)" id="Path" stroke="none" />
    <path d="M0.164582 0C0.164582 0 2.12805 0.380497 2.12805 0.380497C2.04314 0.818684 2 1.26687 2 1.72113C2 2.42282 2.10294 3.10954 2.30317 3.76617C2.30317 3.76617 0.390135 4.34951 0.390135 4.34951C0.132409 3.50433 0 2.62105 0 1.72113C0 1.13899 0.0554017 0.5634 0.164582 0Z" transform="translate(0 8.38887)" id="Path" stroke="none" />
    <path d="M2.4345 0C2.4345 0 3.79363 1.46724 3.79363 1.46724C2.92449 2.27233 2.27054 3.2847 1.89946 4.4104C1.89946 4.4104 0 3.78425 0 3.78425C0.477635 2.33532 1.31822 1.03403 2.4345 0Z" transform="translate(0.45117188 3.5061188)" id="Path" stroke="none" />
    <path d="M4.20219 0L4.42798 1.98721C3.24175 2.12199 2.12355 2.55615 1.16296 3.24271L0 1.61559C1.23534 0.732646 2.67561 0.173452 4.20219 0Z" transform="translate(3.7714844 1.1679382)" id="Path" stroke="none" />
</svg>