<svg width="10px" height="10px" viewBox="0 0 10 10" version="1.1" xmlns:xlink="http://www.w3.org/1999/xlink" xmlns="http://www.w3.org/2000/svg">
    <path d="M10 5Q10 3.63932 9.32943 2.49349Q8.65885 1.34115 7.50977 0.670573Q6.36068 0 5 0Q3.63932 1.49012e-08 2.49023 0.670573Q1.34115 1.34115 0.670573 2.49023Q0 3.63932 0 5Q1.49012e-08 6.36068 0.670573 7.50977Q1.34115 8.65885 2.49023 9.32943Q3.63932 10 5 10Q6.36068 10 7.50977 9.32943Q8.65885 8.65885 9.32943 7.50977Q10 6.36068 10 5ZM5.83333 2.29167L5.83333 1.25Q5.83333 1.15885 5.77474 1.10026C5.73568 1.0612 5.68576 1.04167 5.625 1.04167L4.375 1.04167C4.31424 1.04167 4.26432 1.0612 4.22526 1.10026Q4.16667 1.15885 4.16667 1.25L4.16667 2.29167C4.16667 2.35243 4.1862 2.40234 4.22526 2.44141C4.26432 2.48047 4.31424 2.5 4.375 2.5L5.625 2.5C5.68576 2.5 5.73568 2.48047 5.77474 2.44141C5.8138 2.40234 5.83333 2.35243 5.83333 2.29167ZM6.66667 7.08333L6.66667 8.125C6.66667 8.18576 6.64714 8.23568 6.60807 8.27474C6.56901 8.3138 6.5191 8.33333 6.45833 8.33333L3.54167 8.33333Q3.45052 8.33333 3.39193 8.27474C3.35286 8.23568 3.33333 8.18576 3.33333 8.125L3.33333 7.08333C3.33333 7.02257 3.35286 6.97266 3.39193 6.93359Q3.45052 6.875 3.54167 6.875L4.16667 6.875L4.16667 4.79167L3.54167 4.79167Q3.45052 4.79167 3.39193 4.73307C3.35286 4.69401 3.33333 4.6441 3.33333 4.58333L3.33333 3.54167Q3.33333 3.45052 3.39193 3.39193Q3.45052 3.33333 3.54167 3.33333L5.625 3.33333C5.68576 3.33333 5.73568 3.35286 5.77474 3.39193Q5.83333 3.45052 5.83333 3.54167L5.83333 6.875L6.45833 6.875C6.5191 6.875 6.56901 6.89453 6.60807 6.93359C6.64714 6.97266 6.66667 7.02257 6.66667 7.08333Z" id="Shape" fill="#20BCEA" fill-rule="evenodd" stroke="none" />
</svg>