<svg width="16px" height="14px" viewBox="0 0 16 14" version="1.1" xmlns:xlink="http://www.w3.org/1999/xlink" xmlns="http://www.w3.org/2000/svg">
    <path d="M5.001 0L4.999 0Q4.86794 0 4.73801 0.0171111Q4.60807 0.0342223 4.48148 0.0681516Q4.35489 0.102081 4.23382 0.152248Q4.11274 0.202414 3.99925 0.26796Q3.88576 0.333505 3.7818 0.413306Q3.67784 0.493108 3.58519 0.5858Q3.49254 0.678492 3.41278 0.782487Q3.33302 0.886482 3.26753 1L0.999 1Q0.900607 1 0.804105 1.0192Q0.707602 1.03839 0.616699 1.07604Q0.525796 1.1137 0.443985 1.16836Q0.362175 1.22303 0.2926 1.2926Q0.223026 1.36217 0.168362 1.44399Q0.113698 1.5258 0.0760443 1.6167Q0.038391 1.7076 0.0191955 1.8041Q0 1.90061 0 1.999L0 2.001Q0 2.09939 0.0191955 2.19589Q0.038391 2.2924 0.0760443 2.3833Q0.113698 2.4742 0.168362 2.55601Q0.223026 2.63783 0.2926 2.7074Q0.362175 2.77697 0.443985 2.83164Q0.525796 2.8863 0.616699 2.92396Q0.707602 2.96161 0.804105 2.9808Q0.900607 3 0.999 3L3.26753 3Q3.33302 3.11352 3.41278 3.21751Q3.49254 3.32151 3.58519 3.4142Q3.67784 3.50689 3.7818 3.58669Q3.88576 3.6665 3.99925 3.73204Q4.11274 3.79759 4.23382 3.84775Q4.35489 3.89792 4.48148 3.93185Q4.60807 3.96578 4.73801 3.98289Q4.86794 4 4.999 4L5.001 4Q5.13206 4 5.26199 3.98289Q5.39193 3.96578 5.51852 3.93185Q5.64511 3.89792 5.76618 3.84775Q5.88726 3.79759 6.00075 3.73204Q6.11424 3.6665 6.2182 3.58669Q6.32216 3.50689 6.41481 3.4142Q6.50746 3.32151 6.58722 3.21751Q6.66698 3.11352 6.73247 3L15.001 3Q15.0994 3 15.1959 2.9808Q15.2924 2.96161 15.3833 2.92396Q15.4742 2.8863 15.556 2.83164Q15.6378 2.77697 15.7074 2.7074Q15.777 2.63783 15.8316 2.55601Q15.8863 2.4742 15.924 2.3833Q15.9616 2.2924 15.9808 2.19589Q16 2.09939 16 2.001L16 1.999Q16 1.90061 15.9808 1.8041Q15.9616 1.7076 15.924 1.6167Q15.8863 1.5258 15.8316 1.44399Q15.777 1.36217 15.7074 1.2926Q15.6378 1.22303 15.556 1.16836Q15.4742 1.1137 15.3833 1.07604Q15.2924 1.03839 15.1959 1.0192Q15.0994 1 15.001 1L6.73247 1Q6.66698 0.886482 6.58722 0.782487Q6.50746 0.678492 6.41481 0.5858Q6.32216 0.493108 6.2182 0.413306Q6.11424 0.333505 6.00075 0.26796Q5.88726 0.202414 5.76618 0.152248Q5.64511 0.102081 5.51852 0.0681516Q5.39193 0.0342223 5.26199 0.0171111Q5.13206 0 5.001 0ZM10.999 5L11.001 5Q11.1321 5 11.262 5.01711Q11.3919 5.03422 11.5185 5.06815Q11.6451 5.10208 11.7662 5.15225Q11.8873 5.20241 12.0007 5.26796Q12.1142 5.3335 12.2182 5.41331Q12.3222 5.49311 12.4148 5.5858Q12.5075 5.67849 12.5872 5.78249Q12.667 5.88648 12.7325 6L15.001 6Q15.0994 6 15.1959 6.0192Q15.2924 6.03839 15.3833 6.07604Q15.4742 6.1137 15.556 6.16836Q15.6378 6.22303 15.7074 6.2926Q15.777 6.36217 15.8316 6.44398Q15.8863 6.52579 15.924 6.6167Q15.9616 6.7076 15.9808 6.8041Q16 6.90061 16 6.999L16 7.001Q16 7.09939 15.9808 7.19589Q15.9616 7.2924 15.924 7.3833Q15.8863 7.4742 15.8316 7.55601Q15.777 7.63782 15.7074 7.7074Q15.6378 7.77697 15.556 7.83164Q15.4742 7.8863 15.3833 7.92395Q15.2924 7.96161 15.1959 7.9808Q15.0994 8 15.001 8L12.7325 8Q12.667 8.11352 12.5872 8.21751Q12.5075 8.32151 12.4148 8.4142Q12.3222 8.50689 12.2182 8.58669Q12.1142 8.6665 12.0007 8.73204Q11.8873 8.79759 11.7662 8.84775Q11.6451 8.89792 11.5185 8.93185Q11.3919 8.96578 11.262 8.98289Q11.1321 9 11.001 9L10.999 9Q10.8679 9 10.738 8.98289Q10.6081 8.96578 10.4815 8.93185Q10.3549 8.89792 10.2338 8.84775Q10.1127 8.79759 9.99925 8.73204Q9.88576 8.6665 9.7818 8.58669Q9.67784 8.50689 9.58519 8.4142Q9.49254 8.32151 9.41278 8.21751Q9.33302 8.11352 9.26753 8L0.999 8Q0.900607 8 0.804105 7.9808Q0.707602 7.96161 0.616699 7.92395Q0.525796 7.8863 0.443985 7.83164Q0.362175 7.77697 0.2926 7.7074Q0.223026 7.63782 0.168362 7.55601Q0.113698 7.4742 0.0760443 7.3833Q0.038391 7.2924 0.0191955 7.19589Q0 7.09939 0 7.001L0 6.999Q0 6.90061 0.0191955 6.8041Q0.038391 6.7076 0.0760443 6.6167Q0.113698 6.52579 0.168362 6.44398Q0.223026 6.36217 0.2926 6.2926Q0.362175 6.22303 0.443985 6.16836Q0.525796 6.1137 0.616699 6.07604Q0.707602 6.03839 0.804105 6.0192Q0.900607 6 0.999 6L9.26753 6Q9.33302 5.88648 9.41278 5.78249Q9.49254 5.67849 9.58519 5.5858Q9.67784 5.49311 9.7818 5.41331Q9.88576 5.3335 9.99925 5.26796Q10.1127 5.20241 10.2338 5.15225Q10.3549 5.10208 10.4815 5.06815Q10.6081 5.03422 10.738 5.01711Q10.8679 5 10.999 5ZM8.001 10L7.999 10Q7.86794 10 7.73801 10.0171Q7.60807 10.0342 7.48148 10.0682Q7.35489 10.1021 7.23382 10.1522Q7.11274 10.2024 6.99925 10.268Q6.88576 10.3335 6.7818 10.4133Q6.67784 10.4931 6.58519 10.5858Q6.49254 10.6785 6.41278 10.7825Q6.33302 10.8865 6.26753 11L0.999 11Q0.900607 11 0.804105 11.0192Q0.707602 11.0384 0.616699 11.076Q0.525796 11.1137 0.443985 11.1684Q0.362175 11.223 0.2926 11.2926Q0.223026 11.3622 0.168362 11.444Q0.113698 11.5258 0.0760443 11.6167Q0.038391 11.7076 0.0191955 11.8041Q0 11.9006 0 11.999L0 12.001Q0 12.0994 0.0191955 12.1959Q0.038391 12.2924 0.0760443 12.3833Q0.113698 12.4742 0.168362 12.556Q0.223026 12.6378 0.2926 12.7074Q0.362175 12.777 0.443985 12.8316Q0.525796 12.8863 0.616699 12.924Q0.707602 12.9616 0.804105 12.9808Q0.900607 13 0.999 13L6.26753 13Q6.33302 13.1135 6.41278 13.2175Q6.49254 13.3215 6.58519 13.4142Q6.67784 13.5069 6.7818 13.5867Q6.88576 13.6665 6.99925 13.732Q7.11274 13.7976 7.23382 13.8478Q7.35489 13.8979 7.48148 13.9318Q7.60807 13.9658 7.73801 13.9829Q7.86794 14 7.999 14L8.001 14Q8.13206 14 8.26199 13.9829Q8.39193 13.9658 8.51852 13.9318Q8.64511 13.8979 8.76618 13.8478Q8.88726 13.7976 9.00075 13.732Q9.11424 13.6665 9.2182 13.5867Q9.32216 13.5069 9.41481 13.4142Q9.50746 13.3215 9.58722 13.2175Q9.66698 13.1135 9.73247 13L15.001 13Q15.0994 13 15.1959 12.9808Q15.2924 12.9616 15.3833 12.924Q15.4742 12.8863 15.556 12.8316Q15.6378 12.777 15.7074 12.7074Q15.777 12.6378 15.8316 12.556Q15.8863 12.4742 15.924 12.3833Q15.9616 12.2924 15.9808 12.1959Q16 12.0994 16 12.001L16 11.999Q16 11.9006 15.9808 11.8041Q15.9616 11.7076 15.924 11.6167Q15.8863 11.5258 15.8316 11.444Q15.777 11.3622 15.7074 11.2926Q15.6378 11.223 15.556 11.1684Q15.4742 11.1137 15.3833 11.076Q15.2924 11.0384 15.1959 11.0192Q15.0994 11 15.001 11L9.73247 11Q9.66698 10.8865 9.58722 10.7825Q9.50746 10.6785 9.41481 10.5858Q9.32216 10.4931 9.2182 10.4133Q9.11424 10.3335 9.00075 10.268Q8.88726 10.2024 8.76618 10.1522Q8.64511 10.1021 8.51852 10.0682Q8.39193 10.0342 8.26199 10.0171Q8.13206 10 8.001 10Z" id="Combined-Shape" fill-rule="evenodd" stroke="none" />
</svg>