<svg width="24px" height="24px" viewBox="0 0 24 24" version="1.1" xmlns="http://www.w3.org/2000/svg" xmlns:xlink="http://www.w3.org/1999/xlink">
    <g id="Icons/Glyphs/Lock/24px/Outline" stroke="none" stroke-width="1" fill="none" fill-rule="evenodd">
        <path d="M12,4.25 C14.0042592,4.25 15.6412737,5.82236105 15.744802,7.80084143 L15.75,8 L15.75,10 L16,10 C17.1045695,10 18,10.8954305 18,12 L18,16 C18,18.209139 16.209139,20 14,20 L10,20 C7.790861,20 6,18.209139 6,16 L6,12 C6,10.8954305 6.8954305,10 8,10 L8.25,10 L8.25,8 C8.25,5.92893219 9.92893219,4.25 12,4.25 Z M16,11.5 L8,11.5 C7.75454011,11.5 7.55039163,11.6768752 7.50805567,11.9101244 L7.5,12 L7.5,16 C7.5,17.3254834 8.53153594,18.4100387 9.83562431,18.4946823 L10,18.5 L14,18.5 C15.3254834,18.5 16.4100387,17.4684641 16.4946823,16.1643757 L16.5,16 L16.5,12 C16.5,11.7545401 16.3231248,11.5503916 16.0898756,11.5080557 L16,11.5 Z M12,12.5 C12.5522847,12.5 13,12.9477153 13,13.5 L13,14 C13,14.369681 12.7994004,14.6925095 12.5011143,14.8655723 L12.5,16.5 C12.5,16.7761424 12.2761424,17 12,17 C11.7238576,17 11.5,16.7761424 11.5,16.5 L11.4998705,14.8661429 C11.2010412,14.6932197 11,14.3700877 11,14 L11,13.5 C11,12.9477153 11.4477153,12.5 12,12.5 Z M12,5.75 C10.809136,5.75 9.83435508,6.67516159 9.75519081,7.84595119 L9.75,8 L9.75,10 L14.25,10 L14.25,8 C14.25,6.75735931 13.2426407,5.75 12,5.75 Z" id="Combined-Shape" fill-rule="nonzero"></path>
    </g>
</svg>