<svg width="24px" height="24px" viewBox="0 0 24 24" version="1.1" xmlns:xlink="http://www.w3.org/1999/xlink" xmlns="http://www.w3.org/2000/svg">
    <path d="M0.23583 5.33468C2.38938 1.79317 5.62549 0 9.8538 0C14.0812 0 17.3259 1.7922 19.4988 5.332L19.7357 5.71793L19.5045 6.10729C17.3802 9.68466 14.1441 11.4964 9.88948 11.4964C5.63618 11.4964 2.38733 9.68612 0.234189 6.11132L0 5.72251L0.23583 5.33468ZM9.85421 1.77445C9.23537 2.40576 8.8538 3.2705 8.8538 4.22436C8.8538 4.39412 8.86588 4.56106 8.88924 4.72436L6.90381 4.72436C6.87101 4.5628 6.8538 4.39559 6.8538 4.22436C6.8538 2.84365 7.97309 1.72436 9.3538 1.72436C9.52518 1.72436 9.69252 1.7416 9.85421 1.77445ZM9.8538 8.72436C12.201 8.72436 14.1038 6.82157 14.1038 4.47436C14.1038 3.56854 13.8204 2.7289 13.3375 2.03928C15.1619 2.66384 16.6613 3.83269 17.8544 5.55522L17.9718 5.73036L17.857 5.90765C16.016 8.64618 13.3857 9.99642 9.88948 9.99642L9.54257 9.99192C6.21656 9.90478 3.68566 8.55353 1.88194 5.90409L1.7638 5.72536L1.8801 5.55284C3.06142 3.83296 4.55143 2.6654 6.36908 2.04077C5.88677 2.73012 5.6038 3.56919 5.6038 4.47436C5.6038 6.82157 7.50659 8.72436 9.8538 8.72436Z" transform="translate(2.146202 6.2756414)" id="Combined-Shape" fill-rule="evenodd" stroke="none" />
</svg>