<svg width="16px" height="16px" viewBox="0 0 16 16" version="1.1" xmlns:xlink="http://www.w3.org/1999/xlink" xmlns="http://www.w3.org/2000/svg">
    <path d="M4.001 0L3.999 0Q3.90061 0 3.8041 0.0191955Q3.7076 0.038391 3.6167 0.0760443Q3.5258 0.113698 3.44398 0.168362Q3.36217 0.223026 3.2926 0.2926Q3.22303 0.362175 3.16836 0.443985Q3.1137 0.525796 3.07604 0.616699Q3.03839 0.707602 3.0192 0.804105Q3 0.900607 3 0.999L3 2C1.34315 2 0 3.34315 0 5L0 13C0 14.6569 1.34315 16 3 16L13 16C14.6569 16 16 14.6569 16 13L16 5C16 3.34315 14.6569 2 13 2L13 0.999Q13 0.900607 12.9808 0.804105Q12.9616 0.707602 12.924 0.616699Q12.8863 0.525796 12.8316 0.443985Q12.777 0.362175 12.7074 0.2926Q12.6378 0.223026 12.556 0.168362Q12.4742 0.113698 12.3833 0.0760443Q12.2924 0.038391 12.1959 0.0191955Q12.0994 0 12.001 0L11.999 0Q11.9006 0 11.8041 0.0191955Q11.7076 0.038391 11.6167 0.0760443Q11.5258 0.113698 11.444 0.168362Q11.3622 0.223026 11.2926 0.2926Q11.223 0.362175 11.1684 0.443985Q11.1137 0.525796 11.076 0.616699Q11.0384 0.707602 11.0192 0.804105Q11 0.900607 11 0.999L11 2L5 2L5 0.999Q5 0.900607 4.9808 0.804105Q4.96161 0.707602 4.92395 0.616699Q4.8863 0.525796 4.83164 0.443985Q4.77697 0.362175 4.7074 0.2926Q4.63782 0.223026 4.55601 0.168362Q4.4742 0.113698 4.3833 0.0760443Q4.2924 0.038391 4.19589 0.0191955Q4.09939 0 4.001 0ZM14 5C14 4.44772 13.5523 4 13 4L3 4C2.44772 4 2 4.44772 2 5L2 13C2 13.5523 2.44772 14 3 14L13 14C13.5523 14 14 13.5523 14 13L14 5ZM12 9L12 7L10 7L10 9L12 9ZM7 10L9 10L9 12L7 12L7 10ZM10 12L10 10L12 10L12 12L10 12Z" id="Combined-Shape" fill-rule="evenodd" stroke="none" />
</svg>