<svg width="24px" height="24px" viewBox="0 0 24 24" version="1.1" xmlns:xlink="http://www.w3.org/1999/xlink" xmlns="http://www.w3.org/2000/svg">
    <path d="M16.196 0.257532L16.1945 0.256194Q16.0469 0.123229 15.8595 0.0568968Q15.6722 -0.00943507 15.4738 0.000964807Q15.2753 0.0113647 15.096 0.096913Q14.9166 0.182461 14.7837 0.330134L13.2426 2.04166C12.195 1.7486 11.0647 1.60154 9.8538 1.60154C5.62549 1.60154 2.38938 3.39471 0.23583 6.93622L0 7.32405L0.234189 7.71286C1.34497 9.55706 2.74736 10.9316 4.42883 11.8303L4.07624 12.2219Q4.0104 12.2951 3.96009 12.3796Q3.90978 12.4642 3.87694 12.5569Q3.8441 12.6497 3.82998 12.747Q3.81586 12.8444 3.82101 12.9427Q3.82616 13.0409 3.85038 13.1363Q3.8746 13.2317 3.91696 13.3205Q3.95932 13.4093 4.01819 13.4881Q4.07706 13.567 4.15018 13.6328L4.15166 13.6341Q4.22478 13.7 4.30934 13.7503Q4.3939 13.8006 4.48665 13.8334Q4.5794 13.8663 4.67678 13.8804Q4.77415 13.8945 4.87241 13.8894Q4.97067 13.8842 5.06603 13.86Q5.1614 13.8358 5.25021 13.7934Q5.33901 13.7511 5.41785 13.6922Q5.49669 13.6333 5.56253 13.5602L16.27 1.6684Q16.3358 1.59528 16.3861 1.51072Q16.4364 1.42616 16.4692 1.33341Q16.5021 1.24066 16.5162 1.14328Q16.5303 1.04591 16.5252 0.94765Q16.52 0.849392 16.4958 0.754027Q16.4716 0.658661 16.4292 0.569853Q16.3869 0.481045 16.328 0.402208Q16.2691 0.32337 16.196 0.257532ZM5.46833 10.6759L6.87802 9.11024C6.09165 8.33896 5.6038 7.2644 5.6038 6.0759C5.6038 5.17073 5.88677 4.33166 6.36908 3.64231C4.55143 4.26694 3.06142 5.4345 1.8801 7.15438L1.7638 7.3269L1.88194 7.50563C2.85999 8.94226 4.05184 9.99719 5.46833 10.6759ZM9.85421 3.37599C9.23537 4.0073 8.8538 4.87204 8.8538 5.8259C8.8538 5.99566 8.86588 6.1626 8.88924 6.3259L6.90381 6.3259C6.87101 6.16434 6.8538 5.99713 6.8538 5.8259C6.8538 4.44519 7.97309 3.3259 9.3538 3.3259C9.52518 3.3259 9.69252 3.34314 9.85421 3.37599ZM9.54257 11.5935C9.40775 11.5899 9.27425 11.5843 9.14205 11.5766L7.90056 12.9554C8.53688 13.0504 9.19998 13.098 9.88948 13.098C14.1441 13.098 17.3802 11.2862 19.5045 7.70883L19.7357 7.31947L19.4988 6.93354C18.6307 5.51928 17.5914 4.38399 16.3868 3.5305L15.375 4.65421C16.3142 5.29085 17.1393 6.12435 17.8544 7.15676L17.9718 7.3319L17.857 7.50919C16.016 10.2477 13.3857 11.598 9.88948 11.598L9.54257 11.5935ZM10.2879 10.304L14.1038 6.06606L14.1038 6.0759C14.1038 8.27655 12.4312 10.0865 10.2879 10.304Z" transform="translate(2.146202 4.6741014)" id="Combined-Shape" fill-rule="evenodd" stroke="none" />
</svg>