<svg width="14px" height="17px" viewBox="0 0 14 17" version="1.1" xmlns:xlink="http://www.w3.org/1999/xlink" xmlns="http://www.w3.org/2000/svg">
    <path d="M1.999 0L10.001 0Q10.0992 0 10.1969 0.00962573Q10.2947 0.0192515 10.391 0.0384102Q10.4873 0.057569 10.5813 0.0860763Q10.6753 0.114584 10.766 0.152165Q10.8567 0.189746 10.9433 0.236039Q11.0299 0.282333 11.1116 0.336892Q11.1932 0.391452 11.2692 0.453752Q11.3451 0.516052 11.4145 0.585494Q11.4839 0.654935 11.5462 0.730848Q11.6085 0.806761 11.6631 0.888415Q11.7177 0.970069 11.764 1.05668Q11.8103 1.14329 11.8478 1.23402Q11.8854 1.32474 11.9139 1.41872Q11.9424 1.5127 11.9616 1.60901Q11.9807 1.70533 11.9904 1.80306Q12 1.9008 12 1.999L12 6.001Q12 6.19746 11.9807 6.39297Q11.9615 6.58848 11.9232 6.78117Q11.8848 6.97385 11.8278 7.16185Q11.7708 7.34985 11.6956 7.53135Q11.6204 7.71285 11.5278 7.88611Q11.4352 8.05937 11.326 8.22272Q11.2169 8.38607 11.0923 8.53794Q10.9676 8.6898 10.8287 8.82872Q10.6898 8.96764 10.5379 9.09227Q10.3861 9.2169 10.2227 9.32605Q10.0594 9.43519 9.88611 9.5278Q9.71285 9.62041 9.53135 9.69559Q9.34985 9.77077 9.16185 9.8278Q8.97385 9.88483 8.78117 9.92316Q8.58848 9.96149 8.39297 9.98074Q8.19746 10 8.001 10L3.999 10Q3.80254 10 3.60703 9.98074Q3.41152 9.96149 3.21883 9.92316Q3.02615 9.88483 2.83815 9.8278Q2.65015 9.77077 2.46865 9.69559Q2.28715 9.62041 2.11388 9.5278Q1.94062 9.43519 1.77727 9.32605Q1.61393 9.2169 1.46206 9.09227Q1.3102 8.96764 1.17128 8.82872Q1.03236 8.6898 0.907731 8.53794Q0.783099 8.38607 0.673953 8.22272Q0.564807 8.05937 0.472197 7.88611Q0.379587 7.71285 0.304406 7.53135Q0.229224 7.34985 0.172196 7.16185Q0.115167 6.97385 0.0768396 6.78117Q0.0385126 6.58848 0.0192563 6.39297Q0 6.19746 0 6.001L0 1.999Q0 1.9008 0.00962573 1.80306Q0.0192515 1.70533 0.0384102 1.60901Q0.057569 1.5127 0.0860763 1.41872Q0.114584 1.32474 0.152165 1.23402Q0.189746 1.14329 0.236039 1.05668Q0.282333 0.970069 0.336892 0.888415Q0.391452 0.806761 0.453752 0.730848Q0.516052 0.654935 0.585494 0.585494Q0.654935 0.516052 0.730848 0.453752Q0.806761 0.391452 0.888415 0.336892Q0.970069 0.282333 1.05668 0.236039Q1.14329 0.189746 1.23402 0.152165Q1.32474 0.114584 1.41872 0.0860763Q1.5127 0.057569 1.60901 0.0384102Q1.70533 0.0192515 1.80306 0.00962573Q1.9008 0 1.999 0ZM5.999 2.5L6.001 2.5Q6.09939 2.5 6.19589 2.5192Q6.2924 2.53839 6.3833 2.57604Q6.4742 2.6137 6.55601 2.66836Q6.63782 2.72303 6.7074 2.7926Q6.77697 2.86217 6.83164 2.94399Q6.8863 3.0258 6.92395 3.1167Q6.96161 3.2076 6.9808 3.3041Q7 3.40061 7 3.499L7 4.001Q7 4.13259 6.96592 4.2597Q6.93184 4.38681 6.86601 4.50075Q6.80018 4.6147 6.70709 4.70771Q6.614 4.80072 6.5 4.86645L6.5 6.501Q6.5 6.55015 6.49041 6.59835Q6.48082 6.64655 6.46202 6.69196Q6.44321 6.73736 6.4159 6.77823Q6.3886 6.81909 6.35385 6.85385Q6.31909 6.8886 6.27823 6.9159Q6.23736 6.94321 6.19196 6.96202Q6.14655 6.98082 6.09835 6.99041Q6.05015 7 6.001 7L5.999 7Q5.94985 7 5.90165 6.99041Q5.85345 6.98082 5.80804 6.96202Q5.76263 6.94321 5.72177 6.9159Q5.6809 6.8886 5.64615 6.85385Q5.6114 6.81909 5.5841 6.77823Q5.55679 6.73736 5.53798 6.69196Q5.51918 6.64655 5.50959 6.59835Q5.5 6.55015 5.5 6.501L5.5 4.86645Q5.386 4.80072 5.29291 4.70771Q5.19982 4.6147 5.13399 4.50075Q5.06815 4.38681 5.03408 4.2597Q5 4.13259 5 4.001L5 3.499Q5 3.40061 5.0192 3.3041Q5.03839 3.2076 5.07604 3.1167Q5.1137 3.0258 5.16836 2.94399Q5.22303 2.86217 5.2926 2.7926Q5.36217 2.72303 5.44399 2.66836Q5.5258 2.6137 5.6167 2.57604Q5.7076 2.53839 5.8041 2.5192Q5.90061 2.5 5.999 2.5Z" transform="translate(0 5)" id="Combined-Shape" fill="#DFE3EB" fill-rule="evenodd" stroke="none" />
    <path d="M0 7L0 2.999Q0 2.85167 0.014441 2.70505Q0.028882 2.55842 0.0576249 2.41392Q0.0863679 2.26942 0.129136 2.12844Q0.171904 1.98745 0.228285 1.85133Q0.284667 1.71522 0.354118 1.58528Q0.42357 1.45535 0.505423 1.33284Q0.587276 1.21034 0.680742 1.09645Q0.774208 0.982566 0.878387 0.878387Q0.982566 0.774208 1.09645 0.680742Q1.21034 0.587276 1.33284 0.505423Q1.45535 0.42357 1.58528 0.354118Q1.71522 0.284667 1.85133 0.228285Q1.98745 0.171904 2.12844 0.129136Q2.26942 0.0863679 2.41392 0.0576249Q2.55842 0.028882 2.70505 0.014441Q2.85167 0 2.999 0L3.001 0Q3.14833 0 3.29495 0.014441Q3.44158 0.028882 3.58608 0.0576249Q3.73058 0.0863679 3.87156 0.129136Q4.01255 0.171904 4.14867 0.228285Q4.28478 0.284667 4.41472 0.354118Q4.54465 0.42357 4.66715 0.505423Q4.78966 0.587276 4.90355 0.680742Q5.01743 0.774208 5.12161 0.878387Q5.22579 0.982566 5.31926 1.09645Q5.41272 1.21034 5.49458 1.33284Q5.57643 1.45535 5.64588 1.58528Q5.71533 1.71522 5.77171 1.85133Q5.8281 1.98745 5.87086 2.12844Q5.91363 2.26942 5.94237 2.41392Q5.97112 2.55842 5.98556 2.70505Q6 2.85167 6 2.999L6 7" transform="translate(3 0)" id="Path-5" fill="none" stroke="#DFE3EB" stroke-width="2" />
</svg>