<svg width="48px" height="48px" viewBox="0 0 48 48" version="1.1" xmlns:xlink="http://www.w3.org/1999/xlink" xmlns="http://www.w3.org/2000/svg">
    <g id="Icons/Big/Upload">
        <path d="M17.0825 26.9729L2.999 26.9729Q2.85167 26.9729 2.70505 26.9584Q2.55842 26.944 2.41392 26.9153Q2.26942 26.8865 2.12844 26.8437Q1.98745 26.801 1.85133 26.7446Q1.71522 26.6882 1.58528 26.6188Q1.45535 26.5493 1.33284 26.4675Q1.21034 26.3856 1.09645 26.2921Q0.982566 26.1987 0.878387 26.0945Q0.774208 25.9903 0.680742 25.8764Q0.587276 25.7625 0.505423 25.64Q0.42357 25.5175 0.354118 25.3876Q0.284667 25.2577 0.228285 25.1215Q0.171904 24.9854 0.129136 24.8444Q0.0863679 24.7035 0.0576249 24.559Q0.028882 24.4145 0.014441 24.2678Q0 24.1212 0 23.9739L0 2.999Q0 2.85167 0.014441 2.70505Q0.028882 2.55842 0.0576249 2.41392Q0.0863679 2.26942 0.129136 2.12844Q0.171904 1.98745 0.228285 1.85133Q0.284667 1.71522 0.354118 1.58528Q0.42357 1.45535 0.505423 1.33284Q0.587276 1.21034 0.680742 1.09645Q0.774208 0.982566 0.878387 0.878387Q0.982566 0.774208 1.09645 0.680742Q1.21034 0.587276 1.33284 0.505423Q1.45535 0.42357 1.58528 0.354118Q1.71522 0.284667 1.85133 0.228285Q1.98745 0.171904 2.12844 0.129136Q2.26942 0.0863679 2.41392 0.0576249Q2.55842 0.028882 2.70505 0.014441Q2.85167 -1.91654e-13 2.999 -1.91654e-13L26.9938 -1.91654e-13Q27.1411 -1.91654e-13 27.2877 0.014441Q27.4343 0.028882 27.5788 0.0576249Q27.7233 0.0863679 27.8643 0.129136Q28.0053 0.171904 28.1414 0.228285Q28.2775 0.284667 28.4075 0.354118Q28.5374 0.42357 28.6599 0.505423Q28.7824 0.587276 28.8963 0.680742Q29.0102 0.774208 29.1144 0.878387Q29.2185 0.982566 29.312 1.09645Q29.4055 1.21034 29.4873 1.33284Q29.5692 1.45535 29.6386 1.58528Q29.7081 1.71522 29.7645 1.85133Q29.8208 1.98745 29.8636 2.12844Q29.9064 2.26942 29.9351 2.41392Q29.9639 2.55842 29.9783 2.70505Q29.9928 2.85167 29.9928 2.999L29.9928 8.02057" transform="translate(5.0072436 9.027121)" id="Path-9" fill="none" stroke="#AFB7C4" stroke-width="2" stroke-linecap="round" stroke-linejoin="round" />
        <path d="M12.2954 18C12.8062 17.8225 13.2966 17.6014 13.7622 17.3413C14.5142 16.9213 15.2015 16.3995 15.8055 15.7944C17.4772 14.12 18.5108 11.8084 18.5108 9.25541C18.5108 6.70352 17.4781 4.39284 15.8077 2.71856C14.1322 1.03913 11.8151 0 9.25541 0C6.7226 0 4.42741 1.01738 2.75622 2.66578C1.05468 4.34412 0 6.6766 0 9.25541C0 10.1937 0.139633 11.0994 0.399254 11.9529C0.555088 12.4652 0.754151 12.9586 0.992196 13.429" transform="matrix(0.92718387 -0.37460658 0.37460658 0.92718387 22.964373 25.934277)" id="Oval" fill="none" stroke="#AFB7C4" stroke-width="2" stroke-linecap="round" />
        <path d="M0.999 0L1.001 0Q1.09939 0 1.1959 0.0191955Q1.2924 0.038391 1.3833 0.0760443Q1.4742 0.113698 1.55601 0.168362Q1.63783 0.223026 1.7074 0.2926Q1.77697 0.362175 1.83164 0.443985Q1.8863 0.525796 1.92396 0.616699Q1.96161 0.707602 1.9808 0.804105Q2 0.900607 2 0.999L2 9.001Q2 9.09939 1.9808 9.1959Q1.96161 9.2924 1.92396 9.3833Q1.8863 9.4742 1.83164 9.55602Q1.77697 9.63783 1.7074 9.7074Q1.63783 9.77697 1.55601 9.83164Q1.4742 9.8863 1.3833 9.92395Q1.2924 9.96161 1.1959 9.9808Q1.09939 10 1.001 10L0.999 10Q0.900607 10 0.804105 9.9808Q0.707602 9.96161 0.616699 9.92395Q0.525796 9.8863 0.443985 9.83164Q0.362175 9.77697 0.2926 9.7074Q0.223026 9.63783 0.168362 9.55602Q0.113698 9.4742 0.0760443 9.3833Q0.038391 9.2924 0.0191955 9.1959Q0 9.09939 0 9.001L0 0.999Q0 0.900607 0.0191955 0.804105Q0.038391 0.707602 0.0760443 0.616699Q0.113698 0.525796 0.168362 0.443985Q0.223026 0.362175 0.2926 0.2926Q0.362175 0.223026 0.443985 0.168362Q0.525796 0.113698 0.616699 0.0760443Q0.707602 0.038391 0.804105 0.0191955Q0.900607 0 0.999 0Z" transform="translate(34 27)" id="Rectangle" fill="#AFB7C4" stroke="none" />
        <path d="M0.999 0L1.001 0Q1.09939 0 1.1959 0.0191955Q1.2924 0.038391 1.3833 0.0760443Q1.4742 0.113698 1.55601 0.168362Q1.63783 0.223026 1.7074 0.2926Q1.77697 0.362175 1.83164 0.443985Q1.8863 0.525796 1.92396 0.616699Q1.96161 0.707602 1.9808 0.804105Q2 0.900607 2 0.999L2 2.001Q2 2.09939 1.9808 2.19589Q1.96161 2.2924 1.92396 2.3833Q1.8863 2.4742 1.83164 2.55601Q1.77697 2.63783 1.7074 2.7074Q1.63783 2.77697 1.55601 2.83164Q1.4742 2.8863 1.3833 2.92396Q1.2924 2.96161 1.1959 2.9808Q1.09939 3 1.001 3L0.999 3Q0.900607 3 0.804105 2.9808Q0.707602 2.96161 0.616699 2.92396Q0.525796 2.8863 0.443985 2.83164Q0.362175 2.77697 0.2926 2.7074Q0.223026 2.63783 0.168362 2.55601Q0.113698 2.4742 0.0760443 2.3833Q0.038391 2.2924 0.0191955 2.19589Q0 2.09939 0 2.001L0 0.999Q0 0.900607 0.0191955 0.804105Q0.038391 0.707602 0.0760443 0.616699Q0.113698 0.525796 0.168362 0.443985Q0.223026 0.362175 0.2926 0.2926Q0.362175 0.223026 0.443985 0.168362Q0.525796 0.113698 0.616699 0.0760443Q0.707602 0.038391 0.804105 0.0191955Q0.900607 0 0.999 0Z" transform="translate(34 38)" id="Rectangle-Copy-6" fill="#AFB7C4" stroke="none" />
        <path d="M0.999 0L1.001 0Q1.09939 0 1.1959 0.0191955Q1.2924 0.038391 1.3833 0.0760443Q1.4742 0.113698 1.55601 0.168362Q1.63783 0.223026 1.7074 0.2926Q1.77697 0.362175 1.83164 0.443985Q1.8863 0.525796 1.92396 0.616699Q1.96161 0.707602 1.9808 0.804105Q2 0.900607 2 0.999L2 6.001Q2 6.09939 1.9808 6.1959Q1.96161 6.2924 1.92396 6.3833Q1.8863 6.47421 1.83164 6.55602Q1.77697 6.63783 1.7074 6.7074Q1.63783 6.77698 1.55601 6.83164Q1.4742 6.8863 1.3833 6.92396Q1.2924 6.96161 1.1959 6.98081Q1.09939 7 1.001 7L0.999 7Q0.900607 7 0.804105 6.98081Q0.707602 6.96161 0.616699 6.92396Q0.525796 6.8863 0.443985 6.83164Q0.362175 6.77697 0.2926 6.7074Q0.223026 6.63783 0.168362 6.55602Q0.113698 6.4742 0.0760443 6.3833Q0.038391 6.2924 0.0191955 6.1959Q0 6.09939 0 6.001L0 0.999Q0 0.900607 0.0191955 0.804105Q0.038391 0.707602 0.0760443 0.616699Q0.113698 0.525796 0.168362 0.443985Q0.223026 0.362175 0.2926 0.2926Q0.362175 0.223026 0.443985 0.168362Q0.525796 0.113698 0.616699 0.0760443Q0.707602 0.038391 0.804105 0.0191955Q0.900607 0 0.999 0Z" transform="matrix(0.70710677 0.70710677 -0.70710677 0.70710677 35 26.585787)" id="Rectangle-Copy" fill="#AFB7C4" stroke="none" />
        <path d="M0.999 0L1.001 0Q1.09939 0 1.1959 0.0191955Q1.2924 0.038391 1.3833 0.0760443Q1.4742 0.113698 1.55601 0.168362Q1.63783 0.223026 1.7074 0.2926Q1.77697 0.362175 1.83164 0.443985Q1.8863 0.525796 1.92396 0.616699Q1.96161 0.707602 1.9808 0.804105Q2 0.900607 2 0.999L2 6.001Q2 6.09939 1.9808 6.1959Q1.96161 6.2924 1.92396 6.3833Q1.8863 6.47421 1.83164 6.55602Q1.77697 6.63783 1.7074 6.7074Q1.63783 6.77698 1.55601 6.83164Q1.4742 6.8863 1.3833 6.92396Q1.2924 6.96161 1.1959 6.98081Q1.09939 7 1.001 7L0.999 7Q0.900607 7 0.804105 6.98081Q0.707602 6.96161 0.616699 6.92396Q0.525796 6.8863 0.443985 6.83164Q0.362175 6.77697 0.2926 6.7074Q0.223026 6.63783 0.168362 6.55602Q0.113698 6.4742 0.0760443 6.3833Q0.038391 6.2924 0.0191955 6.1959Q0 6.09939 0 6.001L0 0.999Q0 0.900607 0.0191955 0.804105Q0.038391 0.707602 0.0760443 0.616699Q0.113698 0.525796 0.168362 0.443985Q0.223026 0.362175 0.2926 0.2926Q0.362175 0.223026 0.443985 0.168362Q0.525796 0.113698 0.616699 0.0760443Q0.707602 0.038391 0.804105 0.0191955Q0.900607 0 0.999 0Z" transform="matrix(0.70710677 -0.70710677 0.70710677 0.70710677 33.58579 28)" id="Rectangle-Copy-2" fill="#AFB7C4" stroke="none" />
        <path d="M2.5 5C3.88071 5 5 3.88071 5 2.5C5 1.11929 3.88071 0 2.5 0C1.11929 0 0 1.11929 0 2.5C0 3.88071 1.11929 5 2.5 5Z" transform="translate(26 13)" id="Oval" fill="#AFB7C4" stroke="none" />
        <path d="M0.999 0L1.001 0Q1.09939 0 1.1959 0.0191955Q1.2924 0.038391 1.3833 0.0760443Q1.4742 0.113698 1.55601 0.168362Q1.63783 0.223026 1.7074 0.2926Q1.77697 0.362175 1.83164 0.443985Q1.8863 0.525796 1.92396 0.616699Q1.96161 0.707602 1.9808 0.804105Q2 0.900607 2 0.999L2 15.001Q2 15.0994 1.9808 15.1959Q1.96161 15.2924 1.92396 15.3833Q1.8863 15.4742 1.83164 15.556Q1.77697 15.6378 1.7074 15.7074Q1.63783 15.777 1.55601 15.8316Q1.4742 15.8863 1.3833 15.9239Q1.2924 15.9616 1.1959 15.9808Q1.09939 16 1.001 16L0.999 16Q0.900607 16 0.804105 15.9808Q0.707602 15.9616 0.616699 15.9239Q0.525796 15.8863 0.443985 15.8316Q0.362175 15.777 0.2926 15.7074Q0.223026 15.6378 0.168362 15.556Q0.113698 15.4742 0.0760443 15.3833Q0.038391 15.2924 0.0191955 15.1959Q0 15.0994 0 15.001L0 0.999Q0 0.900607 0.0191955 0.804105Q0.038391 0.707602 0.0760443 0.616699Q0.113698 0.525796 0.168362 0.443985Q0.223026 0.362175 0.2926 0.2926Q0.362175 0.223026 0.443985 0.168362Q0.525796 0.113698 0.616699 0.0760443Q0.707602 0.038391 0.804105 0.0191955Q0.900607 0 0.999 0Z" transform="matrix(0.76604444 -0.6427876 0.6427876 0.76604444 11.567463 19.893608)" id="Rectangle" fill="#AFB7C4" stroke="none" />
        <path d="M0.999 0L1.001 0Q1.09939 0 1.1959 0.0191955Q1.2924 0.038391 1.3833 0.0760443Q1.4742 0.113698 1.55601 0.168362Q1.63783 0.223026 1.7074 0.2926Q1.77697 0.362175 1.83164 0.443985Q1.8863 0.525796 1.92396 0.616699Q1.96161 0.707602 1.9808 0.804105Q2 0.900607 2 0.999L2 4.001Q2 4.09939 1.9808 4.19589Q1.96161 4.2924 1.92396 4.3833Q1.8863 4.4742 1.83164 4.55601Q1.77697 4.63782 1.7074 4.7074Q1.63783 4.77697 1.55601 4.83164Q1.4742 4.8863 1.3833 4.92395Q1.2924 4.96161 1.1959 4.9808Q1.09939 5 1.001 5L0.999 5Q0.900607 5 0.804105 4.9808Q0.707602 4.96161 0.616699 4.92395Q0.525796 4.8863 0.443985 4.83164Q0.362175 4.77697 0.2926 4.7074Q0.223026 4.63782 0.168362 4.55601Q0.113698 4.4742 0.0760443 4.3833Q0.038391 4.2924 0.0191955 4.19589Q0 4.09939 0 4.001L0 0.999Q0 0.900607 0.0191955 0.804105Q0.038391 0.707602 0.0760443 0.616699Q0.113698 0.525796 0.168362 0.443985Q0.223026 0.362175 0.2926 0.2926Q0.362175 0.223026 0.443985 0.168362Q0.525796 0.113698 0.616699 0.0760443Q0.707602 0.038391 0.804105 0.0191955Q0.900607 0 0.999 0Z" transform="matrix(0.76604444 -0.6427876 0.6427876 0.76604444 20.567467 21.893606)" id="Rectangle-Copy-4" fill="#AFB7C4" stroke="none" />
        <path d="M0.999 0L1.001 0Q1.09939 0 1.1959 0.0191955Q1.2924 0.038391 1.3833 0.0760443Q1.4742 0.113698 1.55601 0.168362Q1.63783 0.223026 1.7074 0.2926Q1.77697 0.362175 1.83164 0.443985Q1.8863 0.525796 1.92396 0.616699Q1.96161 0.707602 1.9808 0.804105Q2 0.900607 2 0.999L2 7.001Q2 7.09939 1.9808 7.19589Q1.96161 7.2924 1.92396 7.3833Q1.8863 7.4742 1.83164 7.55601Q1.77697 7.63782 1.7074 7.7074Q1.63783 7.77697 1.55601 7.83164Q1.4742 7.8863 1.3833 7.92395Q1.2924 7.96161 1.1959 7.9808Q1.09939 8 1.001 8L0.999 8Q0.900607 8 0.804105 7.9808Q0.707602 7.96161 0.616699 7.92395Q0.525796 7.8863 0.443985 7.83164Q0.362175 7.77697 0.2926 7.7074Q0.223026 7.63782 0.168362 7.55601Q0.113698 7.4742 0.0760443 7.3833Q0.038391 7.2924 0.0191955 7.19589Q0 7.09939 0 7.001L0 0.999Q0 0.900607 0.0191955 0.804105Q0.038391 0.707602 0.0760443 0.616699Q0.113698 0.525796 0.168362 0.443985Q0.223026 0.362175 0.2926 0.2926Q0.362175 0.223026 0.443985 0.168362Q0.525796 0.113698 0.616699 0.0760443Q0.707602 0.038391 0.804105 0.0191955Q0.900607 0 0.999 0Z" transform="matrix(0.70710677 0.70710677 -0.70710677 0.70710677 13.009321 18.594398)" id="Rectangle-Copy-3" fill="#AFB7C4" stroke="none" />
        <path d="M0.999 0L1.001 0Q1.09939 0 1.1959 0.0191955Q1.2924 0.038391 1.3833 0.0760443Q1.4742 0.113698 1.55601 0.168362Q1.63783 0.223026 1.7074 0.2926Q1.77697 0.362175 1.83164 0.443985Q1.8863 0.525796 1.92396 0.616699Q1.96161 0.707602 1.9808 0.804105Q2 0.900607 2 0.999L2 3.001Q2 3.09939 1.9808 3.19589Q1.96161 3.2924 1.92396 3.3833Q1.8863 3.4742 1.83164 3.55601Q1.77697 3.63783 1.7074 3.7074Q1.63783 3.77697 1.55601 3.83164Q1.4742 3.8863 1.3833 3.92396Q1.2924 3.96161 1.1959 3.9808Q1.09939 4 1.001 4L0.999 4Q0.900607 4 0.804105 3.9808Q0.707602 3.96161 0.616699 3.92396Q0.525796 3.8863 0.443985 3.83164Q0.362175 3.77697 0.2926 3.7074Q0.223026 3.63783 0.168362 3.55601Q0.113698 3.4742 0.0760443 3.3833Q0.038391 3.2924 0.0191955 3.19589Q0 3.09939 0 3.001L0 0.999Q0 0.900607 0.0191955 0.804105Q0.038391 0.707602 0.0760443 0.616699Q0.113698 0.525796 0.168362 0.443985Q0.223026 0.362175 0.2926 0.2926Q0.362175 0.223026 0.443985 0.168362Q0.525796 0.113698 0.616699 0.0760443Q0.707602 0.038391 0.804105 0.0191955Q0.900607 0 0.999 0Z" transform="matrix(0.70710677 0.70710677 -0.70710677 0.70710677 22.009323 20.594397)" id="Rectangle-Copy-5" fill="#AFB7C4" stroke="none" />
    </g>
</svg>