<svg width="17px" height="17px" viewBox="0 0 17 17" version="1.1" xmlns:xlink="http://www.w3.org/1999/xlink" xmlns="http://www.w3.org/2000/svg">
    <path d="M7 0C10.866 0 14 3.13401 14 7C14 8.57592 13.4792 10.0302 12.6004 11.2002C12.6041 11.203 12.6079 11.2058 12.6116 11.2087L12.7059 11.2917L15.7255 14.3011C16.1166 14.691 16.1177 15.3242 15.7278 15.7153C15.368 16.0764 14.8008 16.1051 14.408 15.8007L14.3136 15.7177L11.2941 12.7083C11.2598 12.6741 11.2285 12.638 11.2001 12.6004C10.0302 13.4792 8.57591 14 7 14C3.13401 14 0 10.866 0 7C0 3.13401 3.13401 0 7 0ZM7 2C4.23858 2 2 4.23858 2 7C2 9.76142 4.23858 12 7 12C9.76142 12 12 9.76142 12 7C12 4.23858 9.76142 2 7 2Z" id="search" fill-rule="evenodd" stroke="none" />
</svg>