<svg width="24px" height="24px" viewBox="0 0 24 24" version="1.1" xmlns="http://www.w3.org/2000/svg" xmlns:xlink="http://www.w3.org/1999/xlink">
    <g id="Icons/Glyphs/Login/24px/Outline" stroke="none" stroke-width="1" fill="none" fill-rule="evenodd">
        <path d="M12,5 C9.790861,5 8,6.790861 8,9 C8,11.209139 9.790861,13 12,13 C14.209139,13 16,11.209139 16,9 C16,6.790861 14.209139,5 12,5 Z M12,7 C13.1045695,7 14,7.8954305 14,9 C14,10.1045695 13.1045695,11 12,11 C10.8954305,11 10,10.1045695 10,9 C10,7.8954305 10.8954305,7 12,7 Z M12,14.000524 C14.9911743,14.000524 17.3080901,15.1594079 18.8349845,17.448224 C19.1414783,17.9076585 19.0174954,18.528566 18.5580609,18.8350597 C18.0986265,19.1415535 17.477719,19.0175706 17.1712252,18.5581361 C16.0273131,16.8434109 14.342159,16.000524 12,16.000524 C9.65926308,16.000524 7.98299294,16.8420333 6.85344362,18.5539215 C6.54927756,19.0149003 5.92900509,19.1420221 5.4680263,18.837856 C5.0070475,18.53369 4.87992567,17.9134175 5.18409174,17.4524387 C6.69618552,15.1607854 9.00740358,14.000524 12,14.000524 Z" id="Combined-Shape" fill-rule="nonzero"></path>
    </g>
</svg>