<svg width="24px" height="24px" viewBox="0 0 24 24" version="1.1" xmlns:xlink="http://www.w3.org/1999/xlink" xmlns="http://www.w3.org/2000/svg">
    <path d="M14.9708 0C15.4837 0 15.9063 0.38604 15.9641 0.883379L15.9708 1L15.9708 3C15.9708 4.59768 14.7219 5.90366 13.1471 5.99491L12.9708 6L3 6C1.40232 6 0.0963391 4.75108 0.00509269 3.17627L0 3L0 1C0 0.447715 0.447715 0 1 0C1.51284 0 1.93551 0.38604 1.99327 0.883379L2 1L2 3C2 3.51284 2.38604 3.93551 2.88338 3.99327L3 4L12.9708 4C13.4837 4 13.9063 3.61396 13.9641 3.11662L13.9708 3L13.9708 1C13.9708 0.447715 14.4186 0 14.9708 0Z" transform="translate(4.0414667 14)" id="Combined-Shape" stroke="none" />
    <g id="Group" transform="matrix(1 0 0 -1 7.0502524 14.014214)">
        <path d="M0.999 0L1.001 0Q1.09939 0 1.1959 0.0191955Q1.2924 0.038391 1.3833 0.0760443Q1.4742 0.113698 1.55601 0.168362Q1.63783 0.223026 1.7074 0.2926Q1.77697 0.362175 1.83164 0.443985Q1.8863 0.525796 1.92396 0.616699Q1.96161 0.707602 1.9808 0.804105Q2 0.900607 2 0.999L2 9.001Q2 9.09939 1.9808 9.1959Q1.96161 9.2924 1.92396 9.3833Q1.8863 9.4742 1.83164 9.55602Q1.77697 9.63783 1.7074 9.7074Q1.63783 9.77697 1.55601 9.83164Q1.4742 9.8863 1.3833 9.92395Q1.2924 9.96161 1.1959 9.9808Q1.09939 10 1.001 10L0.999 10Q0.900607 10 0.804105 9.9808Q0.707602 9.96161 0.616699 9.92395Q0.525796 9.8863 0.443985 9.83164Q0.362175 9.77697 0.2926 9.7074Q0.223026 9.63783 0.168362 9.55602Q0.113698 9.4742 0.0760443 9.3833Q0.038391 9.2924 0.0191955 9.1959Q0 9.09939 0 9.001L0 0.999Q0 0.900607 0.0191955 0.804105Q0.038391 0.707602 0.0760443 0.616699Q0.113698 0.525796 0.168362 0.443985Q0.223026 0.362175 0.2926 0.2926Q0.362175 0.223026 0.443985 0.168362Q0.525796 0.113698 0.616699 0.0760443Q0.707602 0.038391 0.804105 0.0191955Q0.900607 0 0.999 0Z" transform="translate(3.9497476 0)" id="Rectangle-Copy" stroke="none" />
        <path d="M0.999 0L1.001 0Q1.09939 0 1.1959 0.0191955Q1.2924 0.038391 1.3833 0.0760443Q1.4742 0.113698 1.55601 0.168362Q1.63783 0.223026 1.7074 0.2926Q1.77697 0.362175 1.83164 0.443985Q1.8863 0.525796 1.92396 0.616699Q1.96161 0.707602 1.9808 0.804105Q2 0.900607 2 0.999L2 6.001Q2 6.09939 1.9808 6.19589Q1.96161 6.2924 1.92396 6.3833Q1.8863 6.4742 1.83164 6.55601Q1.77697 6.63782 1.7074 6.7074Q1.63783 6.77697 1.55601 6.83164Q1.4742 6.8863 1.3833 6.92395Q1.2924 6.96161 1.1959 6.9808Q1.09939 7 1.001 7L0.999 7Q0.900607 7 0.804105 6.9808Q0.707602 6.96161 0.616699 6.92395Q0.525796 6.8863 0.443985 6.83164Q0.362175 6.77697 0.2926 6.7074Q0.223026 6.63782 0.168362 6.55601Q0.113698 6.4742 0.0760443 6.3833Q0.038391 6.2924 0.0191955 6.19589Q0 6.09939 0 6.001L0 0.999Q0 0.900607 0.0191955 0.804105Q0.038391 0.707602 0.0760443 0.616699Q0.113698 0.525796 0.168362 0.443985Q0.223026 0.362175 0.2926 0.2926Q0.362175 0.223026 0.443985 0.168362Q0.525796 0.113698 0.616699 0.0760443Q0.707602 0.038391 0.804105 0.0191955Q0.900607 0 0.999 0Z" transform="matrix(0.70710677 0.70710677 -0.70710677 0.70710677 8.485281 4.0502524)" id="Rectangle-Copy-2" stroke="none" />
        <path d="M0.999 0L1.001 0Q1.09939 0 1.1959 0.0191955Q1.2924 0.038391 1.3833 0.0760443Q1.4742 0.113698 1.55601 0.168362Q1.63783 0.223026 1.7074 0.2926Q1.77697 0.362175 1.83164 0.443985Q1.8863 0.525796 1.92396 0.616699Q1.96161 0.707602 1.9808 0.804105Q2 0.900607 2 0.999L2 6.001Q2 6.09939 1.9808 6.19589Q1.96161 6.2924 1.92396 6.3833Q1.8863 6.4742 1.83164 6.55601Q1.77697 6.63782 1.7074 6.7074Q1.63783 6.77697 1.55601 6.83164Q1.4742 6.8863 1.3833 6.92395Q1.2924 6.96161 1.1959 6.9808Q1.09939 7 1.001 7L0.999 7Q0.900607 7 0.804105 6.9808Q0.707602 6.96161 0.616699 6.92395Q0.525796 6.8863 0.443985 6.83164Q0.362175 6.77697 0.2926 6.7074Q0.223026 6.63782 0.168362 6.55601Q0.113698 6.4742 0.0760443 6.3833Q0.038391 6.2924 0.0191955 6.19589Q0 6.09939 0 6.001L0 0.999Q0 0.900607 0.0191955 0.804105Q0.038391 0.707602 0.0760443 0.616699Q0.113698 0.525796 0.168362 0.443985Q0.223026 0.362175 0.2926 0.2926Q0.362175 0.223026 0.443985 0.168362Q0.525796 0.113698 0.616699 0.0760443Q0.707602 0.038391 0.804105 0.0191955Q0.900607 0 0.999 0Z" transform="matrix(0.70710677 -0.70710677 0.70710677 0.70710677 0 5.464466)" id="Rectangle-Copy-3" stroke="none" />
    </g>
</svg>