<svg width="48px" height="48px" viewBox="0 0 48 48" version="1.1" xmlns:xlink="http://www.w3.org/1999/xlink" xmlns="http://www.w3.org/2000/svg">
    <g id="Icons/Big/Upload">
        <path d="M12.9644 32L2.999 32Q2.85167 32 2.70505 31.9856Q2.55842 31.9711 2.41392 31.9424Q2.26942 31.9136 2.12844 31.8709Q1.98745 31.8281 1.85133 31.7717Q1.71522 31.7153 1.58528 31.6459Q1.45535 31.5764 1.33284 31.4946Q1.21034 31.4127 1.09645 31.3193Q0.982566 31.2258 0.878387 31.1216Q0.774208 31.0174 0.680742 30.9035Q0.587276 30.7897 0.505423 30.6672Q0.42357 30.5447 0.354118 30.4147Q0.284667 30.2848 0.228285 30.1487Q0.171904 30.0126 0.129136 29.8716Q0.0863679 29.7306 0.0576249 29.5861Q0.028882 29.4416 0.014441 29.295Q0 29.1483 0 29.001L0 18.0923L0 2.999Q0 2.85167 0.014441 2.70505Q0.028882 2.55842 0.0576249 2.41392Q0.0863679 2.26942 0.129136 2.12844Q0.171904 1.98745 0.228285 1.85133Q0.284667 1.71522 0.354118 1.58528Q0.42357 1.45535 0.505423 1.33284Q0.587276 1.21034 0.680742 1.09645Q0.774208 0.982566 0.878387 0.878387Q0.982566 0.774208 1.09645 0.680742Q1.21034 0.587276 1.33284 0.505423Q1.45535 0.42357 1.58528 0.354118Q1.71522 0.284667 1.85133 0.228285Q1.98745 0.171904 2.12844 0.129136Q2.26942 0.0863679 2.41392 0.0576249Q2.55842 0.028882 2.70505 0.014441Q2.85167 4.79214e-15 2.999 5.03972e-15L19.0271 3.19744e-14L25 5.94715L25 9.04769" transform="translate(7 8)" id="Path-9" fill="none" stroke="#20BCEA" stroke-width="2" stroke-linecap="round" stroke-linejoin="round" />
        <path d="M12.2954 18C12.8062 17.8225 13.2966 17.6014 13.7622 17.3413C14.5142 16.9213 15.2015 16.3995 15.8055 15.7944C17.4772 14.12 18.5108 11.8084 18.5108 9.25541C18.5108 6.70352 17.4781 4.39284 15.8077 2.71856C14.1322 1.03913 11.8151 0 9.25541 0C6.7226 0 4.42741 1.01738 2.75622 2.66578C1.05468 4.34412 0 6.6766 0 9.25541C0 10.1937 0.139633 11.0994 0.399254 11.9529C0.555088 12.4652 0.754151 12.9586 0.992196 13.429" transform="matrix(0.92718387 -0.37460658 0.37460658 0.92718387 19.964373 25.934277)" id="Oval" fill="none" stroke="#3F6ADA" stroke-width="2" stroke-linecap="round" />
        <path d="M0.999 0L1.001 0Q1.09939 0 1.1959 0.0191955Q1.2924 0.038391 1.3833 0.0760443Q1.4742 0.113698 1.55601 0.168362Q1.63783 0.223026 1.7074 0.2926Q1.77697 0.362175 1.83164 0.443985Q1.8863 0.525796 1.92396 0.616699Q1.96161 0.707602 1.9808 0.804105Q2 0.900607 2 0.999L2 9.001Q2 9.09939 1.9808 9.1959Q1.96161 9.2924 1.92396 9.3833Q1.8863 9.4742 1.83164 9.55602Q1.77697 9.63783 1.7074 9.7074Q1.63783 9.77697 1.55601 9.83164Q1.4742 9.8863 1.3833 9.92395Q1.2924 9.96161 1.1959 9.9808Q1.09939 10 1.001 10L0.999 10Q0.900607 10 0.804105 9.9808Q0.707602 9.96161 0.616699 9.92395Q0.525796 9.8863 0.443985 9.83164Q0.362175 9.77697 0.2926 9.7074Q0.223026 9.63783 0.168362 9.55602Q0.113698 9.4742 0.0760443 9.3833Q0.038391 9.2924 0.0191955 9.1959Q0 9.09939 0 9.001L0 0.999Q0 0.900607 0.0191955 0.804105Q0.038391 0.707602 0.0760443 0.616699Q0.113698 0.525796 0.168362 0.443985Q0.223026 0.362175 0.2926 0.2926Q0.362175 0.223026 0.443985 0.168362Q0.525796 0.113698 0.616699 0.0760443Q0.707602 0.038391 0.804105 0.0191955Q0.900607 0 0.999 0Z" transform="translate(31 27)" id="Rectangle" fill="#3F6ADA" stroke="none" />
        <path d="M0.999 0L1.001 0Q1.09939 0 1.1959 0.0191955Q1.2924 0.038391 1.3833 0.0760443Q1.4742 0.113698 1.55601 0.168362Q1.63783 0.223026 1.7074 0.2926Q1.77697 0.362175 1.83164 0.443985Q1.8863 0.525796 1.92396 0.616699Q1.96161 0.707602 1.9808 0.804105Q2 0.900607 2 0.999L2 2.001Q2 2.09939 1.9808 2.19589Q1.96161 2.2924 1.92396 2.3833Q1.8863 2.4742 1.83164 2.55601Q1.77697 2.63783 1.7074 2.7074Q1.63783 2.77697 1.55601 2.83164Q1.4742 2.8863 1.3833 2.92396Q1.2924 2.96161 1.1959 2.9808Q1.09939 3 1.001 3L0.999 3Q0.900607 3 0.804105 2.9808Q0.707602 2.96161 0.616699 2.92396Q0.525796 2.8863 0.443985 2.83164Q0.362175 2.77697 0.2926 2.7074Q0.223026 2.63783 0.168362 2.55601Q0.113698 2.4742 0.0760443 2.3833Q0.038391 2.2924 0.0191955 2.19589Q0 2.09939 0 2.001L0 0.999Q0 0.900607 0.0191955 0.804105Q0.038391 0.707602 0.0760443 0.616699Q0.113698 0.525796 0.168362 0.443985Q0.223026 0.362175 0.2926 0.2926Q0.362175 0.223026 0.443985 0.168362Q0.525796 0.113698 0.616699 0.0760443Q0.707602 0.038391 0.804105 0.0191955Q0.900607 0 0.999 0Z" transform="translate(31 38)" id="Rectangle-Copy-6" fill="#3F6ADA" stroke="none" />
        <path d="M0.999 0L1.001 0Q1.09939 0 1.1959 0.0191955Q1.2924 0.038391 1.3833 0.0760443Q1.4742 0.113698 1.55601 0.168362Q1.63783 0.223026 1.7074 0.2926Q1.77697 0.362175 1.83164 0.443985Q1.8863 0.525796 1.92396 0.616699Q1.96161 0.707602 1.9808 0.804105Q2 0.900607 2 0.999L2 6.001Q2 6.09939 1.9808 6.1959Q1.96161 6.2924 1.92396 6.3833Q1.8863 6.47421 1.83164 6.55602Q1.77697 6.63783 1.7074 6.7074Q1.63783 6.77698 1.55601 6.83164Q1.4742 6.8863 1.3833 6.92396Q1.2924 6.96161 1.1959 6.98081Q1.09939 7 1.001 7L0.999 7Q0.900607 7 0.804105 6.98081Q0.707602 6.96161 0.616699 6.92396Q0.525796 6.8863 0.443985 6.83164Q0.362175 6.77697 0.2926 6.7074Q0.223026 6.63783 0.168362 6.55602Q0.113698 6.4742 0.0760443 6.3833Q0.038391 6.2924 0.0191955 6.1959Q0 6.09939 0 6.001L0 0.999Q0 0.900607 0.0191955 0.804105Q0.038391 0.707602 0.0760443 0.616699Q0.113698 0.525796 0.168362 0.443985Q0.223026 0.362175 0.2926 0.2926Q0.362175 0.223026 0.443985 0.168362Q0.525796 0.113698 0.616699 0.0760443Q0.707602 0.038391 0.804105 0.0191955Q0.900607 0 0.999 0Z" transform="matrix(0.70710677 0.70710677 -0.70710677 0.70710677 31.999998 26.585787)" id="Rectangle-Copy" fill="#3F6ADA" stroke="none" />
        <path d="M0.999 0L1.001 0Q1.09939 0 1.1959 0.0191955Q1.2924 0.038391 1.3833 0.0760443Q1.4742 0.113698 1.55601 0.168362Q1.63783 0.223026 1.7074 0.2926Q1.77697 0.362175 1.83164 0.443985Q1.8863 0.525796 1.92396 0.616699Q1.96161 0.707602 1.9808 0.804105Q2 0.900607 2 0.999L2 6.001Q2 6.09939 1.9808 6.1959Q1.96161 6.2924 1.92396 6.3833Q1.8863 6.47421 1.83164 6.55602Q1.77697 6.63783 1.7074 6.7074Q1.63783 6.77698 1.55601 6.83164Q1.4742 6.8863 1.3833 6.92396Q1.2924 6.96161 1.1959 6.98081Q1.09939 7 1.001 7L0.999 7Q0.900607 7 0.804105 6.98081Q0.707602 6.96161 0.616699 6.92396Q0.525796 6.8863 0.443985 6.83164Q0.362175 6.77697 0.2926 6.7074Q0.223026 6.63783 0.168362 6.55602Q0.113698 6.4742 0.0760443 6.3833Q0.038391 6.2924 0.0191955 6.1959Q0 6.09939 0 6.001L0 0.999Q0 0.900607 0.0191955 0.804105Q0.038391 0.707602 0.0760443 0.616699Q0.113698 0.525796 0.168362 0.443985Q0.223026 0.362175 0.2926 0.2926Q0.362175 0.223026 0.443985 0.168362Q0.525796 0.113698 0.616699 0.0760443Q0.707602 0.038391 0.804105 0.0191955Q0.900607 0 0.999 0Z" transform="matrix(0.70710677 -0.70710677 0.70710677 0.70710677 30.585789 28)" id="Rectangle-Copy-2" fill="#3F6ADA" stroke="none" />
        <path d="M0 0L0 5.001Q0 5.0992 0.00962573 5.19694Q0.0192515 5.29467 0.0384102 5.39099Q0.057569 5.4873 0.0860763 5.58128Q0.114584 5.67525 0.152165 5.76598Q0.189746 5.85671 0.236039 5.94332Q0.282333 6.02993 0.336892 6.11158Q0.391452 6.19324 0.453752 6.26915Q0.516052 6.34507 0.585494 6.41451Q0.654935 6.48395 0.730848 6.54625Q0.806761 6.60855 0.888415 6.66311Q0.970069 6.71767 1.05668 6.76396Q1.14329 6.81025 1.23402 6.84783Q1.32474 6.88542 1.41872 6.91392Q1.5127 6.94243 1.60901 6.96159Q1.70533 6.98075 1.80306 6.99037Q1.9008 7 1.999 7L6.95428 7L6.95428 5.89005L1.06423 0L0 0Z" transform="translate(25.045717 8)" id="Path-10" fill="#20BCEA" stroke="none" />
        <path d="M0.999 0L5.001 0Q5.09939 0 5.19589 0.0191955Q5.2924 0.038391 5.3833 0.0760443Q5.4742 0.113698 5.55601 0.168362Q5.63782 0.223026 5.7074 0.2926Q5.77697 0.362175 5.83164 0.443985Q5.8863 0.525796 5.92395 0.616699Q5.96161 0.707602 5.9808 0.804105Q6 0.900607 6 0.999L6 1.001Q6 1.09939 5.9808 1.1959Q5.96161 1.2924 5.92395 1.3833Q5.8863 1.4742 5.83164 1.55601Q5.77697 1.63783 5.7074 1.7074Q5.63782 1.77697 5.55601 1.83164Q5.4742 1.8863 5.3833 1.92396Q5.2924 1.96161 5.19589 1.9808Q5.09939 2 5.001 2L0.999 2Q0.900607 2 0.804105 1.9808Q0.707602 1.96161 0.616699 1.92396Q0.525796 1.8863 0.443985 1.83164Q0.362175 1.77697 0.2926 1.7074Q0.223026 1.63783 0.168362 1.55601Q0.113698 1.4742 0.0760443 1.3833Q0.038391 1.2924 0.0191955 1.1959Q0 1.09939 0 1.001L0 0.999Q0 0.900607 0.0191955 0.804105Q0.038391 0.707602 0.0760443 0.616699Q0.113698 0.525796 0.168362 0.443985Q0.223026 0.362175 0.2926 0.2926Q0.362175 0.223026 0.443985 0.168362Q0.525796 0.113698 0.616699 0.0760443Q0.707602 0.038391 0.804105 0.0191955Q0.900607 0 0.999 0Z" transform="translate(12 16)" id="Rectangle" fill="#20BCEA" stroke="none" />
        <path d="M0.999 0L10.001 0Q10.0994 0 10.1959 0.0191955Q10.2924 0.038391 10.3833 0.0760443Q10.4742 0.113698 10.556 0.168362Q10.6378 0.223026 10.7074 0.2926Q10.777 0.362175 10.8316 0.443985Q10.8863 0.525796 10.924 0.616699Q10.9616 0.707602 10.9808 0.804105Q11 0.900607 11 0.999L11 1.001Q11 1.09939 10.9808 1.1959Q10.9616 1.2924 10.924 1.3833Q10.8863 1.4742 10.8316 1.55601Q10.777 1.63783 10.7074 1.7074Q10.6378 1.77697 10.556 1.83164Q10.4742 1.8863 10.3833 1.92396Q10.2924 1.96161 10.1959 1.9808Q10.0994 2 10.001 2L0.999 2Q0.900607 2 0.804105 1.9808Q0.707602 1.96161 0.616699 1.92396Q0.525796 1.8863 0.443985 1.83164Q0.362175 1.77697 0.2926 1.7074Q0.223026 1.63783 0.168362 1.55601Q0.113698 1.4742 0.0760443 1.3833Q0.038391 1.2924 0.0191955 1.1959Q0 1.09939 0 1.001L0 0.999Q0 0.900607 0.0191955 0.804105Q0.038391 0.707602 0.0760443 0.616699Q0.113698 0.525796 0.168362 0.443985Q0.223026 0.362175 0.2926 0.2926Q0.362175 0.223026 0.443985 0.168362Q0.525796 0.113698 0.616699 0.0760443Q0.707602 0.038391 0.804105 0.0191955Q0.900607 0 0.999 0Z" transform="translate(12 20)" id="Rectangle-Copy-3" fill="#20BCEA" stroke="none" />
        <path d="M0.999 0L6.001 0Q6.09939 0 6.19589 0.0191955Q6.2924 0.038391 6.3833 0.0760443Q6.4742 0.113698 6.55601 0.168362Q6.63782 0.223026 6.7074 0.2926Q6.77697 0.362175 6.83164 0.443985Q6.8863 0.525796 6.92395 0.616699Q6.96161 0.707602 6.9808 0.804105Q7 0.900607 7 0.999L7 1.001Q7 1.09939 6.9808 1.1959Q6.96161 1.2924 6.92395 1.3833Q6.8863 1.4742 6.83164 1.55601Q6.77697 1.63783 6.7074 1.7074Q6.63782 1.77697 6.55601 1.83164Q6.4742 1.8863 6.3833 1.92396Q6.2924 1.96161 6.19589 1.9808Q6.09939 2 6.001 2L0.999 2Q0.900607 2 0.804105 1.9808Q0.707602 1.96161 0.616699 1.92396Q0.525796 1.8863 0.443985 1.83164Q0.362175 1.77697 0.2926 1.7074Q0.223026 1.63783 0.168362 1.55601Q0.113698 1.4742 0.0760443 1.3833Q0.038391 1.2924 0.0191955 1.1959Q0 1.09939 0 1.001L0 0.999Q0 0.900607 0.0191955 0.804105Q0.038391 0.707602 0.0760443 0.616699Q0.113698 0.525796 0.168362 0.443985Q0.223026 0.362175 0.2926 0.2926Q0.362175 0.223026 0.443985 0.168362Q0.525796 0.113698 0.616699 0.0760443Q0.707602 0.038391 0.804105 0.0191955Q0.900607 0 0.999 0L0.999 0Z" transform="translate(12 24)" id="Rectangle-Copy-4" fill="#20BCEA" stroke="none" />
        <path d="M0.999 0L5.001 0Q5.09939 0 5.19589 0.0191955Q5.2924 0.038391 5.3833 0.0760443Q5.4742 0.113698 5.55601 0.168362Q5.63782 0.223026 5.7074 0.2926Q5.77697 0.362175 5.83164 0.443985Q5.8863 0.525796 5.92395 0.616699Q5.96161 0.707602 5.9808 0.804105Q6 0.900607 6 0.999L6 1.001Q6 1.09939 5.9808 1.1959Q5.96161 1.2924 5.92395 1.3833Q5.8863 1.4742 5.83164 1.55601Q5.77697 1.63783 5.7074 1.7074Q5.63782 1.77697 5.55601 1.83164Q5.4742 1.8863 5.3833 1.92396Q5.2924 1.96161 5.19589 1.9808Q5.09939 2 5.001 2L0.999 2Q0.900607 2 0.804105 1.9808Q0.707602 1.96161 0.616699 1.92396Q0.525796 1.8863 0.443985 1.83164Q0.362175 1.77697 0.2926 1.7074Q0.223026 1.63783 0.168362 1.55601Q0.113698 1.4742 0.0760443 1.3833Q0.038391 1.2924 0.0191955 1.1959Q0 1.09939 0 1.001L0 0.999Q0 0.900607 0.0191955 0.804105Q0.038391 0.707602 0.0760443 0.616699Q0.113698 0.525796 0.168362 0.443985Q0.223026 0.362175 0.2926 0.2926Q0.362175 0.223026 0.443985 0.168362Q0.525796 0.113698 0.616699 0.0760443Q0.707602 0.038391 0.804105 0.0191955Q0.900607 0 0.999 0Z" transform="translate(12 28)" id="Rectangle-Copy-5" fill="#20BCEA" stroke="none" />
    </g>
</svg>