<svg width="12px" height="12px" viewBox="0 0 12 12" version="1.1" xmlns:xlink="http://www.w3.org/1999/xlink" xmlns="http://www.w3.org/2000/svg">
    <path d="M12 6C12 9.31371 9.31371 12 6 12C2.68629 12 0 9.31371 0 6C0 2.68629 2.68629 0 6 0C9.04957 0 11.5678 2.2751 11.9498 5.22058C11.9829 5.4757 12 5.73586 12 6ZM8.82795 3.17087L8.82936 3.17228Q8.96987 3.31279 9.04592 3.49638Q9.12196 3.67997 9.12196 3.87868Q9.12196 4.07739 9.04592 4.26098Q8.96987 4.44457 8.82936 4.58508L7.41444 6L8.82936 7.41492Q8.89893 7.4845 8.9536 7.56631Q9.00826 7.64812 9.04592 7.73902Q9.08357 7.82992 9.10277 7.92642Q9.12196 8.02293 9.12196 8.12132Q9.12196 8.21971 9.10277 8.31622Q9.08357 8.41272 9.04592 8.50362Q9.00826 8.59453 8.9536 8.67634Q8.89893 8.75815 8.82936 8.82772L8.82795 8.82914Q8.68743 8.96965 8.50385 9.04569Q8.32026 9.12174 8.12155 9.12174Q7.92283 9.12174 7.73925 9.04569Q7.55566 8.96965 7.41515 8.82914L6.00023 7.41422L4.58531 8.82914Q4.51573 8.89871 4.43392 8.95337Q4.35211 9.00804 4.26121 9.04569Q4.1703 9.08334 4.0738 9.10254Q3.9773 9.12174 3.87891 9.12174Q3.78051 9.12174 3.68401 9.10254Q3.58751 9.08334 3.4966 9.04569Q3.4057 9.00804 3.32389 8.95337Q3.24208 8.89871 3.17251 8.82914L3.17109 8.82772Q3.03058 8.68721 2.95454 8.50362Q2.87849 8.32003 2.87849 8.12132Q2.87849 7.92261 2.95454 7.73902Q3.03058 7.55543 3.17109 7.41492L4.58601 6L3.17109 4.58508Q3.10152 4.51551 3.04685 4.4337Q2.99219 4.35188 2.95454 4.26098Q2.91688 4.17008 2.89769 4.07358Q2.87849 3.97707 2.87849 3.87868Q2.87849 3.78029 2.89769 3.68379Q2.91688 3.58728 2.95454 3.49638Q2.99219 3.40548 3.04685 3.32367Q3.10152 3.24186 3.17109 3.17228L3.17251 3.17087Q3.31302 3.03036 3.49661 2.95431Q3.68019 2.87827 3.87891 2.87827Q4.07762 2.87827 4.26121 2.95431Q4.44479 3.03036 4.58531 3.17087L6.00023 4.58579L7.41515 3.17087Q7.48472 3.10129 7.56653 3.04663Q7.64834 2.99196 7.73924 2.95431Q7.83015 2.91666 7.92665 2.89746Q8.02315 2.87827 8.12155 2.87827Q8.21994 2.87827 8.31644 2.89746Q8.41294 2.91666 8.50385 2.95431Q8.59475 2.99196 8.67656 3.04663Q8.75837 3.10129 8.82795 3.17087Z" id="Combined-Shape" fill-rule="evenodd" stroke="none" />
</svg>