<?xml version="1.0" encoding="UTF-8"?>
<svg width="24px" height="24px" viewBox="0 0 24 24" version="1.1" xmlns="http://www.w3.org/2000/svg" xmlns:xlink="http://www.w3.org/1999/xlink">
    <title>Icons/Glyphs/Files/24px/Image</title>
    <defs>
        <linearGradient x1="48.0477547%" y1="66.4864868%" x2="50%" y2="2.27555911%" id="linearGradient-1">
            <stop stop-color="#DBE9F2" offset="0%"></stop>
            <stop stop-color="#FFFFFF" offset="100%"></stop>
        </linearGradient>
        <path d="M2,0 L14,0 C15.1045695,-2.02906125e-16 16,0.8954305 16,2 L16,12 C16,13.1045695 15.1045695,14 14,14 L2,14 C0.8954305,14 1.3527075e-16,13.1045695 0,12 L0,2 C-1.3527075e-16,0.8954305 0.8954305,2.02906125e-16 2,0 Z" id="path-2"></path>
    </defs>
    <g id="Icons/Glyphs/Files/24px/Image" stroke="none" stroke-width="1" fill="none" fill-rule="evenodd">
        <g id="Triangle-+-Triangle-Copy-Mask" transform="translate(4.000000, 5.000000)">
            <mask id="mask-3" fill="white">
                <use xlink:href="#path-2"></use>
            </mask>
            <path stroke="#C7DBEA" d="M14,0.5 C14.4142136,0.5 14.7892136,0.667893219 15.0606602,0.939339828 C15.3321068,1.21078644 15.5,1.58578644 15.5,2 L15.5,2 L15.5,12 C15.5,12.4142136 15.3321068,12.7892136 15.0606602,13.0606602 C14.7892136,13.3321068 14.4142136,13.5 14,13.5 L14,13.5 L2,13.5 C1.58578644,13.5 1.21078644,13.3321068 0.939339828,13.0606602 C0.667893219,12.7892136 0.5,12.4142136 0.5,12 L0.5,12 L0.5,2 C0.5,1.58578644 0.667893219,1.21078644 0.939339828,0.939339828 C1.21078644,0.667893219 1.58578644,0.5 2,0.5 L2,0.5 Z"></path>
            <circle id="Oval" fill="#FFC200" mask="url(#mask-3)" cx="12" cy="4" r="2"></circle>
            <path d="M13.3841106,9.46093277 L16.6331797,13.3598156 C16.9867437,13.7840925 16.9294197,14.4146572 16.5051428,14.7682213 C16.3254278,14.9179838 16.0988949,15 15.8649584,15 L10.1350416,15 C9.58275686,15 9.13504161,14.5522847 9.13504161,14 C9.13504161,13.7660635 9.21705783,13.5395306 9.36682033,13.3598156 L12.6158894,9.46093277 C12.7926714,9.24879432 13.1079538,9.22013229 13.3200922,9.39691433 C13.3433237,9.41627394 13.364751,9.43770124 13.3841106,9.46093277 Z" id="Triangle-Copy" fill="#3F6ADA" mask="url(#mask-3)"></path>
            <path d="M6.39467611,7.50744071 L11.7447129,14.3860594 C12.0837829,14.8220066 12.0052484,15.4502822 11.5693013,15.7893522 C11.3937684,15.9258778 11.1777365,16 10.9553606,16 L1.04463936,16 C0.492354611,16 0.0446393612,15.5522847 0.0446393612,15 C0.0446393612,14.7776241 0.11876157,14.5615923 0.255287144,14.3860594 L5.60532389,7.50744071 C5.77485891,7.28946712 6.08899671,7.25019989 6.30697031,7.41973491 C6.3397325,7.44521662 6.3691944,7.47467852 6.39467611,7.50744071 Z" id="Triangle" fill="#4D79EC" mask="url(#mask-3)"></path>
        </g>
    </g>
</svg>