<?xml version="1.0" encoding="UTF-8"?>
<svg width="24px" height="24px" viewBox="0 0 24 24" version="1.1" xmlns="http://www.w3.org/2000/svg" xmlns:xlink="http://www.w3.org/1999/xlink">
    <title>Icons/Glyphs/Files/24px/JSON</title>
    <defs>
        <linearGradient x1="48.0477547%" y1="64.6386472%" x2="48.0477547%" y2="160.446942%" id="linearGradient-1">
            <stop stop-color="#DBE9F2" offset="0%"></stop>
            <stop stop-color="#91BBD8" offset="100%"></stop>
        </linearGradient>
    </defs>
    <g id="Icons/Glyphs/Files/24px/JSON" stroke="none" stroke-width="1" fill="none" fill-rule="evenodd">
        <path d="M7,3 L15,3 L15,3 L20,8 L20,20 C20,20.5522847 19.5522847,21 19,21 L7,21 C6.44771525,21 6,20.5522847 6,20 L6,4 C6,3.44771525 6.44771525,3 7,3 Z" id="Rectangle" fill="url(#linearGradient-1)"></path>
        <rect id="Rectangle" fill="#B58CC1" x="2" y="10" width="17" height="8" rx="2"></rect>
        <path d="M15,3 L15,7 C15,7.55228475 15.4477153,8 16,8 L20,8 L20,8 L15,3 Z" id="Path-8" fill="#2A3F64" opacity="0.315681003"></path>
        <path d="M4.64507042,16 C4.35211268,16 4.08169014,15.9502347 3.83380282,15.8507042 C3.58591549,15.7511737 3.38591549,15.6028169 3.23380282,15.4056338 C3.08169014,15.2084507 3.00375587,14.97277 3,14.6985915 C3,14.6647887 3.01126761,14.6356808 3.03380282,14.6112676 C3.05633803,14.5868545 3.08450704,14.5746479 3.11830986,14.5746479 L3.92394366,14.5746479 C3.97652582,14.5746479 4.01784038,14.5868545 4.04788732,14.6112676 C4.07793427,14.6356808 4.10234742,14.6760563 4.12112676,14.7323944 C4.18122066,15.0140845 4.36525822,15.1549296 4.67323944,15.1549296 C4.85352113,15.1549296 4.9915493,15.0957746 5.08732394,14.9774648 C5.18309859,14.8591549 5.23098592,14.6873239 5.23098592,14.4619718 L5.23098592,12.8732394 L4.67323944,12.8732394 C4.63568075,12.8732394 4.6028169,12.8591549 4.57464789,12.8309859 C4.54647887,12.8028169 4.53239437,12.7699531 4.53239437,12.7323944 L4.53239437,12.1408451 C4.53239437,12.0995305 4.54647887,12.0657277 4.57464789,12.0394366 C4.6028169,12.0131455 4.63568075,12 4.67323944,12 L6.17746479,12 C6.21877934,12 6.25352113,12.0140845 6.28169014,12.0422535 C6.30985915,12.0704225 6.32394366,12.1051643 6.32394366,12.1464789 L6.32394366,14.4957746 C6.32394366,14.8150235 6.25352113,15.0882629 6.11267606,15.315493 C5.97183099,15.542723 5.77464789,15.713615 5.52112676,15.828169 C5.26760563,15.942723 4.97558685,16 4.64507042,16 Z" id="Path" fill="#FFFFFF" fill-rule="nonzero"></path>
        <path d="M8.69444444,16 C8.33518519,16 8.02962963,15.9481481 7.77777778,15.8444444 C7.52592593,15.7407407 7.33518519,15.6037037 7.20555556,15.4333333 C7.07592593,15.262963 7.00740741,15.0777778 7,14.8777778 C7,14.8444444 7.01203704,14.8166667 7.03611111,14.7944444 C7.06018519,14.7722222 7.08888889,14.7611111 7.12222222,14.7611111 L7.86111111,14.7611111 C7.90555556,14.7611111 7.94166667,14.7685185 7.96944444,14.7833333 C7.99722222,14.7981481 8.02777778,14.8240741 8.06111111,14.8611111 C8.10925926,14.95 8.18425926,15.0231481 8.28611111,15.0805556 C8.38796296,15.137963 8.52407407,15.1666667 8.69444444,15.1666667 C8.89444444,15.1666667 9.04814815,15.1361111 9.15555556,15.075 C9.26296296,15.0138889 9.31666667,14.9296296 9.31666667,14.8222222 C9.31666667,14.7444444 9.28888889,14.6805556 9.23333333,14.6305556 C9.17777778,14.5805556 9.08888889,14.5361111 8.96666667,14.4972222 C8.84444444,14.4583333 8.66851852,14.4148148 8.43888889,14.3666667 C7.99074074,14.2777778 7.65555556,14.1425926 7.43333333,13.9611111 C7.21111111,13.7796296 7.1,13.5203704 7.1,13.1833333 C7.1,12.9537037 7.16388889,12.7490741 7.29166667,12.5694444 C7.41944444,12.3898148 7.60092593,12.25 7.83611111,12.15 C8.0712963,12.05 8.34444444,12 8.65555556,12 C8.98148148,12 9.26388889,12.0564815 9.50277778,12.1694444 C9.74166667,12.2824074 9.925,12.4231481 10.0527778,12.5916667 C10.1805556,12.7601852 10.2481481,12.9259259 10.2555556,13.0888889 C10.2555556,13.1222222 10.2444444,13.1509259 10.2222222,13.175 C10.2,13.1990741 10.1722222,13.2111111 10.1388889,13.2111111 L9.36111111,13.2111111 C9.27962963,13.2111111 9.21666667,13.1777778 9.17222222,13.1111111 C9.15,13.0333333 9.09259259,12.9675926 9,12.9138889 C8.90740741,12.8601852 8.79259259,12.8333333 8.65555556,12.8333333 C8.5,12.8333333 8.37962963,12.8611111 8.29444444,12.9166667 C8.20925926,12.9722222 8.16666667,13.0537037 8.16666667,13.1611111 C8.16666667,13.2685185 8.22222222,13.3527778 8.33333333,13.4138889 C8.44444444,13.475 8.65185185,13.537037 8.95555556,13.6 C9.3037037,13.662963 9.58055556,13.7416667 9.78611111,13.8361111 C9.99166667,13.9305556 10.1435185,14.0527778 10.2416667,14.2027778 C10.3398148,14.3527778 10.3888889,14.5425926 10.3888889,14.7722222 C10.3888889,15.0240741 10.3166667,15.2425926 10.1722222,15.4277778 C10.0277778,15.612963 9.82777778,15.7546296 9.57222222,15.8527778 C9.31666667,15.9509259 9.02407407,16 8.69444444,16 Z" id="Path" fill="#FFFFFF" fill-rule="nonzero"></path>
        <path d="M12.5333333,16 C12.0074074,16 11.5925926,15.8722222 11.2888889,15.6166667 C10.9851852,15.3611111 10.8240741,14.9851852 10.8055556,14.4888889 C10.8018519,14.3851852 10.8,14.2259259 10.8,14.0111111 C10.8,13.7962963 10.8018519,13.6351852 10.8055556,13.5277778 C10.8203704,13.0388889 10.9824074,12.662037 11.2916667,12.3972222 C11.6009259,12.1324074 12.0148148,12 12.5333333,12 C13.0481481,12 13.4601852,12.1324074 13.7694444,12.3972222 C14.0787037,12.662037 14.2407407,13.0388889 14.2555556,13.5277778 C14.262963,13.7425926 14.2666667,13.9037037 14.2666667,14.0111111 C14.2666667,14.1222222 14.262963,14.2814815 14.2555556,14.4888889 C14.237037,14.9851852 14.0768519,15.3611111 13.775,15.6166667 C13.4731481,15.8722222 13.0592593,16 12.5333333,16 Z M12.5333333,15.1666667 C12.7259259,15.1666667 12.8796296,15.1083333 12.9944444,14.9916667 C13.1092593,14.875 13.1703704,14.6962963 13.1777778,14.4555556 C13.1851852,14.2407407 13.1888889,14.087037 13.1888889,13.9944444 C13.1888889,13.9018519 13.1851852,13.7518519 13.1777778,13.5444444 C13.1703704,13.3037037 13.1092593,13.125 12.9944444,13.0083333 C12.8796296,12.8916667 12.7259259,12.8333333 12.5333333,12.8333333 C12.337037,12.8333333 12.1814815,12.8916667 12.0666667,13.0083333 C11.9518519,13.125 11.8907407,13.3037037 11.8833333,13.5444444 C11.8796296,13.6481481 11.8777778,13.7981481 11.8777778,13.9944444 C11.8777778,14.1944444 11.8796296,14.3481481 11.8833333,14.4555556 C11.8907407,14.6962963 11.9518519,14.875 12.0666667,14.9916667 C12.1814815,15.1083333 12.337037,15.1666667 12.5333333,15.1666667 Z" id="Shape" fill="#FFFFFF" fill-rule="nonzero"></path>
        <path d="M14.8428571,16 C14.8047619,16 14.7714286,15.9857143 14.7428571,15.9571429 C14.7142857,15.9285714 14.7,15.8952381 14.7,15.8571429 L14.7,12.1485714 C14.7,12.1066667 14.7133333,12.0714286 14.74,12.0428571 C14.7666667,12.0142857 14.8009524,12 14.8428571,12 L15.4885714,12 C15.5761905,12 15.6409524,12.0361905 15.6828571,12.1085714 L17.0314286,14.24 L17.0314286,12.1485714 C17.0314286,12.1066667 17.0447619,12.0714286 17.0714286,12.0428571 C17.0980952,12.0142857 17.132381,12 17.1742857,12 L17.9,12 C17.9419048,12 17.9761905,12.0142857 18.0028571,12.0428571 C18.0295238,12.0714286 18.0428571,12.1066667 18.0428571,12.1485714 L18.0428571,15.8514286 C18.0428571,15.8933333 18.0295238,15.9285714 18.0028571,15.9571429 C17.9761905,15.9857143 17.9419048,16 17.9,16 L17.2542857,16 C17.1666667,16 17.1019048,15.9638095 17.06,15.8914286 L15.7171429,13.8457143 L15.7171429,15.8571429 C15.7171429,15.8990476 15.7028571,15.9333333 15.6742857,15.96 C15.6457143,15.9866667 15.6104762,16 15.5685714,16 L14.8428571,16 Z" id="Path" fill="#FFFFFF" fill-rule="nonzero"></path>
    </g>
</svg>