<?xml version="1.0" encoding="UTF-8"?>
<svg width="24px" height="24px" viewBox="0 0 24 24" version="1.1" xmlns="http://www.w3.org/2000/svg" xmlns:xlink="http://www.w3.org/1999/xlink">
    <title>Icons/Glyphs/Files/24px/PDF</title>
    <defs>
        <linearGradient x1="48.0477547%" y1="64.6386472%" x2="48.0477547%" y2="160.446942%" id="linearGradient-1">
            <stop stop-color="#DBE9F2" offset="0%"></stop>
            <stop stop-color="#91BBD8" offset="100%"></stop>
        </linearGradient>
    </defs>
    <g id="Icons/Glyphs/Files/24px/PDF" stroke="none" stroke-width="1" fill="none" fill-rule="evenodd">
        <path d="M7,3 L15,3 L15,3 L20,8 L20,20 C20,20.5522847 19.5522847,21 19,21 L7,21 C6.44771525,21 6,20.5522847 6,20 L6,4 C6,3.44771525 6.44771525,3 7,3 Z" id="Rectangle" fill="url(#linearGradient-1)"></path>
        <rect id="Rectangle" fill="#E26369" x="2" y="10" width="17" height="8" rx="2"></rect>
        <path d="M4.14285714,16 C4.1047619,16 4.07142857,15.9857143 4.04285714,15.9571429 C4.01428571,15.9285714 4,15.8952381 4,15.8571429 L4,12.1485714 C4,12.1066667 4.01333333,12.0714286 4.04,12.0428571 C4.06666667,12.0142857 4.10095238,12 4.14285714,12 L5.76,12 C6.2552381,12 6.64380952,12.112381 6.92571429,12.3371429 C7.20761905,12.5619048 7.34857143,12.8914286 7.34857143,13.3257143 C7.34857143,13.76 7.20761905,14.0847619 6.92571429,14.3 C6.64380952,14.5152381 6.2552381,14.6228571 5.76,14.6228571 L5.10857143,14.6228571 L5.10857143,15.8571429 C5.10857143,15.8952381 5.0952381,15.9285714 5.06857143,15.9571429 C5.04190476,15.9857143 5.00761905,16 4.96571429,16 L4.14285714,16 Z M5.73142857,13.8057143 C5.88761905,13.8057143 6.01047619,13.7647619 6.1,13.6828571 C6.18952381,13.6009524 6.23428571,13.48 6.23428571,13.32 C6.23428571,13.1714286 6.19333333,13.0514286 6.11142857,12.96 C6.02952381,12.8685714 5.90285714,12.8228571 5.73142857,12.8228571 L5.09142857,12.8228571 L5.09142857,13.8057143 L5.73142857,13.8057143 Z" id="Shape" fill="#FFFFFF" fill-rule="nonzero"></path>
        <path d="M9.14,16 C9.10266667,16 9.07,15.986 9.042,15.958 C9.014,15.93 9,15.8973333 9,15.86 L9,12.2256 C9,12.1845333 9.01306667,12.15 9.0392,12.122 C9.06533333,12.094 9.09893333,12.08 9.14,12.08 L10.6128,12.08 C11.1653333,12.08 11.5946667,12.2116 11.9008,12.4748 C12.2069333,12.738 12.3674667,13.116 12.3824,13.6088 C12.3861333,13.7170667 12.388,13.8608 12.388,14.04 C12.388,14.2192 12.3861333,14.3610667 12.3824,14.4656 C12.3450667,15.4885333 11.7645333,16 10.6408,16 L9.14,16 Z M10.6128,15.16 C10.848,15.16 11.0216,15.104 11.1336,14.992 C11.2456,14.88 11.3053333,14.7008 11.3128,14.4544 C11.3202667,14.3461333 11.324,14.2061333 11.324,14.0344 C11.324,13.8626667 11.3202667,13.7245333 11.3128,13.62 C11.3053333,13.3810667 11.2409333,13.2046667 11.1196,13.0908 C10.9982667,12.9769333 10.82,12.92 10.5848,12.92 L10.0528,12.92 L10.0528,15.16 L10.6128,15.16 Z" id="Shape" fill="#FFFFFF" fill-rule="nonzero"></path>
        <path d="M14.1428571,16 C14.1047619,16 14.0714286,15.9857143 14.0428571,15.9571429 C14.0142857,15.9285714 14,15.8952381 14,15.8571429 L14,12.1485714 C14,12.1066667 14.0133333,12.0714286 14.04,12.0428571 C14.0666667,12.0142857 14.1009524,12 14.1428571,12 L16.8,12 C16.8419048,12 16.8771429,12.0142857 16.9057143,12.0428571 C16.9342857,12.0714286 16.9485714,12.1066667 16.9485714,12.1485714 L16.9485714,12.7542857 C16.9485714,12.7961905 16.9342857,12.8304762 16.9057143,12.8571429 C16.8771429,12.8838095 16.8419048,12.8971429 16.8,12.8971429 L15.0514286,12.8971429 L15.0514286,13.6914286 L16.6857143,13.6914286 C16.727619,13.6914286 16.7628571,13.7057143 16.7914286,13.7342857 C16.82,13.7628571 16.8342857,13.7980952 16.8342857,13.84 L16.8342857,14.4457143 C16.8342857,14.487619 16.82,14.5219048 16.7914286,14.5485714 C16.7628571,14.5752381 16.727619,14.5885714 16.6857143,14.5885714 L15.0514286,14.5885714 L15.0514286,15.8571429 C15.0514286,15.8952381 15.0380952,15.9285714 15.0114286,15.9571429 C14.9847619,15.9857143 14.9504762,16 14.9085714,16 L14.1428571,16 Z" id="Path" fill="#FFFFFF" fill-rule="nonzero"></path>
        <path d="M15,3 L15,7 C15,7.55228475 15.4477153,8 16,8 L20,8 L20,8 L15,3 Z" id="Path-8" fill="#2A3F64" opacity="0.315681003"></path>
    </g>
</svg>