<?xml version="1.0" encoding="UTF-8"?>
<svg width="24px" height="24px" viewBox="0 0 24 24" version="1.1" xmlns="http://www.w3.org/2000/svg" xmlns:xlink="http://www.w3.org/1999/xlink">
    <title>Icons/Glyphs/Files/24px/RAR</title>
    <g id="Icons/Glyphs/Files/24px/RAR" stroke="none" stroke-width="1" fill="none" fill-rule="evenodd">
        <path d="M7,3 L15,3 L15,3 L20,8 L20,20 C20,20.5522847 19.5522847,21 19,21 L7,21 C6.44771525,21 6,20.5522847 6,20 L6,4 C6,3.44771525 6.44771525,3 7,3 Z" id="Rectangle" fill="#A6B7E1"></path>
        <path d="M15,3 L15,7 C15,7.55228475 15.4477153,8 16,8 L20,8 L20,8 L15,3 Z" id="Path-8" fill="#2A3F64" opacity="0.315681003"></path>
        <rect id="Rectangle" fill="#FFFFFF" x="9" y="3" width="1" height="1"></rect>
        <rect id="Rectangle-Copy" fill="#FFFFFF" x="10" y="4" width="1" height="1"></rect>
        <rect id="Rectangle-Copy-2" fill="#FFFFFF" x="9" y="5" width="1" height="1"></rect>
        <rect id="Rectangle-Copy-3" fill="#FFFFFF" x="10" y="6" width="1" height="1"></rect>
        <rect id="Rectangle-Copy-4" fill="#FFFFFF" x="10" y="8" width="1" height="1"></rect>
        <rect id="Rectangle-Copy-6" fill="#FFFFFF" x="9" y="7" width="1" height="1"></rect>
        <rect id="Rectangle-Copy" fill="#D653FD" x="2" y="10" width="17" height="8" rx="2"></rect>
        <path d="M4.14285714,16 C4.1047619,16 4.07142857,15.9857143 4.04285714,15.9571429 C4.01428571,15.9285714 4,15.8952381 4,15.8571429 L4,12.1485714 C4,12.1066667 4.01333333,12.0714286 4.04,12.0428571 C4.06666667,12.0142857 4.10095238,12 4.14285714,12 L5.71428571,12 C6.21714286,12 6.61047619,12.1142857 6.89428571,12.3428571 C7.17809524,12.5714286 7.32,12.8933333 7.32,13.3085714 C7.32,13.5752381 7.25809524,13.8019048 7.13428571,13.9885714 C7.01047619,14.1752381 6.84,14.32 6.62285714,14.4228571 L7.39428571,15.8171429 C7.40571429,15.84 7.41142857,15.8609524 7.41142857,15.88 C7.41142857,15.9104762 7.4,15.9380952 7.37714286,15.9628571 C7.35428571,15.987619 7.32571429,16 7.29142857,16 L6.48571429,16 C6.3752381,16 6.29714286,15.9485714 6.25142857,15.8457143 L5.62285714,14.6057143 L5.07428571,14.6057143 L5.07428571,15.8571429 C5.07428571,15.8990476 5.06,15.9333333 5.03142857,15.96 C5.00285714,15.9866667 4.96761905,16 4.92571429,16 L4.14285714,16 Z M5.70857143,13.7657143 C5.87238095,13.7657143 5.99714286,13.7247619 6.08285714,13.6428571 C6.16857143,13.5609524 6.21142857,13.447619 6.21142857,13.3028571 C6.21142857,13.1580952 6.16857143,13.0419048 6.08285714,12.9542857 C5.99714286,12.8666667 5.87238095,12.8228571 5.70857143,12.8228571 L5.07428571,12.8228571 L5.07428571,13.7657143 L5.70857143,13.7657143 Z" id="Shape" fill="#FFFFFF" fill-rule="nonzero"></path>
        <path d="M8.62,16 C8.58952381,16 8.56190476,15.987619 8.53714286,15.9628571 C8.51238095,15.9380952 8.5,15.9104762 8.5,15.88 C8.5,15.8571429 8.50190476,15.84 8.50571429,15.8285714 L9.83714286,12.1657143 C9.8752381,12.0552381 9.95142857,12 10.0657143,12 L10.9571429,12 C11.0714286,12 11.147619,12.0552381 11.1857143,12.1657143 L12.5171429,15.8285714 C12.5209524,15.84 12.5228571,15.8571429 12.5228571,15.88 C12.5228571,15.9104762 12.5104762,15.9380952 12.4857143,15.9628571 C12.4609524,15.987619 12.4333333,16 12.4028571,16 L11.66,16 C11.5685714,16 11.5038095,15.9580952 11.4657143,15.8742857 L11.26,15.32 L9.76285714,15.32 L9.55714286,15.8742857 C9.51904762,15.9580952 9.45428571,16 9.36285714,16 L8.62,16 Z M10.0028571,14.4628571 L11.02,14.4628571 L10.5114286,13.0057143 L10.0028571,14.4628571 Z" id="Shape" fill="#FFFFFF" fill-rule="nonzero"></path>
        <path d="M13.7428571,16 C13.7047619,16 13.6714286,15.9857143 13.6428571,15.9571429 C13.6142857,15.9285714 13.6,15.8952381 13.6,15.8571429 L13.6,12.1485714 C13.6,12.1066667 13.6133333,12.0714286 13.64,12.0428571 C13.6666667,12.0142857 13.7009524,12 13.7428571,12 L15.3142857,12 C15.8171429,12 16.2104762,12.1142857 16.4942857,12.3428571 C16.7780952,12.5714286 16.92,12.8933333 16.92,13.3085714 C16.92,13.5752381 16.8580952,13.8019048 16.7342857,13.9885714 C16.6104762,14.1752381 16.44,14.32 16.2228571,14.4228571 L16.9942857,15.8171429 C17.0057143,15.84 17.0114286,15.8609524 17.0114286,15.88 C17.0114286,15.9104762 17,15.9380952 16.9771429,15.9628571 C16.9542857,15.987619 16.9257143,16 16.8914286,16 L16.0857143,16 C15.9752381,16 15.8971429,15.9485714 15.8514286,15.8457143 L15.2228571,14.6057143 L14.6742857,14.6057143 L14.6742857,15.8571429 C14.6742857,15.8990476 14.66,15.9333333 14.6314286,15.96 C14.6028571,15.9866667 14.567619,16 14.5257143,16 L13.7428571,16 Z M15.3085714,13.7657143 C15.472381,13.7657143 15.5971429,13.7247619 15.6828571,13.6428571 C15.7685714,13.5609524 15.8114286,13.447619 15.8114286,13.3028571 C15.8114286,13.1580952 15.7685714,13.0419048 15.6828571,12.9542857 C15.5971429,12.8666667 15.472381,12.8228571 15.3085714,12.8228571 L14.6742857,12.8228571 L14.6742857,13.7657143 L15.3085714,13.7657143 Z" id="Shape" fill="#FFFFFF" fill-rule="nonzero"></path>
    </g>
</svg>