<?xml version="1.0" encoding="UTF-8"?>
<svg width="24px" height="24px" viewBox="0 0 24 24" version="1.1" xmlns="http://www.w3.org/2000/svg" xmlns:xlink="http://www.w3.org/1999/xlink">
    <title>Icons/Glyphs/Files/24px/XLS</title>
    <defs>
        <linearGradient x1="48.0477547%" y1="64.6386472%" x2="48.0477547%" y2="160.446942%" id="linearGradient-1">
            <stop stop-color="#DBE9F2" offset="0%"></stop>
            <stop stop-color="#91BBD8" offset="100%"></stop>
        </linearGradient>
    </defs>
    <g id="Icons/Glyphs/Files/24px/XLS" stroke="none" stroke-width="1" fill="none" fill-rule="evenodd">
        <path d="M7,3 L15,3 L15,3 L20,8 L20,20 C20,20.5522847 19.5522847,21 19,21 L7,21 C6.44771525,21 6,20.5522847 6,20 L6,4 C6,3.44771525 6.44771525,3 7,3 Z" id="Rectangle" fill="url(#linearGradient-1)"></path>
        <rect id="Rectangle" fill="#43AD61" x="2" y="10" width="17" height="8" rx="2"></rect>
        <path d="M15,3 L15,7 C15,7.55228475 15.4477153,8 16,8 L20,8 L20,8 L15,3 Z" id="Path-8" fill="#2A3F64" opacity="0.315681003"></path>
        <path d="M4.12,16 C4.08952381,16 4.06190476,15.987619 4.03714286,15.9628571 C4.01238095,15.9380952 4,15.9104762 4,15.88 C4,15.8571429 4.00571429,15.8342857 4.01714286,15.8114286 L5.26285714,13.96 L4.11428571,12.1885714 C4.10285714,12.1657143 4.09714286,12.1428571 4.09714286,12.12 C4.09714286,12.0895238 4.10952381,12.0619048 4.13428571,12.0371429 C4.15904762,12.012381 4.18666667,12 4.21714286,12 L5.09142857,12 C5.1752381,12 5.24380952,12.0419048 5.29714286,12.1257143 L5.94285714,13.12 L6.61142857,12.1257143 C6.6647619,12.0419048 6.73142857,12 6.81142857,12 L7.64571429,12 C7.67619048,12 7.70380952,12.012381 7.72857143,12.0371429 C7.75333333,12.0619048 7.76571429,12.0895238 7.76571429,12.12 C7.76571429,12.1428571 7.76,12.1657143 7.74857143,12.1885714 L6.58857143,13.9485714 L7.84571429,15.8114286 C7.85714286,15.8342857 7.86285714,15.8571429 7.86285714,15.88 C7.86285714,15.9104762 7.85047619,15.9380952 7.82571429,15.9628571 C7.80095238,15.987619 7.77333333,16 7.74285714,16 L6.84,16 C6.75619048,16 6.68952381,15.9619048 6.64,15.8857143 L5.90857143,14.8228571 L5.19428571,15.8857143 C5.1447619,15.9619048 5.07809524,16 4.99428571,16 L4.12,16 Z" id="Path" fill="#FFFFFF" fill-rule="nonzero"></path>
        <path d="M9.64285714,16 C9.6047619,16 9.57142857,15.9857143 9.54285714,15.9571429 C9.51428571,15.9285714 9.5,15.8952381 9.5,15.8571429 L9.5,12.1428571 C9.5,12.1009524 9.51428571,12.0666667 9.54285714,12.04 C9.57142857,12.0133333 9.6047619,12 9.64285714,12 L10.4428571,12 C10.4847619,12 10.5190476,12.0133333 10.5457143,12.04 C10.572381,12.0666667 10.5857143,12.1009524 10.5857143,12.1428571 L10.5857143,15.1028571 L12.3,15.1028571 C12.3419048,15.1028571 12.3771429,15.1171429 12.4057143,15.1457143 C12.4342857,15.1742857 12.4485714,15.2095238 12.4485714,15.2514286 L12.4485714,15.8571429 C12.4485714,15.8990476 12.4342857,15.9333333 12.4057143,15.96 C12.3771429,15.9866667 12.3419048,16 12.3,16 L9.64285714,16 Z" id="Path" fill="#FFFFFF" fill-rule="nonzero"></path>
        <path d="M15.3944444,16 C15.0351852,16 14.7296296,15.9481481 14.4777778,15.8444444 C14.2259259,15.7407407 14.0351852,15.6037037 13.9055556,15.4333333 C13.7759259,15.262963 13.7074074,15.0777778 13.7,14.8777778 C13.7,14.8444444 13.712037,14.8166667 13.7361111,14.7944444 C13.7601852,14.7722222 13.7888889,14.7611111 13.8222222,14.7611111 L14.5611111,14.7611111 C14.6055556,14.7611111 14.6416667,14.7685185 14.6694444,14.7833333 C14.6972222,14.7981481 14.7277778,14.8240741 14.7611111,14.8611111 C14.8092593,14.95 14.8842593,15.0231481 14.9861111,15.0805556 C15.087963,15.137963 15.2240741,15.1666667 15.3944444,15.1666667 C15.5944444,15.1666667 15.7481481,15.1361111 15.8555556,15.075 C15.962963,15.0138889 16.0166667,14.9296296 16.0166667,14.8222222 C16.0166667,14.7444444 15.9888889,14.6805556 15.9333333,14.6305556 C15.8777778,14.5805556 15.7888889,14.5361111 15.6666667,14.4972222 C15.5444444,14.4583333 15.3685185,14.4148148 15.1388889,14.3666667 C14.6907407,14.2777778 14.3555556,14.1425926 14.1333333,13.9611111 C13.9111111,13.7796296 13.8,13.5203704 13.8,13.1833333 C13.8,12.9537037 13.8638889,12.7490741 13.9916667,12.5694444 C14.1194444,12.3898148 14.3009259,12.25 14.5361111,12.15 C14.7712963,12.05 15.0444444,12 15.3555556,12 C15.6814815,12 15.9638889,12.0564815 16.2027778,12.1694444 C16.4416667,12.2824074 16.625,12.4231481 16.7527778,12.5916667 C16.8805556,12.7601852 16.9481481,12.9259259 16.9555556,13.0888889 C16.9555556,13.1222222 16.9444444,13.1509259 16.9222222,13.175 C16.9,13.1990741 16.8722222,13.2111111 16.8388889,13.2111111 L16.0611111,13.2111111 C15.9796296,13.2111111 15.9166667,13.1777778 15.8722222,13.1111111 C15.85,13.0333333 15.7925926,12.9675926 15.7,12.9138889 C15.6074074,12.8601852 15.4925926,12.8333333 15.3555556,12.8333333 C15.2,12.8333333 15.0796296,12.8611111 14.9944444,12.9166667 C14.9092593,12.9722222 14.8666667,13.0537037 14.8666667,13.1611111 C14.8666667,13.2685185 14.9222222,13.3527778 15.0333333,13.4138889 C15.1444444,13.475 15.3518519,13.537037 15.6555556,13.6 C16.0037037,13.662963 16.2805556,13.7416667 16.4861111,13.8361111 C16.6916667,13.9305556 16.8435185,14.0527778 16.9416667,14.2027778 C17.0398148,14.3527778 17.0888889,14.5425926 17.0888889,14.7722222 C17.0888889,15.0240741 17.0166667,15.2425926 16.8722222,15.4277778 C16.7277778,15.612963 16.5277778,15.7546296 16.2722222,15.8527778 C16.0166667,15.9509259 15.7240741,16 15.3944444,16 Z" id="Path" fill="#FFFFFF" fill-rule="nonzero"></path>
    </g>
</svg>