<?xml version="1.0" encoding="UTF-8"?>
<svg width="24px" height="24px" viewBox="0 0 24 24" version="1.1" xmlns="http://www.w3.org/2000/svg" xmlns:xlink="http://www.w3.org/1999/xlink">
    <title>Icons/Glyphs/Files/24px/ZIP</title>
    <g id="Icons/Glyphs/Files/24px/ZIP" stroke="none" stroke-width="1" fill="none" fill-rule="evenodd">
        <path d="M7,3 L15,3 L15,3 L20,8 L20,20 C20,20.5522847 19.5522847,21 19,21 L7,21 C6.44771525,21 6,20.5522847 6,20 L6,4 C6,3.44771525 6.44771525,3 7,3 Z" id="Rectangle" fill="#FFDB71"></path>
        <path d="M15,3 L15,7 C15,7.55228475 15.4477153,8 16,8 L20,8 L20,8 L15,3 Z" id="Path-8" fill="#2A3F64" opacity="0.315681003"></path>
        <rect id="Rectangle" fill="#17181A" x="9" y="3" width="1" height="1"></rect>
        <rect id="Rectangle-Copy" fill="#17181A" x="10" y="4" width="1" height="1"></rect>
        <rect id="Rectangle-Copy-2" fill="#17181A" x="9" y="5" width="1" height="1"></rect>
        <rect id="Rectangle-Copy-3" fill="#17181A" x="10" y="6" width="1" height="1"></rect>
        <rect id="Rectangle-Copy-4" fill="#17181A" x="10" y="8" width="1" height="1"></rect>
        <rect id="Rectangle-Copy-6" fill="#17181A" x="9" y="7" width="1" height="1"></rect>
        <g id="Group" transform="translate(2.000000, 10.000000)">
            <rect id="Rectangle-Copy" fill="#DD9A1A" x="0" y="0" width="17" height="8" rx="2"></rect>
            <path d="M2.14857143,6 C2.10666667,6 2.07142857,5.98571429 2.04285714,5.95714286 C2.01428571,5.92857143 2,5.89333333 2,5.85142857 L2,5.26857143 C2,5.21904762 2.00761905,5.18095238 2.02285714,5.15428571 C2.03809524,5.12761905 2.05904762,5.09714286 2.08571429,5.06285714 L3.90285714,2.88571429 L2.2,2.88571429 C2.16190476,2.88571429 2.12857143,2.87142857 2.1,2.84285714 C2.07142857,2.81428571 2.05714286,2.78095238 2.05714286,2.74285714 L2.05714286,2.14857143 C2.05714286,2.10666667 2.07047619,2.07142857 2.09714286,2.04285714 C2.12380952,2.01428571 2.15809524,2 2.2,2 L5.10857143,2 C5.15047619,2 5.18571429,2.01428571 5.21428571,2.04285714 C5.24285714,2.07142857 5.25714286,2.10666667 5.25714286,2.14857143 L5.25714286,2.72571429 C5.25714286,2.79809524 5.23238095,2.86285714 5.18285714,2.92 L3.42857143,5.10285714 L5.17714286,5.10285714 C5.21904762,5.10285714 5.25428571,5.11714286 5.28285714,5.14571429 C5.31142857,5.17428571 5.32571429,5.20952381 5.32571429,5.25142857 L5.32571429,5.85714286 C5.32571429,5.89904762 5.31142857,5.93333333 5.28285714,5.96 C5.25428571,5.98666667 5.21904762,6 5.17714286,6 L2.14857143,6 Z" id="Path" fill="#FFFFFF" fill-rule="nonzero"></path>
            <path d="M8.14285714,6 C8.1047619,6 8.07142857,5.98571429 8.04285714,5.95714286 C8.01428571,5.92857143 8,5.8952381 8,5.85714286 L8,2.14285714 C8,2.10095238 8.01428571,2.06666667 8.04285714,2.04 C8.07142857,2.01333333 8.1047619,2 8.14285714,2 L8.96,2 C9.00190476,2 9.03619048,2.01333333 9.06285714,2.04 C9.08952381,2.06666667 9.10285714,2.10095238 9.10285714,2.14285714 L9.10285714,5.85714286 C9.10285714,5.8952381 9.08952381,5.92857143 9.06285714,5.95714286 C9.03619048,5.98571429 9.00190476,6 8.96,6 L8.14285714,6 Z" id="Path" fill="#FFFFFF" fill-rule="nonzero"></path>
            <path d="M11.7428571,6 C11.7047619,6 11.6714286,5.98571429 11.6428571,5.95714286 C11.6142857,5.92857143 11.6,5.8952381 11.6,5.85714286 L11.6,2.14857143 C11.6,2.10666667 11.6133333,2.07142857 11.64,2.04285714 C11.6666667,2.01428571 11.7009524,2 11.7428571,2 L13.36,2 C13.8552381,2 14.2438095,2.11238095 14.5257143,2.33714286 C14.807619,2.56190476 14.9485714,2.89142857 14.9485714,3.32571429 C14.9485714,3.76 14.807619,4.0847619 14.5257143,4.3 C14.2438095,4.5152381 13.8552381,4.62285714 13.36,4.62285714 L12.7085714,4.62285714 L12.7085714,5.85714286 C12.7085714,5.8952381 12.6952381,5.92857143 12.6685714,5.95714286 C12.6419048,5.98571429 12.607619,6 12.5657143,6 L11.7428571,6 Z M13.3314286,3.80571429 C13.487619,3.80571429 13.6104762,3.7647619 13.7,3.68285714 C13.7895238,3.60095238 13.8342857,3.48 13.8342857,3.32 C13.8342857,3.17142857 13.7933333,3.05142857 13.7114286,2.96 C13.6295238,2.86857143 13.5028571,2.82285714 13.3314286,2.82285714 L12.6914286,2.82285714 L12.6914286,3.80571429 L13.3314286,3.80571429 Z" id="Shape" fill="#FFFFFF" fill-rule="nonzero"></path>
        </g>
    </g>
</svg>